<svg version="1.2" xmlns="http://www.w3.org/2000/svg" viewBox="0 0 458 544" width="458" height="544">
	<title>carbon-credit-mrv</title>
	<style>
		.s0 { opacity: .14;fill: #2e573c } 
		.s1 { opacity: .22;fill: #cfb063 } 
		.s2 { opacity: .25;fill: #89895f } 
		.s3 { opacity: .41;fill: #2e5c35 } 
		.s4 { opacity: .64;fill: #2f5d33 } 
		.s5 { opacity: .82;fill: #315e34 } 
		.s6 { opacity: .95;fill: #838536 } 
		.s7 { opacity: .99;fill: #295c2f } 
		.s8 { opacity: .99;fill: #b1a12e } 
		.s9 { opacity: .99;fill: #918d30 } 
		.s10 { opacity: 1;fill: #707b32 } 
		.s11 { opacity: .24;fill: #406147 } 
		.s12 { opacity: .51;fill: #dcba54 } 
		.s13 { opacity: .62;fill: #9f9644 } 
		.s14 { opacity: .75;fill: #dbb941 } 
		.s15 { opacity: .99;fill: #416331 } 
		.s16 { opacity: .99;fill: #22512d } 
		.s17 { opacity: .99;fill: #5f7132 } 
		.s18 { opacity: .99;fill: #ddba26 } 
	</style>
	<g id="Background">
		<path id="Path 0" class="s0" d="m389.4 439.5c0 9.4 0.2 13.4 0.3 9 0.2-4.4 0.2-12.1 0-17-0.1-4.9-0.3-1.4-0.3 8z"/>
		<path id="Path 1" class="s1" d="m198 16.9c-2.5 0.3 6.1 0.6 19 0.6 12.9 0 21.3-0.3 18.5-0.7-2.8-0.3-11.3-0.6-19-0.6-7.7 0.1-16 0.4-18.5 0.7zm13 14.8c3.6 0.2 9.9 0.2 14 0 4.1-0.1 1.2-0.3-6.5-0.3-7.7 0-11.1 0.1-7.5 0.3z"/>
		<path id="Path 2" class="s2" d="m432.4 423.5c0 17.6 0.2 24.6 0.3 15.5 0.2-9.1 0.2-23.5 0-32-0.1-8.5-0.3-1.1-0.3 16.5z"/>
		<path id="Path 3" class="s3" d="m373.4 423.5c0 18.1 0.2 25.8 0.3 17 0.2-8.8 0.2-23.6 0-33-0.1-9.4-0.3-2.1-0.3 16zm42.8-13.8c-0.2 15.1-0.5 19.2-1.4 18.7-1-0.6-1-0.4-0.1 0.7 0.7 0.8 1.5 1.2 1.8 0.9 0.2-0.3 0.4-9.3 0.2-20l-0.2-19.5z"/>
		<path id="Path 4" class="s4" d="m376.5 391.7c1.6 0.2 4.8 0.2 7 0 2.2-0.2 0.9-0.4-3-0.4-3.9 0-5.6 0.2-4 0.4zm0.5 65c1.9 0.2 5.3 0.2 7.5 0 2.2-0.2 0.6-0.4-3.5-0.4-4.1 0-5.9 0.2-4 0.4z"/>
		<path id="Path 5" class="s5" d="m424.3 391.7l6.7 0.3c0 61.7-0.1 64-1.8 64.3q-1.8 0.4 0.3 0.3c2-0.1 2-0.8 2-32.6v-32.5l-14-0.2zm-35.7 26.7c-0.2 0.7-0.3 9.5-0.2 19.7l0.2 18.5c0.4-38.2 0.4-39 2.2-37.5 1.6 1.3 1.7 1.3 0.7-0.3-0.6-0.9-1.3-1.7-1.8-1.7-0.4 0-0.9 0.5-1.1 1.3z"/>
		<path id="Path 6" class="s6" d="m340.7 69.8c0.9 0.5 0.2 1.7-2.5 4.2-2 2-4.4 3.5-5.2 3.5-0.8 0-2.2-0.5-3-1-0.8-0.5 1.4 2.4 5 6.5 3.6 4.1 7.5 8.8 8.7 10.5 1.7 2.2 2.2 2.6 2.3 1.3 0-1 0.8-2 1.8-2.3 0.9-0.3 2.1 0.2 2.7 1.1 0.9 1.4 1.3 1.4 5 0 3.2-1.3 4.1-1.4 4.7-0.4 0.6 1 1 1 2 0.1 0.6-0.7 1.8-1.3 2.5-1.3 0.7 0 1.5 0.8 1.7 1.8 0.1 0.9 0.3 0.1 0.4-1.8 0-1.9-0.6-5.5-1.4-8-0.7-2.5-2.8-6-4.6-7.9-1.8-1.9-5.1-4.2-7.3-5.2-2.2-1-6.2-1.9-9-1.9-2.7 0-4.4 0.4-3.8 0.8z"/>
		<path id="Path 7" class="s7" d="m374 424v32h14c0-30.7 0.4-38.2 1-38.5 0.6-0.3 7.3 8.3 15 19l14 19.5h13v-64h-14c0 34.7-0.3 38.9-1.3 38.4-0.6-0.3-5.8-6.9-11.5-14.7-5.6-7.8-11.7-16.3-13.5-18.9l-3.2-4.7-13.5-0.1zm-324 48.1c-2.5 0.5-6.3 2.1-8.5 3.7-2.2 1.5-5.1 4.8-6.5 7.2-2.1 3.7-2.5 5.8-2.4 12 0 4.8 0.6 8.6 1.6 10.5 0.9 1.6 2.9 4.3 4.4 5.9 1.6 1.6 4.7 3.7 6.9 4.7 2.5 1.2 6.3 1.9 10.3 1.9 3.9 0 7.8-0.7 10.4-1.9 2.4-1 4.9-2.5 5.5-3.5 1.1-1.3 0.9-2-1-4.2l-2.2-2.6c-5.5 2.8-9.3 3.6-12.2 3.6-3.7 0.1-5.9-0.5-8-2-1.5-1.1-3.6-3.6-4.6-5.5-1.3-2.3-1.7-5-1.5-8.5 0.2-3 1.2-6.1 2.3-7.6 1.1-1.5 3.5-3.3 5.2-4.2 1.8-0.9 4.9-1.6 6.8-1.6 1.9 0 5.1 0.8 7 1.7 3.5 1.8 3.5 1.8 6.3-0.9 2.2-2.2 2.5-2.9 1.4-4.2-0.6-0.9-1.7-1.4-2.2-1.1-0.5 0.3-1 0.1-1-0.5 0-0.6-1.5-1.4-3.3-1.9-1.7-0.6-4.8-1.2-6.7-1.5-1.9-0.2-5.5 0-8 0.5z"/>
		<path id="Path 8" class="s8" d="m202.5 18.1c-6.1 0.5-14.6 1.6-19 2.4-4.4 0.9-13.1 3.3-19.4 5.3-6.2 2-11.5 4.1-11.8 4.7-0.2 0.5 1.1 3.4 2.9 6.3 1.8 2.9 3.5 5.2 3.8 5.2 0.3 0 4.1-1.3 8.5-3 4.4-1.6 10.9-3.6 14.5-4.5 3.6-0.9 11.7-2.3 18-3.1 6.3-0.7 15-1.4 19.3-1.4 4.2 0 12.8 0.7 18.9 1.6 6.2 0.8 14.9 2.4 19.3 3.5 4.4 1.2 11.8 3.5 16.5 5.3 4.7 1.8 11 4.6 14 6.2 3 1.6 5.9 2.9 6.4 2.9 0.5 0 1-0.7 1.1-1.5 0.2-0.8 0.6-3.5 1-6l0.7-4.5c-10.6-5.2-18-8.3-23.2-10.1-5.2-1.9-13.1-4.3-17.5-5.3-4.4-1.1-12.1-2.4-17-3-4.9-0.5-12.8-1.2-17.5-1.4-4.7-0.3-13.4-0.1-19.5 0.4z"/>
		<path id="Path 9" class="s9" d="m296.6 42.2c-0.5 2.4-1 5.3-1.2 6.5-0.3 1.5 0.2 2.5 1.3 2.9 1 0.3 5.4 3 9.8 5.9 4.4 2.9 11.6 8.6 16 12.7 5 4.6 8.8 7.4 10.2 7.3 1.2 0 3.8-1.6 5.7-3.5l3.6-3.5c-4.3-2.5-9.3-6.7-14-11-4.7-4.2-13-10.6-18.5-14.2-5.5-3.6-10.5-6.8-11-7-0.6-0.2-1.5 1.5-1.9 3.9z"/>
		<path id="Path 10" class="s10" d="m363.5 92.5c-2 1-3.2 1.2-3.5 0.5-0.3-0.7-1.9-0.5-4.5 0.6-3.7 1.4-4.1 1.4-5 0-0.6-0.9-1.8-1.4-2.8-1.1-0.9 0.3-1.7 1.3-1.7 2.3 0 0.9 1.9 4.5 4.3 8 2.3 3.5 4.6 6.3 5.2 6.3 0.6 0 2.1-1.1 3.6-2.3 1.4-1.3 3.2-3.4 4.1-4.8 0.9-1.4 2.1-4.4 2.6-6.8 0.5-2.3 0.8-4.2 0.8-4.2-0.1 0-1.5 0.7-3.1 1.5z"/>
		<path id="Path 11" class="s1" d="m211.5 43.7c3.3 0.2 8.9 0.2 12.5 0 3.6-0.2 0.9-0.3-6-0.3-6.9 0-9.8 0.1-6.5 0.3zm-164.1 142.3c0 5.8 0.1 8 0.3 5 0.2-3 0.2-7.8 0-10.5-0.2-2.8-0.3-0.3-0.3 5.5z"/>
		<path id="Path 12" class="s11" d="m212.5 355.7c2.8 0.2 7.5 0.2 10.5 0 3-0.2 0.8-0.3-5-0.3-5.8 0-8.3 0.1-5.5 0.3zm-87.5 90c1.9 0.2 5.3 0.2 7.5 0 2.2-0.2 0.6-0.4-3.5-0.4-4.1 0-5.9 0.2-4 0.4zm12.5 26c3.3 0.2 8.3 0.2 11 0 2.8-0.2 0.1-0.3-6-0.3-6.1 0-8.3 0.1-5 0.3zm-1.9 10.1c-0.2 0.4 3 0.6 7.2 0.4 4.3-0.1 9.3-0.4 11.2-0.6 1.9-0.1-1.3-0.3-7.2-0.4-5.9-0.1-10.9 0.1-11.2 0.6zm6.4 7.9c1.9 0.2 5.3 0.2 7.5 0 2.2-0.2 0.6-0.4-3.5-0.4-4.1 0-5.9 0.2-4 0.4z"/>
		<path id="Path 13" class="s2" d="m216 104.7c3 0.2 8.2 0.2 11.5 0 3.3-0.2 0.8-0.3-5.5-0.3-6.3 0-9 0.1-6 0.3zm-167.7 175.8c0 3.9 0.2 5.2 0.4 3 0.2-2.2 0.2-5.4 0-7-0.2-1.6-0.4 0.1-0.4 4z"/>
		<path id="Path 14" class="s3" d="m78.6 471.8c-0.2 0.4 3 0.6 7.2 0.4 4.3-0.1 9.3-0.4 11.2-0.6 1.9-0.1-1.3-0.3-7.2-0.4-5.9-0.1-10.9 0.1-11.2 0.5zm93.9 0c2.2 0.2 6 0.2 8.5 0 2.5-0.2 0.7-0.4-4-0.4-4.7 0-6.7 0.2-4.5 0.4zm57.1 0c-0.2 0.5 5.1 0.7 11.7 0.5 6.7-0.1 14.9-0.4 18.2-0.5 3.3-0.2-2-0.4-11.7-0.5-9.7-0.1-17.9 0.1-18.2 0.5zm55 0.6c-0.3 0.7-0.3 11.1-0.2 23.2l0.1 22 0.5-45.5 9.5-0.6c-7.9-0.3-9.7 0-9.9 0.9zm64.9-0.6c2.7 0.2 7.5 0.2 10.5 0 3-0.2 0.8-0.3-5-0.3-5.8 0-8.3 0.1-5.5 0.3zm-14.1 21.8c0 11 0.2 15.7 0.3 10.5 0.2-5.2 0.2-14.2 0-20-0.1-5.8-0.3-1.5-0.3 9.5zm-105.6-12.2c0.4 0.4 3.4 0.6 6.7 0.5l6-0.3c-10.4-0.8-13.1-0.7-12.7-0.2zm31.7-0.4l-7 0.6-0.1 35 0.6-34.5c10.1 0 13.2-0.5 13.5-1 0.2-0.6 0.3-0.9 0.2-0.8-0.1 0.1-3.3 0.4-7.2 0.7zm33.9 23.1c0 7.4 0.1 10.4 0.3 6.5 0.2-3.9 0.2-9.9 0-13.5-0.2-3.6-0.3-0.4-0.3 7zm-206.1 6.5c0 4.4 0.2 6 0.4 3.5 0.2-2.5 0.2-6.1 0-8-0.2-1.9-0.4 0.1-0.4 4.5zm52.2-1.8c3.3 0.2 8.9 0.2 12.5 0 3.6-0.2 0.9-0.3-6-0.3-6.9 0-9.8 0.1-6.5 0.3z"/>
		<path id="Path 15" class="s12" d="m136 102.8l-6.5 6.7c10.5-10.1 13.5-13.1 13.5-13.2 0-0.2-0.1-0.3-0.3-0.3-0.1 0-3.2 3-6.7 6.8z"/>
		<path id="Path 16" class="s13" d="m75.4 186.5c0 6.6 0.1 9.1 0.3 5.5 0.2-3.6 0.2-9 0-12-0.2-3-0.3-0.1-0.3 6.5zm26-1c0 6.1 0.1 8.3 0.3 5 0.2-3.3 0.2-8.3 0-11-0.2-2.8-0.3-0.1-0.3 6zm-38 2c0 6.6 0.1 9.1 0.3 5.5 0.2-3.6 0.2-9 0-12-0.2-3-0.3-0.1-0.3 6.5z"/>
		<path id="Path 17" class="s4" d="m101 288.3c0 0.1 3.5 3.6 7.7 7.7l7.8 7.5c-11.2-12-14.6-15.5-15-15.5-0.3 0-0.5 0.1-0.5 0.2zm112 40.5c3 0.2 7.5 0.2 10 0 2.5-0.2 0-0.3-5.5-0.3-5.5 0-7.5 0.1-4.5 0.3zm2.5 13c2.8 0.2 6.8 0.2 9 0 2.2-0.2-0.1-0.3-5-0.3-4.9 0-6.8 0.1-4 0.3zm-95.9 50c-0.2 0.5 3.6 0.8 8.4 0.8 4.8 0 8.6-0.3 8.4-0.8-0.2-0.4-4-0.7-8.4-0.7-4.3 0-8.1 0.3-8.4 0.7zm62.9 0c4.4 0.2 11.4 0.2 15.5 0 4.1-0.1 0.5-0.3-8-0.3-8.5 0-11.9 0.2-7.5 0.3zm52.1 0.6c-0.2 0.7-0.3 15.4-0.2 32.7l0.1 31.5 36 0.1-35.5-0.6v-64l34.5-0.6c-30.5-0.3-34.6-0.1-34.9 0.9zm-50.4 53.4l-0.2 10.3c-11.7 0-14.2-0.4-14.5-1.3-0.3-0.6-0.4-0.5-0.2 0.3 0.3 1.1 2.1 1.6 7.5 1.7 5 0.2 7.4-0.1 7.7-1 0.3-0.6 0.4-5.5 0.2-10.7l-0.3-9.5zm40 6.7c1 1.2 1.8 2.4 1.8 2.8 0 0.4-3.5 0.7-7.7 0.7-5.9 0-8.3-0.4-9.8-1.7l-2-1.8c3.8 4.4 4.9 4.6 12.3 4.6 5.9 0 8.2-0.4 8.2-1.3 0.1-0.7-1-2.1-2.2-3.3l-2.3-2zm-132.6 3.8c0.2 0.4 3.8 0.7 7.9 0.7 4.1 0 7.7-0.3 7.9-0.7 0.2-0.4-3.3-0.8-7.9-0.8-4.6 0-8.1 0.4-7.9 0.8zm57 0c0.2 0.4 3.8 0.7 7.9 0.7 4.1 0 7.7-0.3 7.9-0.7 0.2-0.4-3.3-0.8-7.9-0.8-4.6 0-8.1 0.4-7.9 0.8zm-24.2 37.2c0 12.2 0.2 16.9 0.3 10.5 0.2-6.3 0.2-16.2 0-22-0.1-5.7-0.3-0.6-0.3 11.5zm90 1c0 12.7 0.2 17.7 0.3 11 0.2-6.6 0.2-16.9 0-23-0.1-6-0.3-0.6-0.3 12zm129 0c0 12.7 0.2 17.7 0.3 11 0.2-6.6 0.2-16.9 0-23-0.1-6-0.3-0.6-0.3 12zm-100.4 4.8l0.5 18.2c0.4-27.1 0.1-35.3-0.3-35.7-0.4-0.3-0.5 7.5-0.2 17.5zm78.4-7l-1.9 2.2 4.5-4 0.4 27c0.5-20.1 0.2-26.3-0.2-26.7-0.5-0.4-1.7 0.2-2.8 1.5zm-243.1 15.7c0 4.7 0.2 6.5 0.4 4 0.2-2.4 0.2-6.3 0-8.5-0.2-2.2-0.4-0.1-0.4 4.5z"/>
		<path id="Path 18" class="s14" d="m108.5 76.3l-7 7.2c11.3-10.8 14.5-14.1 14.5-14.2 0-0.2-0.1-0.3-0.3-0.3-0.1 0-3.4 3.3-7.2 7.3z"/>
		<path id="Path 19" fill-rule="evenodd" class="s5" d="m222 308.4c5.8 0 8 0.1 5 0.3-3 0.2-7.8 0.2-10.5 0-2.8-0.2-0.3-0.3 5.5-0.3zm-46.5 82.9l-5.5 0.7-0.5 59.5-0.1-29c-0.1-15.9 0-29.5 0.2-30.2 0.2-0.7 1.6-1.2 5.9-1zm-47.5 53.1c8.5 0 12.1 0.2 8 0.3-4.1 0.2-11.1 0.2-15.5 0-4.4-0.1-1-0.3 7.5-0.3zm21 35.9c4.1 0 5.7 0.2 3.5 0.4-2.2 0.2-5.6 0.2-7.5 0-1.9-0.2-0.1-0.4 4-0.4zm-13.5 10.1l22 0.1v8l-18 0.1 17.5-0.6v-7zm31.1 13.6c0.2 1.4 0.5 5.1 0.6 8.2 0.2 3.1 0 5.4-0.5 5.2-0.4-0.2-0.6-3.9-0.6-8.1 0.1-4.3 0.3-6.7 0.5-5.3zm-6.9 8c0.2 1.9 0.2 4.1-0.2 4.8-0.4 0.9-4 1.2-28 0.8l27.5-0.6 0.2-4.2c0.1-4 0.1-4.1 0.5-0.8zm19.8 5.4c4.9 0 7.2 0.1 5 0.3-2.2 0.3-6.3 0.3-9 0-2.8-0.2-0.9-0.3 4-0.3z"/>
		<path id="Path 20" class="s6" d="m213.3 105.7c0.9 0.2 1.5 0.8 1.2 1.3-0.3 0.5-0.1 1 0.5 1 0.6 0 1 0.8 1 1.7 0 1-0.3 2.3-0.8 2.8-0.4 0.5-1.3 2.6-1.9 4.5-0.7 1.9-1.7 6.2-2.2 9.5-0.6 3.3-1.5 7.3-1.9 9-0.8 2.8-0.7 3 1.5 2.5 1.3-0.3 2.7-1.4 3-2.5 0.4-1.1 0.8-2.9 0.9-4 0.1-1.1 1.3-5.8 2.7-10.5 1.3-4.7 3.1-10 4-11.8 1-1.7 1.7-3.4 1.6-3.7-0.1-0.2-2.6-0.4-5.8-0.3-3.1 0.1-4.8 0.3-3.9 0.5zm-135 52.8c0 1.1-0.5 4.7-1.1 8-0.6 3.3-1.1 6.9-1.1 8 0 1.6 0.2 1.7 1 0.5 0.5-0.9 2.4-1.5 4.5-1.5q3.6 0 4.6 1.8c0.5 0.9 1.6 1.7 2.4 1.7 0.8 0 1.5 0.7 1.5 1.5 0 0.9 1.4 1.7 3.7 2.2 2.1 0.3 4.1 0.6 4.5 0.5 0.5-0.1 0.8 0.5 0.8 1.3 0 0.8 0.3 1.7 0.7 1.9 0.5 0.2 0.9-1.2 1.1-3.2 0.1-2.1 0.7-6.4 1.2-9.7 0.5-3.3 0.7-6.2 0.4-6.5-0.2-0.3-0.4 0.3-0.4 1.3 0 1.1-0.4 1.4-1.3 1-0.6-0.4-2.2-0.6-3.5-0.5-1.2 0.1-2.2-0.2-2.2-0.8 0-0.6-1.1-1-2.5-1-1.4 0-2.6-0.6-2.6-1.3-0.1-0.6-1.3-1.8-2.8-2.5-1.4-0.7-3.5-1.1-4.6-1-1.2 0.3-2.5-0.4-3.2-1.7-1.2-2-1.2-2-1.1 0zm90.2 31.6c-1.6 1-3.4 2.2-4.1 2.5-0.7 0.3-2.1 2.1-3.3 4-1.1 1.9-2.3 3.2-2.8 2.9-0.4-0.2-1.7 0.2-3 1-1.2 0.8-2.2 2.4-2.2 3.5q0 2-4.5 4.5c-2.5 1.4-4.6 3.1-4.6 3.7-0.1 0.7 0 1.7 0.1 2.3 0.1 0.6-0.5 0.3-1.4-0.5-1.6-1.4-1.6-1.3-0.4 1.6 1.1 2.6 1.5 2.9 2.6 1.8 0.7-0.8 1.7-1.4 2.2-1.4 0.4 0 5.3-4.5 10.8-10 5.5-5.5 10.7-10 11.6-10 0.9 0 1.7 0.5 1.8 1.2 0.2 0.6 0.9 0.9 1.5 0.5 0.9-0.5 1.1-1.8 0.7-4-0.4-1.7-1-3.7-1.4-4.3-0.5-0.8-1.6-0.5-3.6 0.7zm-101.3 56c-2.4 1.7-4.3 3.6-4.1 4.2q0.2 1.3 0.6-0.1c0.2-0.6 1.3-1.2 2.4-1.2 1.1 0 1.8-0.3 1.6-0.8-0.3-0.4 1-1.4 2.8-2.2 1.8-0.8 3.2-1.2 3-0.8-0.2 0.5 0.3 1 1.1 1.3 1.2 0.4 1.3 0.1 0.5-1.5-0.6-1.1-1.6-2-2.3-2-0.7 0-3.2 1.4-5.6 3.1zm281.5 7.9c-0.4 1.1-0.9 1.8-1.4 1.6-0.4-0.3-3.9 2.6-7.7 6.5-5.3 5.2-6.5 6.8-4.8 6.6 1.1-0.1 2-0.4 1.7-0.7-0.2-0.3 0.8-1.1 2.1-1.8 2.2-1 2.4-1 1.7 0.4-0.6 1.3-0.3 1.4 1.2 0.8 1-0.5 3.5-4.1 5.5-8.1 2-4 3.3-7.2 2.9-7.3-0.4 0-0.9 0.9-1.2 2z"/>
		<path id="Path 21" fill-rule="evenodd" class="s7" d="m206.6 234.6c4.1 1.4 9.5 2.4 13.4 2.5 3.6 0 6.1 0.3 5.5 0.5-0.6 0.3-0.7 3-0.2 7.7 0.5 4.6 0.4 8.2-0.3 10-0.5 1.5-1.7 2.7-2.5 2.7-0.8 0-1.5 0.7-1.5 1.5 0 0.8 0.4 2.4 1 3.5q1 2 0 2c-0.6 0-0.8 0.4-0.5 1 0.3 0.6-0.4 1-1.5 1-1.1 0-1.9 0.3-1.9 0.8 0.1 0.4 0.1 1.3 0 2-0.1 0.9-1.9 1.1-7.3 0.6-4-0.3-10-1.3-13.3-2.1-3.3-0.9-8.4-2.7-11.2-4-4.6-2-5.2-2.6-4.7-4.5 0.4-1.3 1.6-4.5 2.8-7.2 1.1-2.7 2.8-5.4 3.7-6 0.9-0.6 3.5-3.8 5.8-7.1 2.3-3.3 4.2-5.6 4.2-5 0 0.6 0.3 0.3 0.8-0.6 0.7-1.4 1.5-1.3 7.7 0.7zm25.6 1.4c1 0 1.8 0.7 1.8 1.5 0 0.8-0.4 1.7-1 2-0.6 0.3-0.8-0.2-0.5-1 0.3-0.9-0.1-1.5-1.2-1.5-0.9 0-1.8 0.4-2 1-0.2 0.6 0.2 1 0.9 1 0.6 0 0.9 0.2 0.7 0.5-0.2 0.3-1.3 0.2-2.4-0.1-2-0.7-2-0.7 0-2.1 1.1-0.7 2.7-1.3 3.7-1.3zm-65.6 60c0.8 0 5.1 1.5 9.6 3.4 4.6 1.8 12.1 4.3 16.8 5.4 4.7 1.2 11.9 2.7 16 3.3 4.7 0.7 12.2 0.9 20 0.5 6.9-0.4 17-1.3 22.5-2.1 5.5-0.8 13-2.1 16.7-2.9 3.8-0.9 7.4-1.3 8-0.8q1.3 0.7 0.5-0.5c-0.4-0.7-0.3-1.3 0.3-1.3 0.6 0 1.8-0.3 2.7-0.7 1.4-0.6 1.6-0.4 1 0.7q-0.9 1.5 0.5-0.1c0.7-0.9 2.3-1.9 3.5-2.3 1.3-0.3 2.3-0.2 2.3 0.4 0 0.6-0.6 1.2-1.3 1.4-0.6 0.3 0.2 0.2 1.8 0 2.2-0.4 3.8 0.1 5.8 1.8 2 1.6 2.9 3.3 3 5.8 0.2 3.4 0 3.6-7.8 7.7-4.4 2.3-11.6 5.6-16 7.3-4.4 1.7-12.3 4.2-17.5 5.5-5.2 1.3-11.2 2.6-13.3 2.9-3.2 0.5-3.8 0.3-4.6-1.6-0.8-2.3-1.1-2.3-15.7-2-11.5 0.3-17.5-0.1-26.4-1.7-6.3-1.1-15.9-3.3-21.3-5-5.3-1.7-9.7-3.5-9.7-4.1 0-0.6-0.7-0.8-1.5-0.5-0.8 0.3-2.2-0.2-3-1-0.8-0.8-1.8-1.5-2.3-1.5-0.4 0.1-1.4-0.6-2.2-1.5-1.3-1.4-1.2-2 1.2-5.5 1.6-2.2 2.6-4.4 2.3-5-0.3-0.6-0.1-1 0.5-1 0.6 0 1.2-0.9 1.5-2 0.4-1.5 0.9-1.8 2-1 1.1 0.7 1.7 0.6 2.1-0.5 0.3-0.8 1.2-1.5 2-1.5zm-101.4 95.1c4.9-0.1 7.6 0.3 7.3 0.9-0.3 0.6-1.3 0.7-2.2 0.4-1-0.3-2.9-0.4-4.3-0.1-2 0.5-2.5 1.2-2.4 3.4 0.1 1.5 0.2 3 0.3 3.3 0 0.3 1.1 0.6 2.4 0.6 1.2 0.1 3.3 0.4 4.7 0.8 1.4 0.4 3.1 1.1 3.8 1.6 0.6 0.6 1.7 0.7 2.4 0.3q1.2-0.8 0.6 0.7c-0.3 0.9-1.5 1.4-2.9 1.2-1.3-0.2-3.7-0.9-5.4-1.8-1.7-0.8-3.1-1.4-3.2-1.4-0.2 0-0.1 0.3 0.1 0.8 0.3 0.4-1.9 1.3-4.7 2-3.1 0.7-6.5 2.4-8.4 4.2-1.8 1.7-4 4.7-4.9 6.8-0.9 2-1.7 6.2-1.7 9.2-0.1 3.6 0.7 7 2.1 10 1.1 2.5 3.4 5.4 4.9 6.6 1.5 1.1 4.6 2.7 6.8 3.4 2.3 0.7 5.9 1 8.5 0.7 2.5-0.3 5.6-1 7-1.5 1.4-0.5 2.9-0.9 3.3-0.8 0.5 0 1.3-0.7 1.8-1.6 0.5-1 1.2-1.8 1.7-1.8 0.4 0 2.4 2 4.5 4.5 3.5 4.2 3.6 4.6 2 6-1 0.9-4 2.8-6.8 4.3-4.6 2.5-5.9 2.7-16.5 2.7-10.5 0-11.9-0.2-16.5-2.6-2.7-1.5-6.8-4.6-8.9-7-2.2-2.4-4.9-6.4-6-8.9-1.6-3.6-2-6.5-2-14 0.1-7.5 0.5-10.5 2.2-14.2 1.2-2.7 4.3-7 7-9.6 3-3.1 6.7-5.6 10.2-7 3.8-1.5 7.8-2.1 13.3-2.1zm264.7 0c6.7-0.1 11 0.4 14.4 1.6 2.7 1 7.2 3.8 9.9 6.3 2.7 2.5 6.1 6.8 7.6 9.5 2.3 4.5 2.6 6.1 2.6 15.5 0 9.5-0.3 11-2.8 15.8-1.5 2.8-3.1 5.2-3.7 5.2-0.5 0-1 0.6-1 1.3 0 0.6-1.7 2.5-3.8 4.2-2 1.6-5.9 3.8-8.7 4.8-3.4 1.3-7.7 1.9-13.5 1.9-5.4 0-10.3-0.7-13.5-1.7-2.7-1-6.8-3-9-4.7-2.2-1.6-5.3-4.8-6.8-7.1-1.5-2.3-3.5-6.4-4.3-9.2-0.8-2.7-1.4-7.2-1.4-10 0-2.7 0.6-7.2 1.4-10 0.7-2.7 2-6.4 2.8-8 0.9-1.6 3.8-5 6.5-7.5 2.7-2.5 7-5.3 9.4-6.2 2.9-1.1 7.6-1.7 13.9-1.7zm-12.4 17.7c-1 0.9-2.7 3.4-3.7 5.5-1.2 2.4-1.9 5.8-1.9 9.7q0 6 2 10c1.1 2.2 3.2 4.9 4.8 6.1 1.5 1.1 4.5 2.5 6.7 3 2.3 0.6 6 0.7 8.5 0.3 2.5-0.5 5.8-1.7 7.4-2.8 1.6-1.2 3.9-3.4 5-4.9 1.5-2 2.2-4.8 2.5-9.5 0.2-3.7-0.1-8.3-0.7-10.2-0.6-1.9-2.7-5-4.6-6.7-2-1.8-5.3-3.7-7.3-4.3-2.1-0.5-4.9-1-6.3-1-1.4 0.1-4.3 0.7-6.5 1.6-2.2 0.8-4.8 2.2-5.9 3.2zm-240.1-16.5c0.8 0.4 2 0.7 2.5 0.7 0.6 0 0.9 0.8 0.8 1.8-0.2 1.1-0.9 1.7-1.8 1.5-0.8-0.2-1.8-1.3-2.3-2.6-0.6-1.8-0.4-2.1 0.8-1.4zm42.7-0.3l15.3-0.1 2.3 5.3c1.2 2.9 3.6 7.9 5.2 11.1 1.7 3.1 2.8 6.4 2.5 7.2q-0.5 1.5 0.7 0.8c0.9-0.6 1-0.3 0.5 1-0.4 0.9-0.4 1.5 0.1 1.3 0.4-0.3 4.3 7.7 8.7 17.6 4.4 9.9 8.1 18.4 8.3 18.9 0.1 0.5-3.2 0.8-15 0.4l-2-5c-1.1-2.7-2.5-5.3-3.1-5.7-0.7-0.4-7.8-0.8-15.9-0.8-10.4 0-15 0.4-16 1.3-0.7 0.6-2.2 3.4-5.3 10.8l-7.2-0.1c-4 0-7.3-0.2-7.3-0.5 0-0.3 3.1-7.4 6.9-15.7 3.7-8.4 10.1-22.6 14.1-31.5zm-0.7 37.2c-0.5 1.6 0.4 1.8 8.5 1.8 8.1 0 8.9-0.2 8.4-1.8-0.3-1-2-5.9-3.8-11-1.8-5.1-3.7-9.2-4.3-9.2-0.5 0-2.6 4.1-4.6 9.2-2 5.1-3.9 10-4.2 11zm50.5-37.2h17c9.3 0 18.9 0.4 21.2 1 2.3 0.5 6.1 2.5 8.3 4.3 2.6 2.2 4.5 4.9 5.7 8.2 1 2.7 1.8 6.8 1.8 9 0 2.1-1 6-2.3 8.5-1.5 2.9-3.8 5.5-6.9 7.5-2.6 1.6-4.8 3.3-4.8 3.7 0 0.4 3.6 5.3 8 10.8 4.4 5.5 8 10.2 8 10.5 0 0.2-3.6 0.5-16 0.5l-16-21h-10v21h-14zm15 30c13.2 0 18.1-0.6 19.5-1.3 1.4-0.7 2.9-2.4 3.4-3.7 0.4-1.4 0.6-3.7 0.4-5-0.2-1.4-1.3-3.4-2.5-4.5-1.7-1.7-3.8-2.1-11.3-2.4l-9.3-0.4zm50.2-30.1l20.1 0.3c18.3 0.3 20.6 0.5 24.2 2.4 2.2 1.2 4.9 3.4 5.9 5 1.1 1.6 2.3 4.3 2.8 5.9 0.4 1.7 0.4 4.6-0.2 6.8-0.6 2-2.3 5.2-6.9 10.2l4.2 4.3c4.2 4.3 4.2 4.4 4.2 11.7 0 6.5-0.3 7.7-2.5 10-1.4 1.5-4.3 3.7-6.5 4.9-3.7 1.9-5.7 2.1-45.5 2.6zm14.9 24.2c14.7 0 19.9-0.5 21-1 1.4-0.8 2-2 2-4.5 0-2.5-0.6-3.8-2-4.5-1.1-0.6-6.3-1-11.5-1h-9.5zm0 27c17.7 0 21.1-0.4 22.7-1.5 1.6-1.1 2.3-2.6 2.3-4.8 0-1.8-0.8-4-1.8-5-1.4-1.4-3.7-1.7-12.5-1.7h-10.7zm-159.6 29c5.5 0 12.1 0.5 14.6 1 2.4 0.6 5.5 2.1 6.8 3.3 1.3 1.2 3 3.4 3.7 4.9 0.8 1.5 1.5 4.4 1.5 6.5-0.1 2.1-1 5.2-2 7-1.1 1.8-3.4 4-5.1 5-1.6 1-3 2-3 2.3 0 0.2 2.5 3.5 5.5 7.2 3.1 3.7 5.6 7 5.6 7.3 0 0.2-2.5 0.5-11 0.5l-5.8-7.6c-5.1-6.7-6.1-7.5-9-7.5-3.2 0.1-3.2 0.2-3.2 4.6 0 2.4-0.5 5.6-1 7-0.8 1.8-0.8 2.3 0.2 1.7 0.7-0.5 1-0.2 0.7 0.7-0.3 0.9-1.8 1.3-4.2 1.2-2.1-0.1-4.2-0.1-4.7-0.1-0.7 0-1.1-8.1-1.2-21.9-0.1-12 0.2-22.1 0.7-22.5 0.4-0.3 5.3-0.6 10.9-0.6zm-0.4 21c10.9 0 12.9-0.4 14.2-1.8 0.9-0.9 1.7-2.6 1.8-3.7 0-1.1-0.8-2.8-1.8-3.8-1.3-1.2-3.5-1.7-8-1.7h-6.2zm68.5-20.5v8l-4-0.4c-2.2-0.2-7.8-0.1-20.5 0.9l-0.1 3.7c0 2.1 0.6 4.3 1.3 5 0.8 0.9 4.5 1.3 21.8 1.3v7l-22.5 0.5v10l24.5 0.5v8h-34l-0.2-21.9c-0.1-12 0.2-22.1 0.7-22.5 0.4-0.4 8.1-0.6 33-0.1zm17.9-0.6c4.4 0 10.5 0.5 13.6 1.1 3 0.5 7.1 2.1 9.2 3.5 2.4 1.6 4.6 4.3 6.2 7.7 1.8 3.6 2.5 7 2.5 10.8 0 3.2-0.8 7.1-1.8 9.5-1.1 2.2-3.2 5.2-4.8 6.7-1.6 1.4-4.5 3.4-6.6 4.2-2.7 1.1-7.2 1.6-27.7 1.6l-0.2-21.9c-0.1-12 0.2-22.1 0.7-22.5 0.4-0.3 4.4-0.6 8.9-0.7zm1.6 36.1c6.9 0 10.6-0.8 12.5-1.8 2.1-1 4.2-3.1 5-5 0.8-1.8 1.5-4.8 1.5-6.7 0-2-0.7-4.9-1.5-6.5-0.9-1.7-2.9-3.7-4.5-4.5-1.7-0.9-5.3-1.5-8-1.5h-5zm37-36h4.5c3.1 0 4.6 0.4 5 1.5 0.2 0.8 0.5 10.6 0.5 21.7 0 11.8-0.4 20.7-1 21.3-0.5 0.5-2.8 0.8-9 0.5zm34.1 0c17.7 0 17.9 0 18.5 2.2 0.3 1.2 0.3 3.3 0 4.5-0.6 2.1-1.2 2.3-13.6 2.3l-0.2 17.2c0 9.5 0 17.6 0 18 0.1 0.4-1.7 0.9-3.9 1-2.3 0.1-4.5 0-5-0.2-0.5-0.3-1-8.4-1.4-35.5l-13.5-0.5-0.2-3.9c-0.1-2.1 0.2-4.1 0.7-4.5 0.4-0.3 8.8-0.6 18.6-0.6zm40.3 0c2.5 0 4.3 0.7 5.8 2.3 1.2 1.4 4.7 5.6 7.8 9.5 3 3.9 6 7.1 6.7 7.1 0.7 0 4.6-4.2 16.3-18.9l8.5 0.5 0.2 21.5c0.1 11.8-0.2 21.9-0.7 22.5-0.5 0.5-2.2 0.9-3.7 0.8-1.6 0-3.4-0.1-4.1-0.2-0.9-0.1-1.2-3.6-1.2-13.6 0-10.4-0.3-13.5-1.3-13.2-0.7 0.2-3.8 3.5-7 7.5-3.2 3.9-6.3 7.1-7 7.1-0.7 0-3.9-3.4-7.2-7.5-3.3-4.1-6.4-7.5-6.8-7.5-0.4 0-0.7 6.1-0.7 27.1l-9.5-0.5-0.2-21c-0.1-11.6 0-21.6 0.2-22.3 0.2-0.7 1.9-1.2 3.9-1.2zm66 0c5.5 0 11.9 0.4 14.1 1 2.2 0.5 5.1 1.7 6.5 2.8 1.3 1 3.1 3.1 3.8 4.7 0.8 1.6 1.4 4.8 1.4 7 0.1 2.2-0.7 5.4-1.6 7.2-0.9 1.8-3 3.9-4.6 4.8-1.7 0.8-3 1.9-3 2.5 0 0.5 2.4 4 5.4 7.7 3 3.7 5.1 7 4.6 7.3-0.5 0.2-2.9 0.3-5.5 0.2-4.3-0.2-4.8-0.5-9.8-7-2.8-3.7-5.7-7.1-6.2-7.5-0.6-0.4-2.3-0.7-6.5-0.7v15l-3.3 0.2c-1.8 0.2-4 0.2-5 0-1.6-0.2-1.8-2.1-1.9-22.1-0.1-12 0.2-22.1 0.7-22.5 0.4-0.3 5.3-0.6 10.9-0.6zm-0.4 21c12.7-0.5 13.5-0.8 14.9-3.2 1.4-2.4 1.4-2.8-0.2-5.2-1.6-2.4-2.3-2.6-8.2-2.6h-6.5zm33.5-21c1.9 0 4 0.2 4.7 0.4 0.7 0.3 4 7.5 7.3 16.1 3.3 8.5 6.3 15.5 6.7 15.5 0.4 0 1.5-1.7 2.3-3.8 0.9-2.1 3.4-8.7 5.7-14.7 2.2-6.1 4.6-11.6 5.2-12.3 0.6-0.7 2.9-1.3 5.1-1.3 2.2 0 4.3 0.2 4.7 0.5 0.4 0.3-1.8 6.5-4.8 13.8-3.1 7.3-7.1 17.2-12.4 30.8l-11.4-0.5-3.2-8c-1.8-4.4-5.8-14.1-8.8-21.5-3.1-7.5-5.3-13.9-5.1-14.3 0.3-0.4 2.1-0.7 4-0.7z"/>
		<path id="Path 22" class="s15" d="m176.1 229.7c-5.2 5.4-9.9 10.8-10.5 12.1-0.6 1.2-1.4 2.2-1.8 2.2-0.5 0-1 0.7-1.3 1.5-0.3 0.9 1.1 3 3.6 5.3 2.3 2 6.2 5.2 8.8 7 2.5 1.8 5 3.1 5.4 3 0.4-0.2 1.9-3 3.2-6.3 1.4-3.3 3.3-6.7 4.3-7.5 1-0.8 3.6-4.1 5.8-7.2 2.1-3.2 4.1-5.5 4.4-5.3 0.3 0.3 0.8-0.2 1.3-1 0.5-1.1-0.4-2.3-3-4.2-2.1-1.4-5.4-4.1-7.3-6l-3.6-3.4zm-39.2 51.1c-0.4 4.4-1.5 8.5-3.2 11.9-1.5 2.9-2.7 5.5-2.7 5.8 0 0.3 3.8 2.9 8.3 5.9 4.5 2.9 10.3 6.3 12.7 7.6 3.4 1.7 4.1 1.9 3 0.6-1.3-1.5-1.2-2 1.3-5.6 1.5-2.2 2.5-4.5 2.2-5-0.2-0.6 0-1 0.5-1 0.6 0 1.3-0.9 1.5-2 0.4-1.5 0.9-1.8 2-1 1.1 0.7 1.7 0.6 2-0.5 0.3-0.8 1.3-1.5 2.3-1.5 1 0-0.7-1.4-3.8-3.2-3-1.7-8.6-5.4-12.5-8.3-3.8-2.8-7.6-6-8.5-7-0.8-0.9-2.2-2.1-3-2.6-1.4-0.7-1.7 0.1-2.1 5.9zm175.1 4.3c-2.4 1.7-7.9 4.8-12.2 7-4.3 2.1-7.5 4.3-7.3 4.9 0.3 0.5-0.4 1.2-1.5 1.5-1.1 0.3-2.3 0.3-2.7 0.1-0.4-0.2-1.3 0.2-2 1-1.1 1.2-0.8 1.3 1.5 0.8 2-0.4 3.5 0.1 5.5 1.8 1.6 1.3 3 3.6 3.2 5.3 0.2 1.6 0.4 3.1 0.5 3.2 0 0.2 3.3-1.9 7.3-4.7 4-2.7 9.9-7.4 13.2-10.5 5.5-5 5.8-5.5 3.8-6-1.2-0.3-2.3-1-2.3-1.5 0-0.6 0.6-1.2 1.3-1.4 0.7-0.3 0.5-0.5-0.5-0.5-1.3-0.1-1.5-0.6-1-1.7 0.6-1.3 0.4-1.5-1.3-0.8-1.4 0.6-1.8 0.5-1.2-0.4 0.3-0.7 0.6-1.2 0.5-1.2-0.2 0-2.3 1.4-4.8 3.1zm-135.5 52.3c0 0.8 1.2 2 2.5 2.6 1.4 0.6 2.2 1.3 1.8 1.5-0.4 0.3-1.8-0.2-3-1-1.2-0.8-2.6-1.2-3.1-0.8-0.4 0.5-0.6 0-0.4-0.9 0.4-1.2 0-1.5-1.3-1.1-1 0.2-2 1.4-2.2 2.6-0.1 1.2 0 3.8 0.3 5.7 0.4 1.9 0.7 2.6 0.8 1.5 0.1-1.6 0.3-1.7 1-0.5 0.5 0.8 1.4 1.2 2 0.7 0.6-0.4 1.9 0.1 2.9 1.1 1 1 3.9 2.1 6.5 2.5 3.9 0.6 4.7 0.4 4.7-0.8 0-0.8 0.7-1.5 1.5-1.5 0.9 0 1.8 0.9 2 2 0.3 1.1 0.9 1.8 1.3 1.6 0.4-0.3 1.4-0.1 2.2 0.4 0.9 0.5 2.3 0.5 3.3-0.1 1.2-0.6 1.9-0.5 2.1 0.3 0.3 1 0.7 1 1.7 0 0.7-0.6 1.9-1.2 2.6-1.2 0.8 0 1.3 0.7 1.3 1.5 0 0.8 0.5 1.5 1 1.5 0.6 0 0.9-0.3 0.7-0.8-0.3-0.4 1.6-0.4 4.2 0 2.6 0.4 6.7 0.7 9.2 0.7 2.5 0.1 4.9-0.2 5.4-0.7 0.4-0.4 2.3-0.6 4.4-0.5 2 0.2 5-0.1 6.8-0.5l3.1-0.7-5.3-11.8c-6.9 1-11.5 1.3-14.7 1.3-3.5 0-5.6 0.4-5.3 1 0.3 0.5 1.1 0.7 1.8 0.3q1.2-0.8 0.5 0.5c-0.5 0.7-0.1 1.4 1 1.8 1 0.4 2.5 0.2 3.5-0.5 1.4-0.9 1.8-0.8 2.2 0.9 0.3 1.1 0.3 2.4 0 3-0.2 0.5 0.2 1.2 1 1.5 0.9 0.3 1.5 0.9 1.5 1.5 0 0.5-1.9 0.9-4.2 0.9-2.3-0.1-5-0.5-6-1-1.2-0.6-1.7-1.9-1.6-4.2 0.2-1.7-0.1-3.8-0.5-4.5-0.3-0.6-1.7-1.2-2.9-1.1-1.2 0.1-5.6-0.4-9.8-1-4.1-0.6-9.5-1.4-12-1.8-3.4-0.6-4.3-0.5-3.5 0.3 0.6 0.6 3.3 1.5 6 1.9 2.8 0.5 6.1 0.7 7.3 0.7 1.9-0.2 1.9-0.1 0.2 0.3-1.1 0.3-2 1.1-2 1.7q0 1.3-1-0.2-0.9-1.5-0.9-0.3c-0.1 0.7-1 1.3-2.1 1.3-1.1 0-3.1-0.6-4.5-1.3-1.4-0.6-2.5-1.5-2.5-2 0-0.4-1.3-0.9-3-1.2-1.6-0.3-3.2-1.2-3.5-2-0.2-0.8-1.1-1.3-2-1-0.8 0.3-1.5 0-1.5-0.5 0-0.6-0.3-1-0.8-1-0.5 0-0.8 0.6-0.7 1.4z"/>
		<path id="Path 23" class="s8" d="m106.8 97.4c-1.4 1.7-5 6.9-8 11.6-3.1 4.7-6.5 10.4-7.7 12.7-1.1 2.4-2 4.4-1.8 4.5 0.1 0.2 3.1 1.8 6.7 3.6 3.6 1.9 5.9 2.8 5.2 2-0.7-0.7-1.2-1.6-1.2-2.1 0-0.4 1.2 0.3 2.8 1.4 1.6 1.3 3.4 1.9 4.5 1.5 1-0.4 1.9 0 2.2 0.9 0.3 0.8 1.2 1.5 2 1.5 0.8 0 1.8-1 2.1-2.3 0.4-1.2 2.6-5.1 4.9-8.7 2.4-3.6 5.7-8.3 7.3-10.5 2.9-3.8 3-4.1 1.2-5-1.1-0.6-3.4-3.5-5.2-6.4-2.8-4.7-3.8-5.5-6.8-5.9-1.9-0.2-4-0.7-4.6-1.1-0.6-0.5-2.1 0.5-3.6 2.3zm87.2 12.5c-0.8 0.4-5.1 2.5-9.5 4.7-5.7 2.9-7.9 4.5-7.8 5.7 0.2 1.2-0.2 1.5-1.5 1.1-0.9-0.3-2.3-0.3-3 0-0.8 0.4-0.9 1-0.2 2.1 0.6 0.8 0.9 2.1 0.7 2.7-0.1 0.7-0.5 1.5-1 1.8-0.4 0.3-0.8 2.1-0.8 4-0.1 2-1.3 5.2-2.7 7.5-1.5 2.2-3.1 4.7-3.7 5.6-0.5 0.9-2.1 3.6-3.4 6-1.3 2.4-5.7 7.8-9.8 11.9-4.1 4.1-7.7 8.4-8 9.5-0.3 1.1-1.5 2.8-2.7 3.8-1.2 1-2.4 1.7-2.8 1.7-0.5 0-0.8 4.5-0.8 10 0 5.7 0.4 10.2 1 10.5 0.6 0.3 1.7-0.2 2.5-1 0.8-0.8 1.5-1.8 1.5-2.3 0-0.4 1.6-1.6 3.6-2.7 2-1.1 4.6-3.3 5.7-5 1.2-1.7 3.3-4.2 4.7-5.6 1.4-1.4 5.2-5.6 8.5-9.3 4.1-4.6 6.2-6.3 6.7-5.4 0.6 1 0.8 1 0.8 0 0-0.6 0.9-2.2 2-3.5 1.2-1.2 2.7-2.9 3.4-3.7 0.7-0.8 1.7-2.2 2.2-3 0.7-1.2 0.5-1.3-0.6-0.7-0.8 0.5-0.7 0.3 0.2-0.5 1-0.7 1.7-1.7 1.7-2.3 0-0.6 0.7-1.7 1.6-2.5 0.9-0.8 2.6-4.4 3.8-8 1.3-4.2 2.2-5.8 2.5-4.5 0.3 1.4 1.1 0.2 2.8-4 1.3-3.3 2.4-6.6 2.4-7.3 0-0.6 0.8-3.1 1.9-5.5 1-2.3 2.1-6.1 2.5-8.5 0.5-3.6 0.3-4.2-1.1-4.1-1 0-2.5 0.4-3.3 0.8zm-122 19.7c-0.7 0.8-2.8 1.4-4.7 1.4-1.8 0-3.3 0.4-3.3 1 0 0.6-1.3 0.7-3.4 0.2l-3.4-0.7c-4 14.7-6 23.3-6.9 28.5-1.1 6.2-1.7 15.2-1.7 26 0 11.6 0.5 19.8 1.8 27.5 1.1 6.1 2.7 12.9 3.8 15.2 1.6 3.9 2 4.2 3.8 3 2-1.2 2-1.2-0.5-1.5-2.1-0.2-2.4-0.6-1.9-2.5 0.4-1.2 0.9-2.4 1.1-2.7 0.3-0.3 1 0.3 1.6 1.2 0.7 1 2.4 2 4 2.3 2.1 0.4 2.6 0.2 2.2-1q-0.5-1.5-2.8-0.9c-1.9 0.5-2 0.4-0.5-0.5 1.3-0.8 1.8-2.4 1.8-5.6 0-2.9 0.4-4.5 1.2-4.5 1 0 1.1-2 0.1-9.8-0.7-5.3-1.2-13.8-1.3-18.7 0-4.9 0.7-14.4 1.5-21 0.8-6.6 2.9-16.9 4.6-23 1.7-6.1 3.5-11.8 4-12.8 0.5-0.9 0.8-1.9 0.6-2.1-0.2-0.2-1 0.2-1.7 1z"/>
		<path id="Path 24" class="s16" d="m269.7 205.3c-2 3.9-6 9.9-8.9 13.1-2.9 3.3-8 7.7-11.3 9.8-3.3 2.2-8.1 4.7-10.8 5.6-3.2 1.2-4.7 2.3-4.7 3.4 0 1-0.4 2-1 2.3-0.5 0.3-0.8-0.2-0.5-1 0.3-0.9-0.1-1.5-1-1.5-0.8 0-1.7 0.4-2 1-0.3 0.6 0 1 0.7 1 0.6 0 0.9 0.2 0.7 0.5-0.2 0.3-1.2 0.3-2.1 0-1.1-0.3-1.5-1-1-1.7 0.5-0.9 0.2-1-1-0.5-1 0.4-1.9 0.7-2 0.7-0.2 0 0 2.6 0.4 5.8 0.3 3.1 0.6 6.8 0.6 8.2 0.1 2.3 0 2.3-0.9 0.5-0.7-1.6-0.8-1.3-0.4 1.2 0.4 2.7 0.1 3.4-1.5 3.8-1.1 0.3-2 1.2-2 2 0 0.8 0.5 2.4 1 3.5q1 2 0 2c-0.5 0-0.8 0.4-0.5 1 0.3 0.6-0.3 1-1.2 1-1.1 0-1.9 0.9-2 2-0.3 1.8 0.1 2 5 1.4 2.8-0.3 8.8-1.5 13.2-2.6 4.4-1.1 11.4-3.4 15.5-5.1 4.1-1.7 11.3-5.7 16-8.8 4.7-3.1 11.2-8.5 14.4-12 3.2-3.5 7.3-8.4 8.9-10.9 1.7-2.5 4.8-8.2 6.9-12.8 2.1-4.5 3.8-8.9 3.8-9.7 0-1-4.2-2.9-13.7-6-7.6-2.5-14.1-4.5-14.4-4.5-0.4 0-2.3 3.3-4.2 7.2zm-197.1 186.8c-0.3 0.5-1.4 0.7-2.3 0.4-1-0.3-2.9-0.4-4.3-0.1-2 0.5-2.5 1.2-2.4 3.4 0.1 1.5 0.2 3 0.3 3.3 0 0.3 1.1 0.6 2.4 0.6 1.2 0.1 3.3 0.4 4.7 0.8 1.4 0.4 3.1 1.1 3.8 1.6 0.6 0.6 1.8 0.7 2.4 0.2 0.9-0.5 1-0.2 0.5 1-0.5 1.3-0.3 1.7 0.8 1.3 0.8-0.3 1.5-0.1 1.5 0.5 0 0.5 0.5 0.8 1 0.5 0.6-0.3 1.1 0.1 1.3 0.7 0.2 0.8 1.5 0.2 3.5-1.7 1.7-1.6 3.1-3.7 3.2-4.5 0-0.8-0.9-2.1-2-2.8-1.6-1-2-1-2 0 0.1 1-0.2 1-1.5 0-0.8-0.6-1.2-1.7-0.7-2.4q0.7-1.2-0.8-0.6c-0.8 0.3-1.4 1.1-1.2 1.7 0.1 0.6-0.6 0.9-1.8 0.6-1.1-0.3-2-1.2-1.9-2 0-0.8-0.9-1.9-2-2.5q-2-1-2.5 0z"/>
		<path id="Path 25" class="s17" d="m235.5 133.8c-0.5 1.5-0.7 1.5-1.4 0.2-0.7-1.2-1-1.2-1.5 0.5-0.4 1.2-0.1 2.3 0.6 2.7 0.8 0.5 1.8 0 2.6-1 0.7-0.9 1.2-2.3 1.2-3 0-0.6-0.2-1.2-0.4-1.2-0.2 0-0.7 0.8-1.1 1.7zm-63.2 78.7c-2.1 1.9-7.7 7.3-12.5 12l-8.8 8.6c5 7.1 7.5 10.1 8.8 11.3l2.2 2.2c2.7-3.7 6-7.7 9.1-11.4 3.1-3.6 7.6-8.5 10-10.9l4.4-4.4c-5.4-8.4-7.6-10.9-8.2-10.8-0.7 0-3 1.5-5 3.4zm-93 2.4c-0.3 0.9 0 3.7 0.6 6.2 1 3.7 0.9 4.8-0.3 6-1.3 1.3-1.3 2-0.1 5 0.7 1.9 1.6 4.3 1.9 5.2 0.6 1.7 0.9 1.7 5.4 0.3 2.6-0.8 7.6-1.5 11.2-1.5 3.6 0 8 0.4 9.8 1 1.7 0.5 3.4 0.8 3.7 0.5 0.3-0.3-0.5-2.9-1.7-5.8-2.1-5.1-2.2-5.1-3-2.5-0.4 1.6-1.1 2.8-1.5 2.8-0.5 0-0.8-0.6-0.8-1.4 0-0.8 0.4-1.1 1-0.8 0.5 0.4 0.6 0 0.3-0.8-0.3-0.8-0.1-2.3 0.3-3.3 0.6-1.1 0.5-2-0.3-2.5q-1.3-0.7-0.5 0.5c0.4 0.8 0 1.7-0.8 2.3-1.1 0.7-1.7 0.5-2.2-0.8-0.3-0.9-1.3-2.4-2.2-3.3-0.9-0.8-2.5-1.8-3.6-2.2-1.2-0.4-2.5-0.2-3.3 0.5-1.1 1.1-1.1 1.4 0 2q1.3 0.8-0.9 0.8c-1.9 0-2.3-0.5-2.1-2.8 0.1-2.3-0.4-3.1-2.5-4-1.5-0.7-3.2-1-3.7-0.7-0.5 0.3-1 0.1-1-0.4-0.1-0.5-0.8-1.2-1.6-1.5-0.9-0.3-1.7 0.1-2.1 1.2zm249.7 58.5c-1.4 0.7-4.7 2.8-7.3 4.7-2.6 1.9-5 4.2-5.3 5-0.5 1.2-0.2 1.3 1.2 0.6 1.5-0.6 1.8-0.5 1.2 0.8-0.6 1.1-0.3 1.6 1 1.7 0.9 0 1.1 0.2 0.5 0.5-0.7 0.2-1.3 0.8-1.3 1.4 0 0.5 0.7 1 1.5 1 0.9 0 1.2 0.5 0.8 1.2-0.4 0.8 0.2 0.7 1.7-0.3 1.4-0.9 4.9-4.4 7.8-7.8 2.8-3.3 5.2-6.6 5.2-7.1 0-0.6-0.3-0.9-0.7-0.9-0.5 0.1-1.6 0.1-2.5 0-1 0-1.6-0.6-1.3-1.1 0.2-0.6 0.3-1 0.2-0.9-0.1 0-1.3 0.6-2.7 1.2zm-237.2 8.8c0.1 0.5-0.2 0.7-0.8 0.4-0.5-0.3-1.4 0.2-2 1-0.5 0.8-2.5 1.7-4.4 2.1-1.9 0.3-3.8 1.2-4.1 2-0.4 1.1-2.6 1.4-9.2 1.3-4.9 0-10.7 0-13 0-2.5 0.1-4.1 0.5-3.8 1.1 0.3 0.5-0.2 1-1 1-0.8 0-1.7 0.6-1.9 1.2-0.3 0.7 0.6 3.7 2 6.5 1.3 2.9 4.8 7.7 7.7 10.6 2.8 3 7.1 6.3 9.5 7.5 2.3 1.2 7.1 2.9 10.7 3.7 4 0.9 8.5 1.3 11.8 0.9 2.8-0.3 7.8-1.4 11-2.5l5.7-1.9c8.1 5.9 13 9.2 16 11.2 3 2 10 5.9 15.5 8.6 5.5 2.8 13.9 6.4 18.8 8.1 4.8 1.7 9.2 3.1 9.7 3.1 0.6 0 1-1.2 0.9-2.8-0.1-1.5-0.1-3.7 0-5 0.1-1.4 0.9-2.4 2.4-2.7 1.8-0.5 2.1-0.2 1.4 1.2-0.5 1-0.5 1.5 0 1 0.4-0.4 1.8 0 3.1 0.8 1.2 0.8 2.5 1.3 3 1 0.4-0.2-0.5-1-2-1.7-1.5-0.7-2.5-1.6-2.3-2.1 0.3-0.4-0.1-1-0.7-1.4-0.7-0.4-1.7-0.8-2.3-0.8-0.5-0.1-1.9-0.5-3-0.9-1.1-0.5-5.8-2.4-10.5-4.3-4.7-1.9-11.9-5.3-16-7.5-4.1-2.3-11.1-6.7-15.5-9.9-4.4-3.1-12-9.5-17-14.2-4.9-4.6-10.3-10.3-12-12.5-1.7-2.3-4.1-4.2-5.4-4.5-1.3-0.2-2.4 0-2.3 0.4zm87.2 55.8c0.8 0.5 1.8 0.8 2.3 0.5 0.4-0.2 0.7 0 0.7 0.6 0 0.6 1.4 1.2 3 1.5 1.7 0.3 3 0.8 3 1.2 0 0.5 1.1 1.4 2.5 2 1.4 0.7 3.4 1.3 4.5 1.3 1.1 0 2-0.6 2-1.3q0-1.2 1 0.3 1 1.5 1 0.2c0-0.6 0.8-1.4 1.8-1.5 1.3-0.3 1.2-0.4-0.3-0.4-1.1 0-4.5-0.4-7.5-0.9-3-0.4-6.1-1.4-6.7-2.1-0.7-0.7-1.5-1.1-1.8-0.8-0.3 0.3-1.1 0.2-1.7-0.2-0.7-0.4-2.2-0.9-3.3-1-1.6-0.2-1.7-0.1-0.5 0.6zm36.5 5.1c0.5 0.8 0.8 3 0.7 4.7-0.1 2.3 0.3 3.6 1.6 4.2 0.9 0.5 3.3 0.9 5.2 0.9 1.9-0.1 4.1 0.2 4.8 0.6 0.7 0.3 1 0.1 0.7-0.7-0.2-0.6-1.1-1.5-2-2-0.8-0.4-1.3-1.1-1-1.7 0.3-0.6 0.3-1.9 0-3-0.4-1.7-0.8-1.8-2.2-0.9-1 0.7-2.6 0.9-3.5 0.5-1.1-0.3-1.5-1.1-1.1-1.9 0.3-0.6 0.2-0.9-0.3-0.5-0.5 0.5-1.5 0.2-2.3-0.5-1.2-1-1.3-0.9-0.6 0.3z"/>
		<path id="Path 26" class="s18" d="m110.5 32c-1.7 0.5-5.2 2.4-8 4.2-3.3 2.2-6.1 5.2-8.2 8.8-2.1 3.6-3.5 7.4-3.9 11-0.3 3-0.1 7.4 0.5 9.8 0.6 2.3 1.1 4.8 1.1 5.4 0 0.7-3.7 6.1-8.2 12-4.6 5.9-10.4 14.4-13 19-2.6 4.6-6.6 12.5-8.8 17.5-2.2 5.1-4 10-4 10.8 0 0.9 1.1 1.6 3 1.7 1.6 0.2 3 0 3-0.5 0-0.4 1.5-0.7 3.2-0.7 1.8 0 3.8-0.4 4.4-0.8 0.6-0.4 4.1-6.5 7.8-13.7 3.7-7.2 9.9-17.3 13.8-22.5 3.9-5.2 11-13.4 15.7-18.1 4.7-4.7 12.4-11.4 17.1-14.9 4.7-3.4 10.6-7.4 13.2-8.9 2.6-1.4 4.8-3.2 4.8-3.9 0-0.6-1-2.7-2.3-4.6-1.2-1.9-4.2-4.9-6.7-6.7-2.5-1.8-6.5-3.9-9-4.6-2.5-0.7-6.3-1.3-8.5-1.2-2.2 0-5.3 0.5-7 0.9zm94 13c-4.9 0.4-13.1 1.7-18 2.8-4.9 1.2-12.2 3.2-16 4.6-6.5 2.3-7.1 2.3-8.7 0.8-1.7-1.6-2.1-1.6-6.3 0.5l-4.5 2.3c1.1 13.2 0.8 15.6-0.9 20.3-1.6 4.4-3.3 6.7-7.4 10.2-2.9 2.5-7.4 5.1-10.2 6-2.8 0.8-6.2 1.5-7.8 1.5-1.5 0-5.1-0.5-8-1.1-3.7-0.7-5.5-0.7-6.2 0q-1 1.1 0 2c0.5 0.5 2.6 1.1 4.5 1.3 3 0.4 3.9 1.2 6.8 5.9 1.8 2.9 4.1 5.9 5.2 6.4 1.7 0.9 3.2-0.2 10.8-7.6 4.8-4.8 12.1-10.8 16.2-13.5 4.1-2.6 11.1-6.5 15.5-8.5 4.4-2.1 10.7-4.6 14-5.7 3.3-1.1 10.7-2.8 16.5-3.7 8.2-1.4 13.5-1.7 24.5-1.2 8 0.4 17.4 1.4 22 2.5 4.4 1.1 11.1 3.2 15 4.7 3.9 1.5 9.2 3.9 12 5.3 2.7 1.4 8.1 4.6 12 7.1 3.8 2.5 11.3 8.9 16.6 14.1 5.3 5.2 11.6 12.4 14.2 16 2.5 3.6 6.6 10.6 9.1 15.5 2.6 4.9 5.7 12.6 7 17 1.4 4.4 3.1 10.8 3.8 14.2q1.3 6.3 0.3 7.4c-0.7 0.8-3.9 0-11-2.5-5.5-2-10.1-3.5-10.3-3.3-0.1 0.1 8.8 13.3 19.8 29.2 11.1 15.9 20.6 29 21.2 29 0.7 0 8.3-14.3 17-31.8 8.7-17.4 15.7-31.9 15.5-32.1-0.1-0.2-5 2.3-11 5.5-5.9 3.3-11 5.7-11.5 5.5-0.4-0.2-1.1-3-1.5-6.2-0.5-3.3-2.2-10.8-3.7-16.9-1.6-6.1-4.2-14.2-5.8-18-1.6-3.8-3.6-8.7-4.5-10.8l-1.7-3.7c-10.9 1.2-13.7 0.9-17-0.3-2.6-0.9-6-3.2-7.9-5.4-1.9-2.1-4.1-5.4-4.9-7.3-1-2.5-1.3-5.4-0.8-10.2l0.6-6.8c-12-10.2-18.4-15-22-17.4-3.6-2.3-9.4-5.8-13-7.8-3.6-2-10.1-5-14.5-6.8-4.4-1.7-12.5-4.3-18-5.6-5.5-1.3-15.4-2.8-22-3.4-6.6-0.5-12.9-0.9-14-0.8-1.1 0-6.1 0.4-11 0.8z"/>
		<path id="Path 27" class="s9" d="m203 107.3c-4.4 1.2-4.5 1.3-4.8 5.7-0.2 2.5-1.2 6.4-2.3 8.8-1 2.3-1.9 4.8-1.9 5.5 0 0.6-1.1 3.9-2.4 7.2-1.7 4.2-2.5 5.4-2.8 4-0.3-1.3-1.2 0.3-2.5 4.5-1.2 3.6-2.9 7.2-3.8 8-0.9 0.8-1.6 2.1-1.5 2.8 0 0.6-0.7 1.4-1.5 1.7q-1.5 0.5-0.8 2.3c0.6 1.3 0.4 1.5-0.7 0.8-0.8-0.5-1.2-0.6-0.8-0.3 0.5 0.4 0.2 1.4-0.5 2.3-0.6 0.8-2 2.4-3 3.5-0.9 1-1.7 2.5-1.7 3.2 0 0.9-0.2 0.9-0.8-0.1-0.5-0.9-2.6 0.8-6.7 5.4-3.3 3.7-7.1 7.9-8.5 9.3-1.4 1.4-3.5 4-4.5 5.7-1.1 1.6-3.7 3.9-5.8 5-2 1-3.7 2.2-3.7 2.7 0 0.4-0.9 1.5-2.1 2.5-1.9 1.6-1.9 2-0.7 7.7 0.7 3.3 2.1 6.9 3.1 8 0.9 1.1 1.7 1.6 1.6 1-0.1-0.6-0.1-1.6 0-2.2 0-0.7 2.1-2.4 4.6-3.8q4.5-2.5 4.5-4.5c0-1.1 1-2.7 2.2-3.5 1.3-0.8 2.6-1.2 3-1 0.5 0.3 1.6-1 2.7-2.7 1-1.8 2.5-3.6 3.2-4.1 0.8-0.4 2.7-1.5 4.4-2.5 2.7-1.7 3.1-2.4 3.6-8.8 0.3-3.8 1.2-8.7 1.9-10.9 0.7-2.2 2.7-6.5 4.5-9.5 1.8-3 5.7-7.7 8.6-10.4 3-2.7 7.9-6.3 10.9-8 3-1.7 5.8-3 6.2-2.8 0.5 0.1 0.8-0.2 0.8-0.8 0-0.6 0.7-0.8 1.5-0.5 0.8 0.3 1.7 0.2 1.9-0.2 0.2-0.5 1.1-4.4 2-8.8 0.9-4.4 2.1-9.8 2.8-12 0.6-2.2 1.5-4.5 2-5 0.5-0.5 0.8-1.8 0.8-2.7 0-1-0.4-1.8-1-1.8-0.6 0-0.8-0.5-0.5-1 0.3-0.6-1.1-1-3.3-0.9-2 0-5.7 0.6-8.2 1.2zm-118.2 29.5c-2 5.3-4.3 12.7-5.2 16.5-0.9 3.8-1.2 6.5-0.6 6.2 0.5-0.3 1-0.1 1 0.5 0 0.6 0.8 0.7 1.8 0.4 0.9-0.4 3.2 0 5 0.7 1.7 0.8 3.2 2 3.2 2.7 0 0.6 1.1 1.2 2.5 1.2 1.4 0 2.5 0.4 2.5 1 0 0.6 1 0.9 2.3 0.8 1.2-0.1 2.8 0.1 3.5 0.5 0.8 0.5 1.5-0.8 2.3-4.5 0.6-2.9 1.9-8 2.9-11.3 1-3.3 2.8-8.1 3.9-10.7 2-4.6 2-4.9 0.4-6.6-1-1-2.5-1.6-3.3-1.4-0.8 0.2-2.7-0.5-4.2-1.7-1.6-1.2-2.8-1.8-2.8-1.3 0 0.4 0.5 1.3 1.2 2.1 0.7 0.7-1.2-0.1-4.2-1.8-3-1.7-6.2-3.1-7.1-3.1-1.1 0-2.7 2.9-5.1 9.8zm-21.8 83.7c0 3.2-0.5 4.8-1.7 5.6-1.6 0.9-1.5 1 0.5 0.5q2.2-0.6 2.7 0.9c0.4 1.2-0.1 1.4-2.2 1-1.6-0.3-3.1-1.2-3.5-2-0.5-0.8-1.1-1.5-1.5-1.5-0.5 0-1.3 1.2-1.9 2.7-0.7 1.6-1 3.8-0.8 5 0.2 1.3 0.7 2.3 1.2 2.3 0.4 0 3.4-1.4 6.8-3.2l6.1-3.3c-2.3-10.5-3.2-12.5-4.2-12.5-1.1 0-1.5 1.2-1.5 4.5z"/>
		<path id="Path 28" class="s10" d="m221.6 108.7c-1 2.1-3 7.6-4.3 12.3-1.3 4.7-2.5 9.6-2.7 11-0.1 1.4-0.5 2.9-0.8 3.5-0.4 0.6 2.8 1 8.8 1 8.6 0 9.5-0.2 10-2 0.5-1.7 0.7-1.7 1.4-0.5 0.6 1.2 1.1 0.9 2.3-1.5 0.8-1.7 2.7-7.1 4.1-12 1.5-5 2.6-9.9 2.4-11-0.2-1.3-1.4-2.1-3.8-2.6-1.9-0.4-6.2-1-9.5-1.4l-6.1-0.6zm-142.5 65c-0.9 0.3-1.9 1.1-2.3 1.7-0.4 0.6-0.7 5.8-0.7 11.6 0 5.8 0.5 14.4 1.2 19.2 1 6.6 1.5 8.5 2.5 7.7q1.3-0.9 2.8 0.6c0.8 0.8 1.6 1.3 1.7 1 0.1-0.3 1.5 0 3 0.7 2.1 1 2.8 2 2.8 4 0 2.2 0.4 2.8 2.2 2.8q2.2 0 1-0.8c-1.1-0.6-1.1-0.9 0-2 0.7-0.7 2.1-0.9 3.3-0.5 1.1 0.4 2.7 1.4 3.5 2.2 0.9 0.9 1.9 2.4 2.3 3.3 0.4 1.2 1.1 1.5 1.9 0.9 0.9-0.7 1.3-0.3 1.3 1.4 0 1.3-0.3 2.2-0.5 2-0.3-0.2-0.5 0.3-0.5 1.1 0 0.8 0.3 1.4 0.7 1.4 0.4 0 1.2-1.2 1.7-2.8 0.7-2.1 0.5-3.1-0.8-4.6-0.9-1-1.1-1.6-0.4-1.2 0.7 0.3 1.3 0.1 1.3-0.4 0-0.6-0.5-1-1-1-0.6 0-0.8-0.5-0.5-1 0.2-0.6 0.1-2-0.4-3.3-0.5-1.2-1.6-6.5-2.5-11.7-0.9-5.2-1.7-12.5-1.9-16.2-0.1-3.6-0.6-6.4-1-6.2-0.4 0.2-0.7-0.3-0.7-1.1 0-0.8-0.5-1.4-1.1-1.4-0.5 0.1-2.5-0.1-4.5-0.5-2.1-0.4-3.4-1.2-3.4-2.1 0-0.8-0.7-1.5-1.5-1.5-0.9 0-1.9-0.6-2.3-1.4-0.4-0.8-1.9-1.7-3.2-2-1.4-0.3-3.2-0.2-4 0.1zm79.2 32.1c-5.4 5.4-10.8 10.2-12 10.5-1.2 0.4-2.2 1.5-2.2 2.4 0 1 1.6 4.5 3.6 7.8l3.6 6c18-17.5 24.3-22.8 25.5-23 2.1-0.5 2.1-0.7 0.9-2.8-0.7-1.2-1.9-3.9-2.5-6-0.8-2.6-1.6-3.6-2.6-3.2-0.9 0.3-1.5 0-1.5-0.5 0-0.6-0.7-1-1.6-1-0.8 0-5.9 4.4-11.2 9.8zm-88 40.1c-1.9 0.9-3 1.9-2.5 2.4 0.4 0.4-0.3 0.7-1.5 0.7-1.2 0-2.2 0.4-2.2 1 0 0.5-0.5 0.8-1 0.5-0.6-0.3-2.5 1.4-4.4 3.7-1.8 2.4-4.3 6.3-5.4 8.8-1.2 2.5-2.7 7.2-3.3 10.5-0.6 3.3-0.9 8.5-0.5 11.5 0.4 3 1.1 6.2 1.6 7q0.9 1.5 0.9 0.2c0-0.6 0.7-1.2 1.6-1.2 0.8 0 1.2-0.5 1-1-0.3-0.6 1.2-1 3.7-1.1 2.3 0 8.2 0 13 0 6.2 0.1 8.9-0.3 9.2-1.2 0.3-0.6 2-1.5 3.8-1.9 1.8-0.4 3.8-1.4 4.5-2.3 0.7-0.8 1.7-1.3 2.3-1 0.5 0.3 1 0 1-0.5 0-0.6 0.9-0.7 2.2-0.3 2 0.6 1.7 0-1.8-4.7-2.2-3-5.7-8.2-7.7-11.5-2-3.3-5-9-6.7-12.8-1.7-3.7-3.5-6.7-4-6.7-0.6 0-0.8-0.5-0.6-1 0.3-0.6 0.4-1 0.3-0.9-0.1 0.1-1.7 0.8-3.5 1.8zm268 20.4c-1.3 0.6-2.1 1.4-1.9 1.7 0.3 0.3-0.4 0.6-1.5 0.7-1.1 0.1-3.1 1.2-4.4 2.5-2.1 2-2.2 2.4-0.7 2.4 1 0.1 3 0.4 4.5 0.8 2.4 0.5 3.1 0.1 5.3-3.4 1.3-2.2 1.9-3.7 1.2-3.3-0.8 0.6-1 0.3-0.6-1 0.3-0.9 0.5-1.7 0.5-1.7-0.1 0-1.2 0.6-2.4 1.3z"/>
		<path id="Path 29" class="s11" d="m177.4 497c0 5.8 0.1 8 0.3 5 0.2-3 0.2-7.8 0-10.5-0.2-2.8-0.3-0.3-0.3 5.5z"/>
		<path id="Path 30" class="s3" d="m249.3 405.4c-0.4 0.7-0.5 3.5-0.3 6.2l0.5 4.9h20.5l-20-0.5v-11l20.5-0.6c-18.2-0.4-20.7-0.1-21.2 1zm-59.8 17.3c2.7 0.2 6.8 0.2 9 0 2.2-0.2-0.1-0.3-5-0.3-5 0-6.8 0.1-4 0.3zm-52.5 7.1c0 0.9-2.7 1.3-9.8 1.4l-9.7 0.2c14.8 0.5 19.2 0.3 19.9-0.3 0.6-0.6 0.7-1.4 0.3-1.8-0.4-0.5-0.7-0.2-0.7 0.5zm112.3 0.6c-0.3 0.7-0.4 4-0.1 7.2l0.4 5.9c0.4-12.3 0.7-13.6 2.1-13.9 1.7-0.3 1.7-0.4 0-0.5-1 0-2 0.5-2.4 1.3zm-160 52c-0.4 0.7-0.5 3.5-0.3 6.1 0.3 2.7 0.9 4.9 1.5 5 0.5 0.1 0.7 0 0.2-0.2-0.4-0.2-0.7-2.8-0.7-5.8 0-3.5 0.5-5.7 1.2-5.9 1-0.4 1-0.5 0-0.5-0.7-0.1-1.6 0.5-1.9 1.3z"/>
		<path id="Path 31" class="s4" d="m184.4 405.3c-0.3 0.8-0.3 4.9-0.1 9.3l0.3 7.9 0.4-17.5 18.5-0.6c-16.2-0.3-18.7-0.1-19.1 0.9zm70.1 38.4c2.8 0.2 7.5 0.2 10.5 0 3-0.2 0.8-0.3-5-0.3-5.8 0-8.2 0.1-5.5 0.3z"/>
		<path id="Path 32" class="s5" d="m176.4 494c0 6.3 0.1 8.8 0.3 5.5 0.2-3.3 0.2-8.5 0-11.5-0.2-3-0.3-0.3-0.3 6z"/>
		<path id="Path 33" class="s7" d="m225.2 263.1c0.2 2.8 0.6 5.3 1.1 5.5 0.4 0.2 0.4-0.4 0-1.4-0.6-1.3-0.4-1.5 0.7-0.8 1.3 0.9 1.3 0.7 0-0.8-1-1.1-1.3-2.8-0.9-4.7 0.3-1.6 0.2-2.9-0.3-2.9-0.5 0-0.7 2.3-0.6 5.1zm-150.8 135.6c-0.2 0.7-0.2 1.7 0.1 2.3q0.5 1 3 0c1.4-0.6 2.5-0.8 2.5-0.5 0 0.3 0.1 1 0.3 1.6 0.1 0.6 1.3 1.9 2.6 2.8 2 1.4 2.3 1.4 2 0.1-0.2-0.8 0.1-1.4 0.6-1.3 0.6 0.1 1-1.1 1-2.5 0-1.5-0.6-2.8-1.2-3-0.7-0.1-1.6-0.3-2-0.3-0.5-0.1-2.5-0.2-4.7-0.3-2.3 0-4 0.4-4.2 1.1z"/>
		<path id="Path 34" class="s15" d="m160.4 334.6c0.2 0.5-0.2 1.5-1 2.1-0.8 0.7-1.7 1-2.1 0.5-0.3-0.4-0.3 0.1 0 1 0.4 1 0.7 2 0.7 2.3 0 0.3 0.4 0.5 1 0.5 0.6 0 0.9-0.8 0.7-1.8-0.1-0.9 0.4-1.6 1-1.5 0.7 0.2 1.3-0.3 1.4-1.1 0.1-0.8-0.4-1.8-1-2.2-0.6-0.4-0.9-0.3-0.7 0.2z"/>
		<path id="Path 35" class="s16" d="m219.1 475.3c-0.6 0.6-0.8 1.6-0.3 2 0.4 0.4 1.5 0.7 2.5 0.7 1 0 1.7-0.8 1.7-2 0-1.1-0.6-2-1.4-2-0.8 0-1.9 0.6-2.5 1.2zm0.6 28.5c0.2 5.8 0.7 8.3 1.6 8.3 0.9 0 1.2-2.1 1.1-7.8-0.1-4.2-0.3-8-0.5-8.3-0.1-0.3-0.8-0.6-1.4-0.6-0.8 0-1.1 2.5-0.8 8.4z"/>
		<path id="Path 36" class="s18" d="m167.9 125.2c-2.4 1.8-6.6 5.5-9.3 8.3-2.7 2.7-6.7 7.7-8.9 11-2.2 3.3-5.1 8.2-6.3 11-1.2 2.7-2.9 7.7-3.7 11-0.8 3.3-1.8 7.2-2.1 8.7-0.3 1.6-0.3 2.8 0.1 2.8 0.5 0 1.7-0.7 2.9-1.7 1.2-1 2.4-2.7 2.7-3.8 0.3-1.1 3.9-5.4 8-9.5 4.1-4.1 8.5-9.5 9.8-11.9 1.3-2.4 2.9-5.1 3.4-6 0.6-0.9 2.2-3.4 3.7-5.6 1.4-2.3 2.6-5.5 2.7-7.5 0-1.9 0.4-3.7 0.9-4 0.5-0.3 0.9-1.5 0.8-2.6-0.1-1.3 0.4-2 1.1-1.8 0.7 0.2 1.3-0.1 1.3-0.6 0-0.5-0.6-1-1.3-1-0.8 0-3.3 1.4-5.8 3.2z"/>
	</g>
</svg>