<svg version="1.2" xmlns="http://www.w3.org/2000/svg" viewBox="0 0 1800 1801" width="1800" height="1801">
	<title>digisakaweb</title>
	<style>
		.s0 { fill: #00853f } 
		.s1 { fill: #fdb913 } 
	</style>
	<g id="Background">
		<path id="Path 0" class="s0" d="m1575 1550.5v96.5l12-0.5c0-123.6 0-166.9 0-176v-16.5h-12z"/>
		<path id="Path 1" fill-rule="evenodd" class="s1" d="m583.7 1444c0.2 0 1.2 0.5 2.3 1 1.1 0.5 2 1.9 2 3 0 1.1-2 6.4-8.9 21.5l22.5 74c15.6 51 22.7 75.6 22.8 79.1 0.1 3.9-0.4 5.7-1.9 7.4-1.1 1.2-8.4 6.9-16.3 12.6-7.8 5.7-14.5 10.4-15 10.4-0.4 0-4.3-12.2-16.7-54.1l-2.8 2c-2.4 1.9-4.1 2.1-32.7 2.1l-3.7 11.3c-3.2 9.5-4.4 11.9-8.3 16-3.9 4.2-6.9 5.9-24.5 13.6-11 4.8-20.3 8.5-20.7 8.2-0.4-0.3 11.3-41 52.7-180.3l19-11c10.4-6.1 21.4-12.3 24.4-13.9 3-1.6 5.6-2.9 5.8-2.9zm-31.3 117.3c-0.3 1.5 0.4 1.7 5.1 1.7 3.7 0 5.5-0.4 5.5-1.2 0-0.7-1.1-5-2.4-9.5-1.3-4.6-2.6-8.3-2.8-8.3-0.3 0-1.5 3.5-2.8 7.8-1.2 4.2-2.4 8.5-2.6 9.5zm-300.2-116.2c1-0.1 2.5 0.7 3.4 1.7 1.2 1.3 1.5 2.6 0.9 5.7-0.4 2.2-0.9 37.9-1.5 154.5h69l5-2.5c2.7-1.4 6.3-2.5 8-2.5 2.1 0 3.3 0.7 4.1 2.3 0.6 1.2 0.9 3 0.5 4-0.3 0.9-9.7 10.2-41.1 39.7h-88.5v-79.7c0.1-73.4 0.2-80.1 1.8-83.6 0.9-2.1 8.7-11.3 17.2-20.6 8.5-9.3 16.4-17.3 17.5-17.9 1.1-0.6 2.8-1.1 3.7-1.1z"/>
		<path id="Path 2" fill-rule="evenodd" class="s0" d="m1265 1450.1c5.2 0 12.9 0.4 17 0.9 4.1 0.6 11.1 1.9 15.5 3.1 4.4 1.1 11.6 3.8 16 6 4.4 2.1 11.2 6.3 15 9.2 3.8 2.9 9.4 8.2 12.2 11.8 2.9 3.5 7 10 9.2 14.4 2.2 4.4 4.6 10.6 7.1 19.5h-13l-1.1-4.2c-0.6-2.4-2.6-7.5-4.5-11.3-1.8-3.8-5.7-9.7-8.6-12.9-2.9-3.2-8-7.8-11.3-10.2-3.3-2.3-9-5.6-12.7-7.3-3.8-1.7-10.5-4-15-5.1-4.6-1.2-13.3-2.4-19.3-2.7-6.8-0.4-14.3-0.1-19.5 0.7-4.7 0.6-12.1 2.4-16.5 3.9-4.4 1.4-11.4 4.6-15.5 7.1-4.1 2.4-10.8 7.6-14.9 11.5-4 3.8-9.3 9.7-11.6 13-2.4 3.3-5.6 8.7-7.3 12-1.6 3.3-3.9 8.9-5 12.5-1.1 3.6-2.5 10.6-3.2 15.5-0.8 5.7-1 12.9-0.6 19.5 0.3 5.8 1.5 14.3 2.6 19 1.1 4.7 4.4 13.2 7.2 19 4.6 9.4 6.1 11.5 15.2 20.6 8.3 8.2 11.7 10.8 19.1 14.6 5 2.6 12.4 5.6 16.5 6.7 4.1 1.1 11.8 2.5 17 3.1 5.2 0.6 13.1 0.8 17.5 0.5 4.4-0.4 11.8-1.5 16.5-2.6 4.7-1.1 12.1-3.7 16.5-5.9 4.4-2.1 10.6-6 13.8-8.7 3.1-2.6 7.8-7.3 10.3-10.3 2.5-3 6.5-9.5 9-14.5 2.4-4.9 5.3-12.4 6.3-16.5 1-4.1 2.1-10.3 3.1-20h-77v-11h90v96h-11v-21.5c0-11.8-0.3-21.5-0.8-21.5-0.4-0.1-2.5 3-4.7 6.7-2.2 3.7-6.7 9.6-10 13.1-3.3 3.6-8.7 8.4-12 10.7-3.3 2.4-8.8 5.7-12.3 7.4-3.4 1.7-9.9 4.2-14.4 5.5-4.6 1.3-13 2.9-18.8 3.5-7.5 0.8-13.8 0.9-22 0.1-6.3-0.6-15.8-2.2-21-3.6-5.2-1.4-13.1-4.3-17.5-6.5-4.4-2.2-11.1-6.4-14.9-9.2-3.8-2.9-9.2-7.7-11.9-10.7-2.7-3-6.8-8.2-9-11.5-2.3-3.3-5.5-9.2-7.3-13-1.8-3.8-4.2-10.6-5.3-15-1.1-4.4-2.5-12.7-3.1-18.5-0.7-5.8-0.9-14.5-0.5-19.5 0.4-4.9 1.5-12.8 2.5-17.5 1-4.7 3.3-12.1 5.1-16.5 1.8-4.4 5.9-11.8 9-16.5 3.1-4.7 8.8-11.4 12.5-15 3.8-3.6 9.8-8.5 13.4-11 3.6-2.4 9.7-5.8 13.5-7.6 3.8-1.8 9.7-4 13-5 3.3-0.9 9.6-2.3 14-3 4.4-0.6 12.3-1.2 17.5-1.3zm-1015.7 3.9c0.1 0 0.1 35.8-0.3 159l80-0.5-2.8 2.7c-1.5 1.5-8.3 7.9-27.7 25.8h-80.5v-75c0-61.2 0.3-75.6 1.4-78.2 0.7-1.8 7.7-10.2 15.5-18.5 7.8-8.4 14.3-15.3 14.4-15.3zm329 0c0.4 0 0.7 0.1 0.7 0.3 0 0.1-1.5 3.6-3.4 7.7-1.9 4.1-3.3 7.7-3.1 8 0.1 0.3 10.5 34.3 23 75.5 12.6 41.3 22.9 76.2 22.9 77.7 0.1 1.4-0.1 2.8-0.4 3.1-0.3 0.2-5.6 4.1-11.7 8.6-6.2 4.4-11.5 8-11.8 7.9-0.3-0.2-4.1-12.5-8.6-27.3-4.5-14.8-8.3-27.2-8.5-27.5-0.3-0.3-2.6 1.6-9.9 9h-33l-4.2 12.7c-3.2 9.8-5 13.6-7.5 16.3-2.4 2.4-7.6 5.3-17.3 9.6-7.7 3.4-14.1 6.1-14.3 6-0.2 0 10.5-37 23.8-82.1 13.3-45.1 24.7-82.6 25.4-83.2 0.6-0.7 9.2-6 19.1-11.7 9.9-5.8 18.3-10.5 18.8-10.6zm-25.9 107.3c-0.3 1.5 0.4 1.7 5.1 1.7 3.7 0 5.5-0.4 5.5-1.2 0-0.7-1.1-5-2.4-9.5-1.3-4.6-2.6-8.3-2.8-8.3-0.3 0-1.5 3.5-2.8 7.8-1.2 4.2-2.4 8.5-2.6 9.5zm517.9-107.3h6.6c4.2-0.1 7 0.4 7.7 1.2 0.6 0.7 20.3 43.6 43.9 95.3 23.5 51.7 42.9 94.6 43.1 95.3 0.3 0.9-1.4 1.1-14.1 0.7l-28-61.5-104-0.1-28.1 61.6-7.2 0.3c-5.4 0.1-7.1-0.1-6.8-1 0.2-0.7 19.8-44.2 43.6-96.5zm-17.7 70l-22.3 49.5c37.4 0.4 58.6 0.4 71.3 0.2l23.1-0.2c-35.8-79.3-46.4-102.7-46.8-103.1-0.3-0.4-1.1 0.4-1.7 1.7-0.7 1.3-11.3 24.6-23.6 51.9zm386.3-70c27.8 0 54.7 0.4 59.6 0.9 5 0.6 11.7 1.7 15 2.6 3.3 0.9 8.3 2.6 11 3.9 2.8 1.3 7.5 4.6 10.5 7.3 3 2.7 6.7 6.9 8.2 9.3 1.4 2.5 3.3 6.9 4.2 10 0.9 3 1.9 8.8 2.2 13 0.4 4.9 0.1 9.9-0.9 14.5-0.8 3.8-2.6 9.2-3.9 12-1.4 2.7-4.7 7.4-7.4 10.4-2.7 3-7.1 6.8-9.9 8.6-2.7 1.8-7.3 4-15.4 7l7.2 2c4 1.1 9.3 3.5 12 5.2 2.6 1.8 6.1 5.3 7.7 7.8 1.7 2.4 3.9 7.9 5 12.2 1.5 5.9 2.2 13.2 2.9 31.3 0.7 18.5 1.3 24.7 4.6 34.9h-6.2c-6.2 0-6.3 0-7.3-3.2-0.5-1.8-1.4-5.7-2-8.7-0.6-3.1-1.5-15.2-1.9-27-0.6-15.4-1.3-22.8-2.5-26-0.8-2.5-3.2-6.5-5.3-8.9-2.1-2.5-6.3-5.7-9.3-7.2-3-1.5-9-3.5-13.2-4.3-6.5-1.4-15.7-1.6-103.8-1.6v87h-13l-0.2-95.9c0-52.7 0.3-96.1 0.7-96.5 0.5-0.3 23.6-0.6 51.4-0.6zm-38.9 94c84.8 0 95.5-0.3 101.8-1.6 4.2-0.8 10.4-2.7 13.7-4.3 3.3-1.6 8-4.8 10.4-7.2 2.4-2.5 5.5-6.7 6.7-9.4 1.3-2.8 2.9-7.7 3.5-11 0.6-3.3 0.9-9.4 0.7-13.5q-0.5-7.6-3-13c-1.3-3.1-3.8-7.1-5.5-9-1.6-2-5.7-5-8.9-6.7-3.2-1.8-8.6-4-11.9-4.9-5.3-1.6-12.2-1.8-56.7-2.2l-50.6-0.4z"/>
		<path id="Path 3" fill-rule="evenodd" class="s1" d="m1175.2 148.8c0.5 0.4-8.7 29.9-41.7 130.7l-0.5 401.5c-0.5 384.7-0.6 401.8-2.4 407.5-1 3.3-3.5 9.4-5.6 13.5-2.2 4.1-5.8 9.7-8.2 12.5-2.4 2.7-28.2 30.6-57.3 62-29.2 31.3-53.5 57.7-54 58.5-0.5 0.8 1.6-0.6 4.6-3.1 3-2.5 22.5-18.7 43.4-36 20.9-17.3 43.6-36.1 50.5-41.8 6.9-5.6 15.1-11.6 18.2-13.2 3.2-1.6 8.7-3.6 12.3-4.4 5.6-1.3 25.7-1.5 152.5-1.3 96.3 0.2 146.1 0.6 146.2 1.3 0.2 0.5-57.8 37.8-128.7 82.7-71 45-132.8 83.8-137.5 86.2-4.7 2.4-12.8 5.7-18 7.4-5.2 1.7-13.1 3.6-17.5 4.2-5.7 0.9-16.3 1-37.5 0.5-19-0.4-35.5-0.3-46.5 0.5-9.3 0.6-23.8 2-32 3.1-8.3 1.1-20.4 3.1-27 4.4-6.6 1.3-25.1 5.5-41 9.4-16 3.8-33.2 8-47.5 11.6l-9.3-2.3c-5-1.3-22.3-5.5-38.2-9.3-16-3.9-34.4-8.1-41-9.4-6.6-1.3-18.8-3.3-27-4.4-8.3-1.1-22.7-2.5-32-3.1-11-0.8-27.5-0.9-46.5-0.5-21.1 0.5-31.8 0.4-37.5-0.5-4.4-0.6-12.7-2.7-18.5-4.6-5.8-1.9-14.4-5.5-19.2-8.2-4.9-2.6-66.4-41.2-136.7-85.7-70.4-44.5-127.9-81.5-127.7-82 0.2-0.7 50.1-1.1 146.4-1.3 127-0.2 147.1 0 152.7 1.3 3.6 0.8 9.1 2.8 12.2 4.4 3.6 1.8 24.4 18.3 54 42.8 26.4 21.9 51.6 42.7 55.9 46.3 4.3 3.6 7.4 5.8 6.9 5-0.5-0.8-24.8-27.2-54-58.5-29.1-31.4-55-59.3-57.3-62-2.4-2.8-6.3-9-8.8-14-2.5-5.3-5-12.2-5.9-16.8-1.3-6.7-1.5-31.7-1.5-394.2l-21.5-66.5c-11.8-36.6-21.2-66.8-20.8-67.2 0.5-0.5 52.1 54.6 114.8 122.3 62.7 67.7 116.2 125.9 118.9 129.2 2.6 3.4 6.3 9.1 8.1 12.7 1.8 3.6 4.2 9.4 5.3 13 1.2 3.6 2.6 9.6 3.2 13.5 0.6 4.4 1 57.5 1 276l11.7 25.3c6.5 13.9 12 25.3 12.3 25.3 0.3 0 5.8-11.4 24-50.6v-338c0-219.3 0.4-340.5 1-345 0.6-3.9 2-9.9 3.2-13.5 1.1-3.6 3.5-9.4 5.3-13 1.8-3.6 5.7-9.5 8.6-13.2 3-3.7 56.5-61.9 118.9-129.2 62.3-67.4 113.8-122.2 114.2-121.8zm-538.2 1293.2c0.5 0 30.1 19 65.7 42.3 45.5 29.7 65.8 43.6 68.7 46.8 2.3 2.5 4.7 6.3 5.3 8.5 0.8 2.5 1.3 10.8 1.3 42.9l-43.5 65.4-98.5 0.1v-103c0-68 0.3-103 1-103zm42 165l50.5 0.1c30.1-24.7 33.3-27.8 32.3-28.8-0.7-0.6-13.9-9.3-29.3-19.4-15.4-10-33.8-22-40.8-26.5l-12.8-8.4zm-197.7-158.9c1.9 0 3.1 0.7 4 2.4 0.9 1.8 0.9 3.1 0.2 4.5-0.5 1.1-10.2 10.6-42 40.1l-50.5-0.1v22.5c0 12.4 0.3 22.5 0.5 22.5 0.3 0 3.5-3.6 13.5-16h61l5.1-2.7c4.2-2.3 5.5-2.6 7.8-1.7 2 0.7 2.7 1.7 2.9 4.2 0.2 2.5-0.5 4-3 6.6-1.8 1.9-10.8 10.5-36.8 34.6h-51v42l73.5 0.1 6.8-3c6.2-2.8 6.9-2.9 9.2-1.6 1.9 1.2 2.5 2.3 2.3 4.6-0.2 2.5-3.6 6.1-41.3 40.9h-93.5v-75.7c0-70.3 0.1-76 1.8-78.9 0.9-1.8 10-12.2 20.1-23 10.2-10.9 18.9-19.9 19.5-19.9 0.7 0 1.3 3.8 2.1 19.8l13.5-16.3 60.5-0.1 5.5-2.9c3.1-1.6 6.8-2.9 8.3-2.9zm456.7-0.1c1.4 0 3.1 0.5 3.8 1.2 0.7 0.8 1.2 2.5 1 3.9-0.2 1.8-5.9 7.8-42 41.4l-88.4 1 49.1 32c26.9 17.6 51 33.8 53.4 36 2.4 2.2 5.2 5.8 6.3 8 1.5 3.5 1.8 6.8 1.8 44.5l-26.5 32.1h-64.7c-35.6 0-65-0.4-65.2-0.8-0.3-0.4 8.9-9.5 41.2-39.8l89.9-1-111.7-73 0.1-48 25.9-31.5 112.5-0.1 5.5-2.9c3.1-1.6 6.7-2.9 8-3z"/>
		<path id="Path 4" fill-rule="evenodd" class="s0" d="m1114.5 252.3c0 0.2-1.6 5.7-7.5 24.2v396c0 260.6-0.4 398.4-1 403-0.6 3.8-2.3 9.7-3.9 13-1.6 3.4-5.7 9.2-9.6 13.5-3.8 4.1-48.5 52.2-99.2 106.7-50.8 54.6-92.8 99.3-93.3 99.3-0.5 0-42.5-44.7-93.3-99.3-50.7-54.5-95.4-102.6-99.2-106.7-3.9-4.3-8-10.1-9.6-13.5-1.6-3.3-3.3-8.9-3.8-12.5-0.7-4.3-1.1-71.1-1.1-392.5l-2.5-7.5c-1.4-4.1-3.2-9.8-5.4-17.5l5.2 5.6c2.9 3.1 37.2 40.1 76.2 82.3 40.6 43.9 72.5 79.1 74.5 82.4 1.9 3.1 4.4 8.2 5.5 11.2 2 5.4 2 8.5 2.5 287.5l25.3 54.3c13.8 29.8 25.4 54.3 25.7 54.3 0.3 0 11.9-24.5 51-108.6v-685.5l2.5-7.8c1.3-4.2 3.9-10 5.7-12.9 1.8-2.8 37.5-42.1 79.2-87.2 41.8-45.1 76-81.9 76.1-81.8zm-556.7 908.9c101.5 0.3 101.7 0.3 106.2 2.4 2.5 1.2 19.1 14.3 37 29.1 17.9 14.8 53.9 44.6 80 66.2 26.1 21.7 48.6 40.2 50 41.2 1.4 1.1 2.3 2.1 2 2.3-0.3 0.2-6.8-0.9-14.5-2.5-7.7-1.5-21-3.7-29.5-4.8-8.5-1.2-21.8-2.6-29.5-3.1-7.7-0.6-30.4-1-50.5-0.8-32.4 0.2-37.2 0-43-1.5-3.6-1-9-2.7-12-3.8-3-1.1-7.7-3.3-10.5-4.8-2.7-1.5-46.1-28.8-96.3-60.6-50.2-31.9-91.3-58.3-91.2-58.8 0-0.4 45.8-0.6 101.8-0.5zm687-0.1c65.5-0.1 99.2 0.2 99.2 0.9 0 0.5-42 27.5-93.2 59.9-51.3 32.4-94.6 59.6-96.3 60.4-1.7 0.8-5.5 2.4-8.5 3.6-3 1.1-8.4 2.8-12 3.8-5.8 1.5-10.6 1.7-43 1.5-20.1-0.2-42.8 0.2-50.5 0.8-7.7 0.5-21 1.9-29.5 3.1-8.5 1.1-21.8 3.3-29.5 4.8-7.7 1.6-14.2 2.7-14.5 2.5-0.3-0.2 0.6-1.2 2-2.3 1.4-1 32.9-27 70-57.7 37.1-30.8 73.1-60.6 80-66.2 6.9-5.7 13.8-11.1 15.5-11.9 1.7-0.9 4.8-1.9 7-2.3 2.2-0.4 48.7-0.8 103.3-0.9zm-602.9 291l11.8 7.6c6.5 4.2 33.4 21.8 59.8 39 26.4 17.2 49.8 33 52 35.1 2.2 2.1 4.6 5.6 5.2 7.8 0.8 2.4 1.3 9.9 1.3 19.2 0 12.3-0.3 15.2-1.4 15-0.7-0.2-30-19-128.5-83.3zm-170.2 7.2c0.2-0.2 0.3 0 0.3 0.2 0 0.3-7 7.1-31.1 29.8l-26.2-0.6c-14.4-0.4-26.3-0.9-26.5-1.2-0.1-0.2 4.7-6.5 21.8-27.5l30.7-0.2c16.9-0.2 30.9-0.4 31-0.5zm456.8 0c0.5-0.1-2.9 3.4-7.5 7.8-4.7 4.4-11.7 10.9-22.5 20.9l-105.8-0.5 22.8-27.5 56-0.3c30.8-0.1 56.4-0.3 57-0.4zm-543 5.5l0.5 148.2 43-0.2c23.6-0.2 43-0.2 43 0 0 0.1-6.8 6.5-30 28.2h-86v-71.2c0.1-39.2 0.4-72 0.8-72.9 0.4-0.9 7-8.5 14.7-16.9zm407.8 25.9c0.6 0.4 26.6 17.3 57.7 37.6 31 20.3 58 38.3 59.8 40.1 1.9 1.7 4 4.6 4.8 6.4 1 2.3 1.4 8 1.4 19.8 0 9-0.4 16.4-0.8 16.4-0.4 0-28.4-18.2-123.7-80.6l-0.2-20.2c-0.1-15.3 0.1-20.1 1-19.5zm-150 15c0.7 0.4 7.6 5.3 29.7 20.9v86.5l59.5-0.1 17.7-14.4c9.8-8 18-14.3 18.3-14 0.2 0.2-8 13.1-37 56.4l-89.5 0.1 0.1-68.1c0-51 0.4-67.9 1.2-67.3zm-171.5 23.9c0.1 0-3 3.2-7 7-4.1 3.9-11 10.6-23.8 22.5h-27c-22.1 0-26.9-0.3-26.3-1.3 0.4-0.8 5.7-7.3 22.8-27.8l30.5-0.2c16.7-0.1 30.6-0.2 30.8-0.2zm339.1 83.5h106.1l-2.3 2.9c-1.2 1.6-6.3 7.8-20.2 25h-56.3c-30.9 0.1-56.2-0.1-56.2-0.3 0-0.2 6.5-6.5 14.5-14z"/>
		<path id="Path 5" fill-rule="evenodd" class="s1" d="m558.1 1524c0.5 0 3.9 10 7.4 22.3 3.5 12.2 6.3 22.3 6.2 22.4-0.1 0.2-6.6 0.2-28.5-0.2l5.9-18.5c3.2-10.2 6.4-20.2 6.9-22.3 0.6-2 1.5-3.7 2.1-3.7zm-5.7 37.3c-0.3 1.5 0.4 1.7 5.1 1.7 3.7 0 5.5-0.4 5.5-1.2 0-0.7-1.1-5-2.4-9.5-1.3-4.6-2.6-8.3-2.8-8.3-0.3 0-1.5 3.5-2.8 7.8-1.2 4.2-2.4 8.5-2.6 9.5z"/>
	</g>
</svg>