<svg version="1.2" xmlns="http://www.w3.org/2000/svg" viewBox="0 0 640 640" width="640" height="640">
	<style>
		.s0 { fill: #ffffff } 
		.s1 { fill: #009933 } 
	</style>
	<g id="Background">
		<path id="Path 0" class="s0" d="m630.4 319c0 7.98 0.15 11.35 0.34 7.5 0.19-3.85 0.19-10.38 0-14.5-0.19-4.13-0.34-0.98-0.34 7z"/>
		<path id="Path 1" class="s1" d="m299.92 8.4c-0.23 0.21-5.37 0.91-11.42 1.53-6.05 0.63-15.95 2.06-22 3.18-6.05 1.11-16.18 3.32-22.5 4.91-6.33 1.59-15.78 4.3-21 6.02-5.23 1.72-14.45 5.16-20.5 7.63-6.05 2.48-16.63 7.38-23.5 10.89-6.88 3.52-17.33 9.44-23.24 13.17-5.9 3.72-14.68 9.69-19.5 13.25-4.82 3.57-13.26 10.36-18.76 15.1-5.5 4.73-14.73 13.52-20.5 19.53-5.78 6.01-14.1 15.41-18.5 20.89-4.4 5.48-12.2 16.27-17.33 23.98-5.16 7.77-13.3 22.05-18.23 32.02-4.9 9.9-10.53 22.27-12.51 27.5-1.97 5.22-5.38 15.57-7.56 23-2.18 7.43-5.05 18.9-6.38 25.5-1.33 6.6-3.13 17.18-3.99 23.5-0.87 6.32-1.85 19.82-2.18 30-0.38 11.42-0.16 23.48 0.58 31.5 0.65 7.15 2.09 18.62 3.21 25.5 1.11 6.87 3.13 17.23 4.49 23 1.37 5.77 3.61 14.32 5 19 1.38 4.68 2.91 9.4 3.39 10.5 0.48 1.1 2.97 7.4 5.54 14 2.56 6.6 8.26 18.98 12.66 27.5 4.39 8.52 11.71 21.12 16.25 28 4.55 6.87 12.02 17.23 16.6 23 4.58 5.77 13.54 15.84 19.9 22.37 6.36 6.53 16.99 16.43 23.64 22 6.64 5.57 17.89 14.02 25 18.78 7.1 4.76 17.87 11.4 23.92 14.76 6.05 3.35 15.95 8.33 22 11.07 6.05 2.73 16.85 7.04 24 9.58 7.15 2.53 18.85 6.11 26 7.94 7.15 1.84 19.98 4.47 28.5 5.85 8.52 1.38 21.12 3.05 28 3.72 7.5 0.72 18.7 0.97 28 0.63 8.52-0.32 19.55-1.05 24.5-1.63 4.95-0.57 14.17-1.95 20.5-3.06 6.32-1.11 16.23-3.15 22-4.53 5.77-1.39 15.45-4.14 21.5-6.12 6.05-1.97 15.5-5.38 21-7.56 5.5-2.19 15.62-6.79 22.5-10.23 6.87-3.44 16.77-8.88 22-12.09 5.23-3.2 14-9 19.5-12.88 5.5-3.87 12.92-9.51 16.5-12.51 3.58-3.01 10.33-8.94 15-13.18 4.67-4.23 12.86-12.59 18.18-18.56 5.33-5.97 12.26-14.23 15.41-18.35 3.15-4.13 9.59-13.35 14.31-20.5 4.72-7.15 12.2-20.2 16.63-29 4.42-8.8 9.9-20.73 12.18-26.5 2.28-5.77 5.77-15.9 7.76-22.5 2-6.6 4.68-16.73 5.96-22.5 1.28-5.77 3.06-14.55 3.95-19.5 0.89-4.95 2.07-13.95 2.62-20 0.55-6.05 1-18.99 1-28.75 0-9.76-0.49-23.26-1.08-30-0.6-6.74-2.6-19.9-4.44-29.25-1.84-9.35-4.99-22.4-6.99-29-2.01-6.6-5.21-16.28-7.13-21.5-1.92-5.23-7.47-17.6-12.33-27.5-5.31-10.79-12.85-24.01-18.84-33-5.49-8.25-13.97-19.94-18.84-25.97-4.87-6.04-14.25-16.39-20.85-23-6.6-6.62-17.63-16.55-24.5-22.07-6.88-5.52-17.68-13.44-24-17.6-6.33-4.15-16-10.06-21.5-13.12-5.5-3.07-16.08-8.26-23.5-11.55-7.43-3.29-20.25-8.24-28.5-11-8.25-2.76-20.4-6.23-27-7.7-6.6-1.47-14.48-3.09-17.5-3.61-3.02-0.51-12.25-1.81-20.5-2.89-10.16-1.33-21-1.96-33.58-1.97-10.22-0.01-18.77 0.16-19 0.38z"/>
		<path id="Path 2" class="s0" d="m295.5 15.14c-6.05 0.46-16.63 1.76-23.5 2.88-6.88 1.11-17.22 3.15-23 4.52-5.78 1.38-15.45 4.12-21.5 6.1-6.05 1.97-15.5 5.38-21 7.57-5.5 2.19-16.53 7.28-24.5 11.32-7.97 4.04-20.57 11.35-28 16.23-7.43 4.88-18.22 12.63-24 17.2-5.78 4.58-17.25 15.13-25.5 23.45-8.25 8.31-18.66 19.84-23.14 25.6-4.48 5.77-11.15 14.99-14.83 20.49-3.67 5.5-9.52 15.18-13 21.5-3.48 6.32-8.23 15.78-10.55 21-2.32 5.22-5.96 14.11-8.1 19.75-2.13 5.64-5.64 16.44-7.78 24-2.15 7.56-5.07 20.73-6.51 29.25-1.43 8.52-3.04 20.9-3.58 27.5-0.54 6.6-0.98 17.85-0.99 25 0 7.15 0.44 18.18 0.98 24.5 0.54 6.32 1.69 16.23 2.56 22 0.87 5.77 2.66 15.23 3.97 21 1.32 5.77 3.8 15.23 5.52 21 1.71 5.77 5.16 15.68 7.65 22 2.49 6.32 8.05 18.48 12.35 27 4.31 8.52 11.82 21.57 16.7 29 4.89 7.43 12.14 17.55 16.12 22.5 3.98 4.95 10.92 13.02 15.43 17.93 4.51 4.92 12.92 13.2 18.7 18.4 5.78 5.2 15.68 13.35 22 18.1 6.32 4.75 15.78 11.31 21 14.57 5.22 3.26 16.25 9.34 24.5 13.51 8.25 4.17 19.84 9.48 25.75 11.79 5.91 2.31 15.81 5.73 22 7.6 6.19 1.87 16.43 4.56 22.75 5.97 6.32 1.41 16 3.23 21.5 4.04 5.5 0.81 17.2 1.99 26 2.63 9.06 0.66 21.64 0.87 29 0.5 7.15-0.37 17.05-1.09 22-1.61 4.95-0.53 14.18-1.84 20.5-2.91 6.32-1.08 16-3.1 21.5-4.49 5.5-1.39 15.63-4.38 22.5-6.65 6.88-2.27 18.13-6.6 25-9.64 6.88-3.03 15.88-7.33 20-9.54 4.13-2.22 11.55-6.48 16.5-9.47 4.95-2.99 13.27-8.49 18.5-12.23 5.23-3.73 13.77-10.39 19-14.78 5.23-4.4 15.14-13.78 22.04-20.86 6.89-7.07 15.24-16.23 18.56-20.36 3.32-4.12 9.2-12 13.06-17.5 3.87-5.5 9.32-13.82 12.12-18.5 2.79-4.68 8.45-15.48 12.57-24 4.12-8.52 9.6-21.35 12.19-28.5 2.59-7.15 6.41-19.75 8.5-28 2.09-8.25 4.79-21.52 5.99-29.5 1.21-7.98 2.49-21.48 2.83-30 0.35-8.52 0.35-22.48 0-31-0.36-8.52-1.59-21.8-2.75-29.5-1.16-7.7-3.66-20.3-5.56-28-1.9-7.7-5-18.5-6.88-24-1.89-5.5-4.87-13.6-6.63-18-1.76-4.4-5.91-13.4-9.22-20-3.31-6.6-7.85-15.15-10.09-19-2.23-3.85-6.63-10.82-9.78-15.5-3.14-4.68-8.35-11.94-11.58-16.13-3.23-4.2-10.24-12.53-15.58-18.5-5.34-5.98-14.71-15.37-20.83-20.87-6.12-5.5-16.23-13.83-22.46-18.5-6.24-4.67-15.99-11.41-21.67-14.97-5.68-3.56-16.63-9.65-24.33-13.54-7.7-3.9-18.84-8.97-24.75-11.29-5.91-2.31-16.04-5.8-22.5-7.75-6.46-1.95-16.48-4.62-22.25-5.92-5.77-1.3-15.23-3.07-21-3.92-5.77-0.86-16.57-2.02-24-2.58-7.43-0.56-18.45-0.96-24.5-0.89-6.05 0.08-15.95 0.53-22 1z"/>
		<path id="Path 3" fill-rule="evenodd" class="s1" d="m322.56 28c-0.31 0.55 0.28 2.01 1.32 3.25 1.03 1.24 2.33 3.15 2.9 4.25 0.56 1.1 1.33 4.02 1.7 6.5 0.45 2.98 0.19 5.85-0.77 8.5-0.79 2.2-1.82 4.9-2.28 6-0.79 1.91-0.72 1.93 1.62 0.42 1.35-0.88 3.24-3.13 4.2-5 0.96-1.88 1.75-5.56 1.75-8.17 0-2.61-0.48-5.99-1.07-7.5-0.58-1.51-2.05-3.8-3.25-5.09-1.2-1.29-2.94-2.75-3.87-3.25-1.05-0.57-1.9-0.54-2.25 0.09zm25.86 1.25c-0.3 0.69-0.4 2.38-0.23 3.75 0.17 1.37 0.81 2.5 1.41 2.5 0.61 0 4.61 5.17 8.91 11.5 4.29 6.33 9.08 13.19 10.65 15.25 1.56 2.06 3.29 3.75 3.84 3.75 0.55 0 1.26-2.14 1.57-4.75 0.32-2.61 0.25-4.98-0.14-5.25-0.38-0.27-0.87 0.06-1.07 0.75-0.2 0.69-0.81 1.25-1.36 1.25-0.55 0-5.61-6.76-11.25-15.02-5.64-8.26-10.6-15.01-11.02-15-0.43 0.01-1.02 0.58-1.31 1.27zm-71.09 0.96c-0.77 0.93-0.56 4.54 0.74 12.79 1 6.33 1.83 13.52 1.84 16 0.02 2.48 0.25 4.73 0.52 5 0.27 0.28 1.65 0.28 3.07 0 1.83-0.36 2.38-0.93 1.91-2-0.36-0.83-1.62-8.11-2.79-16.19-1.16-8.08-2.59-15.19-3.17-15.79-0.76-0.8-1.34-0.75-2.12 0.19zm23.67 1.57c-0.82 0.94-2.29 3.28-3.26 5.21-0.97 1.93-1.75 4.86-1.74 6.51 0 1.65 0.46 4.69 1.01 6.75 0.54 2.06 2.56 5.33 4.49 7.25 1.99 1.99 4.32 3.39 5.41 3.25 1.34-0.18 1.67-0.69 1.11-1.75-0.43-0.83-1.58-2.17-2.56-3-0.97-0.83-2.41-3.08-3.2-5-0.87-2.12-1.33-6.07-1.17-10 0.15-3.78 0.82-7.02 1.59-7.75 0.72-0.69 1.32-1.7 1.32-2.25 0-0.55-0.34-0.98-0.75-0.96-0.41 0.02-1.43 0.8-2.25 1.74zm74.82-0.44c0.03 0.09-0.02 1.84-0.13 3.9-0.1 2.06 0.04 3.77 0.31 3.8 0.27 0.03 1-0.53 1.61-1.25 0.6-0.71 1.28-2.26 1.5-3.45 0.27-1.48-0.2-2.32-1.48-2.66-1.03-0.27-1.85-0.42-1.81-0.34zm-126.32 3.37c-1.1 0.27-2.37 0.78-2.83 1.14-0.45 0.36-0.34 1.55 0.25 2.65 0.58 1.1 2.42 7.51 4.07 14.25 1.66 6.74 3.01 13.15 3.01 14.25 0 1.1 0.45 2.22 1 2.5 0.55 0.28 1.9 0.05 3-0.5 1.37-0.68 1.71-1.39 1.08-2.25-0.51-0.69-2.53-7.66-4.5-15.5-1.97-7.84-3.36-14.92-3.1-15.75 0.27-0.83 0.38-1.45 0.25-1.38-0.13 0.06-1.13 0.33-2.23 0.59zm170.23 13.96c-0.78 1.69-0.86 2.79-0.23 3 0.57 0.18 0.89 3.15 0.75 6.83-0.17 4.41-0.65 6.49-1.5 6.48-0.99-0.01-0.99 0.25 0.02 1.25 0.79 0.8 1.26 3.98 1.25 8.52-0.01 4.93 0.38 7.38 1.23 7.66 0.69 0.23 1.7 0.12 2.25-0.25 0.62-0.41 0.89-7.36 0.72-18.41-0.24-14.9-0.52-17.75-1.77-17.75-0.82 0-2.04 1.2-2.72 2.67zm-203.6-0.42c-0.8 0.92-0.71 1.78 0.36 3.25 0.79 1.1 1.46 1.66 1.48 1.25 0.02-0.41 1.83 1.27 4.03 3.75 2.2 2.48 4 5.17 4 6 0 0.83 0.56 1.49 1.25 1.48 0.69 0 3.28 2.44 5.75 5.44 3.46 4.2 4.96 5.33 6.5 4.9 1.1-0.31 2.22-0.74 2.5-0.94 0.28-0.2-2.21-3.19-5.53-6.63-3.31-3.44-8.71-9.3-12-13.02-3.28-3.73-6.26-6.77-6.61-6.75-0.35 0.01-1.13 0.58-1.73 1.27zm128.98 6.25c-0.61 0.83-0.87 2.29-0.58 3.25 0.29 0.96-0.05 2.11-0.75 2.55q-1.27 0.8 0.72 0.48c1.37-0.22 2-1.1 2-2.8 0-1.36 0.28-3.04 0.63-3.73 0.34-0.69 0.28-1.25-0.14-1.25-0.42 0-1.27 0.67-1.88 1.5zm-156.36 2.53c-0.96 0.53-1.52 1.42-1.25 1.97 0.28 0.55 1.4 1 2.5 1 1.38 0 1.95-0.62 1.85-2-0.08-1.1-0.42-1.99-0.75-1.97-0.33 0.02-1.39 0.47-2.35 1zm258.25 7.21c-1.92 3.92-5.64 10.64-8.25 14.94-4.73 7.78-4.74 7.83-2.72 9.57 1.12 0.96 2.36 1.64 2.75 1.51 0.4-0.13 0.75-1.03 0.79-2 0.03-0.97 2.91-6.93 6.38-13.26 3.48-6.33 7.05-12.33 7.94-13.34 1.49-1.71 1.46-1.95-0.39-3.27-1.1-0.78-2.22-1.39-2.5-1.34-0.27 0.04-2.07 3.28-4 7.19zm-231.18 9.36c-0.18 4.73 0.02 8.78 0.43 9 0.41 0.22 1.43 0.18 2.25-0.1 1.25-0.42 1.31-1.05 0.35-3.75-0.63-1.79-0.95-5.61-0.7-8.5 0.31-3.72 0.09-5.25-0.78-5.25-0.85 0-1.33 2.65-1.55 8.6zm71.68-4.96c-6.05 0.77-16.17 2.55-22.5 3.95-6.32 1.41-17.35 4.49-24.5 6.85-7.15 2.37-18.17 6.62-24.5 9.45-6.32 2.83-16.9 8.3-23.5 12.17-6.6 3.87-16.36 10.27-21.69 14.24-5.32 3.96-12.19 9.34-15.25 11.95-3.06 2.61-5.56 5.2-5.56 5.75 0 0.66 30.92 0.75 92.25 0.25 50.74-0.41 98.33-0.73 105.75-0.7 9.42 0.03 15.92 0.61 21.5 1.9 4.4 1.01 12.05 3.87 17 6.35 6.86 3.44 10.67 6.2 16.01 11.6 4.91 4.97 8.12 9.35 10.68 14.6 2.02 4.13 4.4 10.2 5.28 13.5 1.07 3.97 1.94 13.78 2.57 29 0.53 12.65 1.41 32 1.96 43 0.55 11 1.43 22.7 1.97 26 0.53 3.3 1.85 8.93 2.94 12.5 1.36 4.5 3.3 8 6.28 11.39 2.37 2.69 8.14 7.69 12.81 11.13 4.68 3.43 9.67 7.53 11.1 9.11 1.44 1.58 2.9 3.66 3.25 4.62 0.36 0.96 0.43 1.75 0.15 1.75-0.27 0-1.74-0.86-3.25-1.92-1.51-1.06-5.22-3.02-8.25-4.35-3.02-1.34-8.65-3.17-12.5-4.08-3.85-0.9-9.92-2.08-13.5-2.63-3.57-0.55-17.97-1.47-32-2.04-14.02-0.57-27.97-1.43-31-1.91-3.02-0.48-7.3-1.35-9.5-1.94-2.2-0.59-6.44-2.55-9.42-4.35-3.05-1.84-6.81-5.26-8.57-7.78-1.86-2.67-3.89-7.55-4.98-12-1.59-6.45-1.94-13.78-2.54-52.5-0.65-41.9-0.85-45.55-2.88-53-1.2-4.4-3.29-9.91-4.65-12.25-1.35-2.34-5.19-6.84-8.53-10-3.34-3.16-7.39-6.54-9-7.5-1.76-1.05-3.13-1.35-3.43-0.75-0.27 0.55 1.68 3.14 4.34 5.75 2.66 2.61 6.2 7.45 7.88 10.75 1.68 3.3 3.62 7.8 4.32 10 0.9 2.84 1.48 17.63 1.99 51 0.66 42.61 0.92 47.89 2.84 56.5 1.17 5.23 3.39 12.2 4.94 15.5 1.55 3.3 4.36 7.59 6.25 9.54 1.91 1.96 6.01 4.53 9.19 5.75 3.16 1.22 10.36 3.14 16 4.28 6.75 1.37 17.25 2.38 30.75 2.97 11.28 0.49 26.13 1.55 33 2.34 6.88 0.8 15.43 2.2 19 3.12 3.58 0.92 9.65 3.14 13.5 4.93 3.85 1.79 9.25 5.04 12 7.23 2.75 2.18 7.14 7.09 9.76 10.9 2.62 3.82 5.84 10.09 7.15 13.94 1.31 3.85 2.86 10.6 3.44 15 0.58 4.4 1.31 23.3 1.62 42 0.31 18.7 1.01 35.69 1.55 37.75 0.67 2.57 2 4.37 4.23 5.72 1.79 1.08 4.38 1.97 5.75 1.97 1.38 0 2.83 0.35 3.22 0.78 0.4 0.43-0.54 2.35-2.09 4.28-1.55 1.93-5.71 5.71-9.23 8.4-3.52 2.7-10 6.59-14.4 8.65-4.4 2.06-11.82 4.72-16.5 5.91-5.14 1.31-13.25 2.38-20.5 2.72-9.83 0.46-13.17 0.23-18.5-1.27-3.57-1.01-9.09-3.54-12.25-5.62-3.16-2.09-7.52-6.15-9.69-9.04-2.17-2.89-5.03-7.73-6.36-10.75-1.34-3.02-3.28-8.2-4.32-11.5-1.75-5.59-1.86-9.15-1.51-52.5 0.32-40.55 0.16-47.24-1.25-52.25-0.89-3.16-3.56-8.56-5.94-12-2.37-3.44-6.53-7.95-9.25-10.03-2.71-2.08-7.63-5.09-10.93-6.68-3.3-1.58-9.6-3.81-14-4.93-4.4-1.13-17.9-2.97-30-4.09-12.1-1.13-28.3-2.98-36-4.12-7.7-1.13-18.05-3.36-23-4.94-4.95-1.58-11.7-4.6-15-6.72-3.3-2.13-7.71-5.86-9.8-8.3-2.09-2.44-4.85-6.69-6.12-9.44-1.28-2.75-2.84-7.25-3.47-10-0.63-2.75-1.59-9.5-2.12-15-0.53-5.5-1.24-25.3-1.57-44-0.45-25.8-0.96-35.33-2.11-39.5-0.83-3.03-2.37-7.19-3.41-9.25-1.05-2.06-4.04-5.83-6.65-8.37-2.61-2.54-7.45-6.1-10.75-7.91-3.3-1.81-9.15-4.27-13-5.45-4.84-1.5-9.78-2.19-16-2.24-5.4-0.05-11.5 0.58-15.25 1.57-3.44 0.91-8.95 3-12.25 4.65-5.04 2.52-7.3 4.63-14.14 13.25-4.48 5.64-9.83 12.72-11.88 15.75-2.05 3.03-6.95 11.12-10.88 18-3.93 6.87-9.33 17.68-11.99 24-2.67 6.32-6.48 16.56-8.48 22.75-2 6.19-4.5 15.19-5.57 20-1.06 4.81-2.63 12.8-3.49 17.75-0.85 4.95-1.96 15.98-2.46 24.5-0.55 9.33-0.54 21.27 0.01 30 0.5 7.98 1.58 18.77 2.41 24 0.82 5.23 2.89 15.12 4.59 22 1.7 6.87 4.94 17.68 7.19 24 2.25 6.32 7.55 18.48 11.79 27 4.23 8.52 11.16 20.68 15.41 27 4.24 6.32 11.42 16 15.96 21.5 4.54 5.5 13.15 14.73 19.14 20.5 5.99 5.78 14.72 13.48 19.39 17.13 4.68 3.64 13 9.55 18.5 13.15 5.5 3.59 14.73 9.02 20.5 12.07 5.78 3.05 15.68 7.63 22 10.17 6.33 2.55 16.9 6.19 23.5 8.1 6.6 1.9 16.5 4.37 22 5.48 5.5 1.12 16.08 2.67 23.5 3.45 7.43 0.79 18.9 1.43 25.5 1.43 6.6 0 18.08-0.64 25.5-1.42 7.43-0.79 19.35-2.61 26.5-4.05 7.15-1.45 19.75-4.87 28-7.6 8.74-2.9 21.68-8.28 31-12.88 8.8-4.35 20.73-11 26.5-14.78 5.78-3.78 15-10.5 20.5-14.94 5.5-4.44 14.67-12.73 20.39-18.44 5.71-5.7 13.82-14.64 18.03-19.87 4.2-5.23 10.75-14.23 14.56-20 3.8-5.77 9.71-15.9 13.12-22.5 3.41-6.6 8.26-17.18 10.76-23.5 2.51-6.32 6.16-17.35 8.12-24.5 1.96-7.15 4.46-18.18 5.56-24.5 1.09-6.32 2.48-17.8 3.09-25.5 0.64-7.99 0.82-20.01 0.44-28-0.36-7.7-1.33-18.73-2.14-24.5-0.8-5.77-2.64-15.68-4.07-22-1.42-6.32-4.57-17.24-6.98-24.25-2.41-7.01-6.25-16.91-8.53-22-2.29-5.09-6.39-13.3-9.12-18.25-2.73-4.95-7.32-12.6-10.2-17-2.87-4.4-8.38-12.05-12.25-17-3.86-4.95-10.79-13.02-15.4-17.94-4.61-4.91-13.33-13.18-19.38-18.37-6.05-5.19-17.07-13.47-24.5-18.41-7.42-4.93-19.57-11.99-27-15.67-7.42-3.68-18-8.33-23.5-10.33-5.5-2-13.82-4.79-18.5-6.19-4.67-1.41-12.77-3.44-18-4.53-5.22-1.09-14.79-2.67-21.25-3.52-7.62-1-18.88-1.5-32-1.43-11.14 0.06-25.2 0.75-31.25 1.53zm179.56 0.32c-0.03 0.57 0.46 3.18 1.09 5.79 1.04 4.3 0.91 5.27-1.31 10.25-1.37 3.08-3.89 6.6-5.72 8-1.8 1.38-2.9 2.87-2.44 3.33 0.45 0.45 2.17 0.15 3.82-0.66 1.65-0.81 3.96-2.54 5.13-3.82 1.18-1.29 2.86-3.81 3.75-5.6 0.89-1.79 1.63-4.71 1.64-6.5 0.01-1.79-0.44-4.71-1-6.5-0.56-1.79-1.89-3.72-2.96-4.29-1.34-0.71-1.96-0.71-2 0zm-68.03 3.04c-0.85 1.65-0.71 2 0.8 2 1.01 0 2.11-0.34 2.45-0.75 0.34-0.41 0.42-1.31 0.17-2-0.25-0.69-0.89-1.25-1.42-1.25-0.54 0-1.44 0.9-2 2zm-201.84 0.77c-1 0.56-0.47 2.16 2.25 6.73 1.95 3.3 3.56 6.56 3.56 7.25 0 0.69 0.68 1.25 1.5 1.25 0.83 0 1.73-0.67 2-1.5 0.28-0.83-0.75-4.42-2.28-8-1.63-3.82-3.39-6.49-4.25-6.48-0.81 0-2.06 0.34-2.78 0.75zm-27.19 2.73c-0.08 0.55-0.33 1.9-0.55 3-0.21 1.1 0.71 4.25 2.05 7 1.47 3.01 3.92 6 6.16 7.5 2.61 1.76 5.06 2.5 8.27 2.5 2.51 0 4.8-0.43 5.07-0.95 0.28-0.53-1.42-1.43-3.76-2-2.34-0.58-5.83-2.29-7.75-3.8-1.92-1.51-4.28-4.44-5.24-6.5-0.96-2.06-2.02-3.97-2.35-4.25-0.33-0.28-0.86-1.17-1.17-2-0.32-0.83-0.64-1.05-0.73-0.5zm-21.18 5.78c-1.51 1.09-0.63 2.7 8.33 15.22 5.51 7.7 10.21 14.11 10.44 14.25 0.22 0.14 1.42-0.24 2.66-0.83l2.25-1.08c-4.15-4.14-8.76-10.06-12.92-15.84-4.17-5.78-7.58-11.06-7.58-11.75 0-0.69-0.34-1.24-0.75-1.22-0.41 0.02-1.51 0.58-2.43 1.25zm340.75 6.47c-1.13 1.14-1.54 2.63-1.18 4.25 0.3 1.38-0.77 7.9-2.39 14.5-2.21 9.06-2.63 12.17-1.72 12.68 0.67 0.38 2.01 0.26 2.97-0.25 0.96-0.51 1.58-1.72 1.37-2.68-0.21-0.96 0.92-7.37 2.53-14.25 1.6-6.87 3.12-13.29 3.38-14.25 0.32-1.21-0.11-1.75-1.38-1.75-1.02 0-2.63 0.79-3.58 1.75zm-360.59 11.45c-0.76 0.66-1.29 1.56-1.18 2 0.11 0.44 1.1 0.8 2.2 0.8 1.1 0 3.35 1.35 5 3 2.33 2.33 3 3.89 3 7 0 2.97 0.45 4.11 1.75 4.44 0.96 0.25 4.45 0.98 7.75 1.64 3.3 0.66 6.9 0.9 8 0.53 1.76-0.59 1.82-0.83 0.5-2-0.83-0.74-4.65-1.85-8.5-2.48-3.85-0.63-7.08-1.26-7.18-1.39-0.09-0.13-0.43-2.27-0.74-4.74-0.35-2.83-1.4-5.3-2.82-6.65-1.24-1.18-3.19-2.42-4.33-2.75-1.13-0.33-2.68-0.06-3.45 0.6zm342.02 6.87c-1.97 1.58-2.24 2.26-1.27 3.22 0.96 0.95 1.67 0.78 3.28-0.79 1.13-1.1 2.04-2.56 2.02-3.25-0.02-0.69-0.37-1.24-0.78-1.22-0.41 0.02-1.87 0.94-3.25 2.04zm38.58-0.41c-2.16 0.86-3.84 2.18-3.75 2.95 0.09 0.76 0.85 1.17 1.67 0.89 0.83-0.28 1.5-0.27 1.49 0.01 0 0.28-3.04 4.99-6.75 10.47-6.03 8.93-6.58 10.13-5.24 11.54 0.83 0.86 1.84 1.55 2.25 1.52 0.41-0.02 0.75-0.6 0.75-1.29 0-0.69 3.6-6.65 8-13.25 4.4-6.6 8-12.56 8-13.25 0-0.69-0.56-1.23-1.25-1.2-0.69 0.03-3.01 0.75-5.17 1.61zm-391.47 0.84c-0.9 1.21 0.66 3.46 8.15 11.75 5.09 5.64 10.26 11.49 11.5 13 1.83 2.25 2.61 2.57 4.24 1.75 1.1-0.55 2-1.22 2-1.5 0-0.28-2.27-2.64-5.04-5.25-2.77-2.61-5.02-5.09-5-5.5 0.02-0.41-1.87-2.49-4.21-4.62-2.34-2.13-5.37-5.5-6.75-7.49-1.37-2-2.79-3.63-3.14-3.63-0.35-0.01-1.14 0.66-1.75 1.49zm408.39 19.29c-3.3 3.16-8.92 8.34-12.5 11.5-6.16 5.45-6.41 5.84-4.77 7.48 1.65 1.64 2.19 1.29 10.5-6.79 4.82-4.69 10.46-9.98 12.52-11.75 2.25-1.94 3.55-3.83 3.25-4.73-0.27-0.82-1.06-1.49-1.75-1.48-0.69 0.01-3.95 2.61-7.25 5.77zm-429.11 3.69l-1.8 2.49c3.8-1.7 6.04-1.95 7.41-1.65 1.38 0.31 3.74 1.71 5.25 3.12 1.51 1.41 2.92 2.22 3.12 1.81 0.2-0.41 0.21-1.65 0.01-2.75-0.2-1.1-1.16-2.8-2.12-3.78-1.14-1.16-3.22-1.77-5.91-1.75-3.25 0.02-4.55 0.57-5.96 2.51zm-6.53 7.06c-0.88 1-1.01 1.82-0.36 2.32 0.55 0.43 6.12 5.02 12.38 10.21 6.26 5.19 11.66 10.02 12 10.74 0.48 1.02 1.17 0.89 3.12-0.58l2.5-1.89c-5.42-3.36-8.24-5.46-9.75-6.84-1.51-1.37-2.75-2.84-2.75-3.25 0-0.41-1.23-1.31-2.75-2-1.51-0.68-5-3.29-7.75-5.79-2.75-2.5-5.06-4.53-5.14-4.5-0.07 0.02-0.75 0.73-1.5 1.58zm455.89 2.36c-2 1.53-2.68 2.85-2.5 4.85 0.14 1.51-1.33 10.49-3.25 19.95-1.92 9.46-3.16 17.45-2.75 17.75 0.41 0.3 1.91-0.24 3.33-1.2 1.94-1.31 2.44-2.32 2-4-0.32-1.24 1.03-9.79 2.99-19 1.97-9.21 3.43-17.58 3.25-18.6-0.31-1.76-0.46-1.75-3.07 0.25zm-435.1 1.1c-0.31 1.38-0.46 2.59-0.35 2.71 0.11 0.11 4.03 0.51 8.7 0.89 5.71 0.47 9.24 0.32 10.75-0.45 1.24-0.63 2.03-1.6 1.75-2.15-0.28-0.55-4.4-0.99-9.25-0.98-5.81 0.01-9.14-0.41-9.9-1.25-0.9-1-1.27-0.73-1.7 1.23zm412.1 14.91c-1.51 0.88-2.75 2.15-2.75 2.84 0 0.69 0.56 1.55 1.25 1.91 0.72 0.38 2.28-0.58 3.68-2.25 1.34-1.6 2.91-2.76 3.5-2.58 0.59 0.19 0.69-0.04 0.22-0.5-0.46-0.45-1.36-0.87-2-0.92-0.63-0.04-2.39 0.63-3.9 1.5zm-447.44 1.53c-0.45 0.87-0.59 1.74-0.31 1.93 0.27 0.19 5.9 3.94 12.5 8.33 6.6 4.39 12.84 8.84 13.87 9.89 1.85 1.88 1.9 1.88 3.27-0.09 0.77-1.1 1.36-2.22 1.31-2.5-0.05-0.28-6.24-4.55-13.77-9.5-7.52-4.95-14.22-9.15-14.87-9.32-0.65-0.18-1.55 0.38-2 1.26zm486 6c-0.45 0.87-0.45 1.91 0 2.32 0.44 0.41 1.11 0.14 1.5-0.6 0.38-0.73 1.03-1.29 1.44-1.25 0.41 0.05 0.77-0.25 0.8-0.66 0.03-0.41-0.62-0.9-1.44-1.07-0.82-0.18-1.85 0.38-2.3 1.26zm11.69 18.46c-1.38 1-7.9 4.61-14.5 8.03-6.6 3.42-12.34 6.53-12.75 6.9-0.42 0.37-0.12 1.57 0.66 2.67 1.31 1.86 1.53 1.89 3.25 0.36 1.01-0.91 7.01-4.41 13.34-7.78 6.33-3.37 12.29-6.35 13.25-6.61 0.96-0.26 1.76-0.81 1.77-1.22 0.01-0.41-0.56-1.52-1.25-2.45-1.19-1.6-1.42-1.6-3.77 0.1zm-520.97 18.1c-0.85 1.66-0.64 2.15 1.22 2.88 1.24 0.48 7.42 3.23 13.75 6.1 6.32 2.88 12.17 5.85 13 6.6 0.82 0.75 1.84 1.38 2.25 1.39 0.41 0.02 1.42-1.32 2.25-2.97 0.93-1.87 1.12-3.19 0.5-3.5-0.55-0.28-1.56-0.25-2.25 0.05-0.69 0.3-6.88-1.99-13.75-5.1-6.88-3.11-12.95-6.06-13.5-6.57-0.55-0.5-1.32-0.91-1.72-0.9-0.4 0.01-1.19 0.92-1.75 2.02zm524.3 4.36c-1.55 1.29-3.44 4.33-4.17 6.75-0.74 2.41-1.96 5.74-2.72 7.39-0.75 1.65-2.51 3.56-3.9 4.25-1.4 0.69-2.54 1.7-2.54 2.25 0 0.55 1.46 0.8 3.25 0.56 1.79-0.24 4.21-1.48 5.39-2.75 1.17-1.27 3.07-5.24 4.21-8.81 1.14-3.57 2.99-7.4 4.1-8.5 1.1-1.1 1.8-2.34 1.53-2.75-0.26-0.41-0.89-0.75-1.4-0.75-0.5 0-2.19 1.06-3.75 2.36zm-517.83 23.05c-13.33 0.91-15.95 1.34-15.68 2.59 0.18 0.82 0.63 1.85 1 2.27 0.37 0.43 2.71 0.33 5.18-0.22 2.48-0.55 5.96-1.01 7.75-1.03 1.79-0.01 3.42 0.54 3.63 1.23 0.3 1 0.64 1 1.7 0 0.81-0.76 4.15-1.25 8.62-1.25 4.2 0 7.3-0.42 7.3-1 0-0.55 0.23-1.68 0.5-2.5 0.35-1.06-0.16-1.45-1.75-1.34-1.24 0.09-9.45 0.65-18.25 1.25zm538.5 9.59c0 0.55-6.98 2.91-15.51 5.25-12.51 3.43-15.51 4.59-15.5 6 0 0.96 0.49 1.86 1.08 2 0.59 0.14 5.42-1.15 10.75-2.85 5.32-1.71 12.12-3.73 15.1-4.5 4.28-1.11 5.49-1.14 5.75-0.15 0.18 0.69 0.78 1.25 1.33 1.25 0.55 0 0.76-1.23 0.47-2.75-0.29-1.51-0.74-3.31-1-4-0.26-0.69-0.92-1.25-1.47-1.25-0.55 0-1 0.45-1 1zm-532.04 10.8c0.06 0.39 0.99 1.71 2.07 2.95 1.08 1.24 2.42 2.03 2.97 1.75 0.55-0.28 0.97-1.13 0.93-1.9-0.04-0.77-1.43-1.87-3.08-2.45-1.65-0.58-2.95-0.73-2.89-0.35zm536.07 1.95c-0.02 1.94 0.43 3.15 1.12 3 0.63-0.14 1.32-0.7 1.52-1.25 0.2-0.55-0.3-1.9-1.12-3-1.42-1.91-1.49-1.86-1.52 1.25zm-542.28 11.96c-0.36 0.44-0.45 1.35-0.2 2.04 0.27 0.74-5.83 5.39-15.1 11.5-8.55 5.64-15.52 10.59-15.5 11 0.03 0.41 1.51 1.03 3.3 1.38 1.79 0.34 3.81 0.34 4.5 0 0.69-0.35 1.03-1.08 0.75-1.63-0.27-0.55 6.09-5.39 14.15-10.75 8.06-5.36 14.86-10.33 15.12-11.04 0.26-0.71 0.3-1.45 0.1-1.64-0.2-0.18-1.74-0.63-3.42-0.99-1.68-0.36-3.34-0.3-3.7 0.13zm529.49 8.18c-15.59 2.5-16.26 2.7-16.24 4.93 0.01 1.74 0.45 2.18 1.76 1.76 0.96-0.3 4.22-1 7.24-1.56 4.22-0.77 5.65-0.72 6.16 0.23 0.49 0.95 1.07 0.84 2.39-0.42 1.03-0.99 4.44-1.99 8.34-2.44 3.64-0.43 7.17-0.69 7.86-0.58 0.72 0.11 1.25-0.87 1.25-2.31 0-1.41-0.55-2.44-1.25-2.36-0.69 0.08-8.57 1.32-17.51 2.75zm-0.13 9.3c-0.04 0.72-2.38 3.56-5.18 6.31-2.8 2.75-5.76 6.35-6.58 8-1.04 2.08-1.18 3.31-0.45 4 0.71 0.68 1.77 0.04 3.31-2 1.25-1.65 4.08-4.93 6.28-7.29 3.09-3.3 4.47-4.12 6.01-3.59 1.9 0.66 1.91 0.61 0.25-0.96-0.96-0.91-1.7-2.31-1.65-3.1 0.06-0.79-0.35-1.72-0.9-2.06-0.55-0.34-1.04-0.03-1.09 0.69zm16.52 1.76c-0.35 0.58-2.21 1.73-4.13 2.55-1.92 0.82-3.5 2.18-3.5 3q-0.01 1.5 3.05 1.5c1.92 0 3.94-0.92 5.5-2.5 1.35-1.37 2.29-3.06 2.1-3.75-0.19-0.69-0.81-1.39-1.37-1.55-0.57-0.17-1.31 0.17-1.65 0.75zm-551.57 7.74c-0.08 0.45 0.43 1.33 1.15 1.97 0.71 0.63 2.87 1.31 4.79 1.5 2.6 0.25 3.5-0.05 3.5-1.16 0-1.05-1.06-1.5-3.5-1.51-1.92-0.01-4.02-0.37-4.65-0.81-0.63-0.44-1.21-0.43-1.29 0.01zm-17.96 16.08c-1.88 0.95-4.49 3.08-5.81 4.73-1.65 2.06-2.08 3.31-1.36 4 0.7 0.67 1.78 0.29 3.31-1.18 1.24-1.2 3.5-2.67 5.01-3.25 1.51-0.59 5.56-1.07 9-1.07 4.49 0.01 7.17 0.57 9.5 2 1.79 1.1 3.59 1.78 4 1.51 0.41-0.28-0.15-1.46-1.25-2.65-1.1-1.18-3.8-2.97-6-3.98-2.2-1.01-6.02-1.84-8.5-1.84-2.47 0.01-6.03 0.78-7.9 1.73zm567.98 9.52c-0.56 0.71-2.94 2.12-5.29 3.12-2.36 1.01-4.85 1.55-5.54 1.21-0.69-0.34-1.87 0.04-2.62 0.85-0.76 0.81-4.02 2.53-7.25 3.81-4.35 1.73-5.88 2.85-5.88 4.28 0 1.14 0.62 1.87 1.5 1.76 0.83-0.1 7.58-2.69 15-5.75 7.42-3.07 14.63-6.06 16-6.66 2.46-1.07 2.47-1.11 0.5-2.51-1.1-0.79-2.77-1.43-3.71-1.42-0.94 0.01-2.16 0.6-2.71 1.31zm-546.29 15.56c-1.81 1.57-4.41 3.46-5.79 4.21-1.6 0.86-5.29 1.27-10.25 1.14-4.26-0.11-7.75 0.03-7.75 0.3 0 0.27 1.46 1.4 3.25 2.5 1.99 1.22 4.99 1.99 7.75 1.98 2.48 0 6.49-0.94 8.93-2.08 2.43-1.14 5.17-3.27 6.08-4.74 0.92-1.46 1.86-3.45 2.1-4.41 0.23-0.96 0.1-1.75-0.3-1.75-0.41 0-2.21 1.28-4.02 2.85zm518.37 15.04c-0.09 1.16-0.05 2.45 0.09 2.86 0.14 0.41 0.59 0.64 1 0.5 0.41-0.14 7.61 0.44 16 1.29 8.39 0.84 15.81 1.29 16.5 1 0.69-0.3 1.25-1.1 1.26-1.79 0-0.88-4.78-1.77-16-3-8.81-0.96-16.61-2.02-17.35-2.36-0.88-0.39-1.4 0.13-1.5 1.5zm-530.66 8.54c-14.78 1.98-15.97 2.29-15.65 4.11 0.18 1.08 0.41 2.04 0.5 2.13 0.08 0.09 6-0.67 13.15-1.69 7.15-1.02 14.8-2 17-2.17 3.36-0.26 4.01-0.67 4.09-2.56 0.06-1.48-0.46-2.2-1.5-2.11-0.88 0.08-8.79 1.11-17.59 2.29zm526.15 17.82c-0.29 1.24-0.34 2.59-0.09 3 0.24 0.41 1.45 0.74 2.69 0.74 1.24-0.01 7.87 1.14 14.75 2.55 6.87 1.41 13.29 2.99 14.25 3.51 0.96 0.52 1.97 0.95 2.25 0.95 0.27 0 0.67-0.9 0.87-2 0.21-1.1-0.13-2.3-0.75-2.67-0.61-0.38-7.31-1.95-14.87-3.5-7.56-1.56-14.65-3.28-15.75-3.83-1.1-0.55-2.18-1-2.4-1-0.23 0-0.65 1.01-0.95 2.25zm-506.28 6.32c-1.58 0.69-8.5 2.58-15.37 4.21-7.22 1.71-12.92 2.6-13.5 2.1-0.55-0.48-1.23-0.66-1.5-0.41-0.28 0.25-0.28 1.65 0 3.11 0.27 1.47 0.84 2.84 1.25 3.04 0.41 0.21 1.31-0.01 2-0.49 0.69-0.48 7.77-2.35 15.75-4.17 7.97-1.81 14.85-3.56 15.27-3.88 0.42-0.32 0.37-1.52-0.13-2.67-0.81-1.88-1.18-1.96-3.77-0.84zm505.13 14.83c-2.2 1.31-4.56 3.55-5.25 4.99-0.69 1.43-0.91 2.8-0.5 3.03 0.41 0.23 1.87-0.7 3.25-2.07 1.37-1.37 4.3-2.94 6.5-3.48 2.2-0.55 5.35-0.71 7-0.36 1.65 0.35 5.36 1.85 8.24 3.32 2.88 1.47 5.58 2.33 6 1.92 0.42-0.42-0.37-1.93-1.74-3.35-1.38-1.43-4.19-3.45-6.25-4.5-2.14-1.08-5.79-1.9-8.5-1.89-3.2 0.01-6.05 0.78-8.75 2.39zm-501.58 5.23c-1.33 1.44-7.26 6.84-13.17 12-8.08 7.04-10.44 9.63-9.5 10.4 0.69 0.57 2.37 0.91 3.75 0.75 1.52-0.17 2.5-0.91 2.5-1.9 0-0.89 2.02-3.24 4.5-5.22 2.47-1.98 5.64-4.63 7.04-5.88 1.4-1.25 4.44-3.85 6.76-5.78 2.87-2.38 4.05-4.06 3.71-5.25-0.28-0.96-1.11-1.75-1.84-1.75-0.73 0-2.42 1.18-3.75 2.63zm495.45 18.79c-0.62 1.15-0.16 2.35 1.63 4.19 1.37 1.42 4.3 3.5 6.5 4.62 2.22 1.13 6 2.04 8.5 2.05 2.65 0.02 5.84-0.75 7.76-1.88 1.8-1.04 3.26-2.46 3.25-3.15-0.01-0.79-0.84-1.05-2.26-0.71-1.24 0.3-3.6 0.81-5.25 1.14-1.65 0.34-5.25-0.01-8-0.76-2.75-0.74-6.41-2.65-8.13-4.24-2.72-2.5-3.24-2.66-4-1.26zm-12.34 14.58c-0.91 1.77-0.65 2.07 2.22 2.56 1.79 0.31 3.35 0.42 3.48 0.25 0.12-0.17-0.44-1.32-1.25-2.56-0.82-1.24-1.92-2.25-2.45-2.25-0.54 0-1.44 0.9-2 2zm-469.53 0.62c-1.57 0.79-2.78 1.88-2.68 2.41 0.1 0.53 0.63 1.2 1.18 1.47 0.59 0.29-1.48 7.93-5 18.5-3.3 9.9-5.78 18.23-5.5 18.5 0.27 0.27 2.3-0.4 4.5-1.5 2.2-1.1 4-2.45 4-3 0-0.55-0.68-1-1.5-1-0.83 0-1.5-0.11-1.5-0.25-0.01-0.14 2.47-7.79 5.5-17 3.45-10.53 5.19-17.28 4.67-18.16-0.71-1.22-1.22-1.21-3.67 0.03zm481.48 5.63c-0.01 0.69 1.67 2.06 3.75 3.04 2.45 1.17 4.12 1.46 4.77 0.83 0.66-0.64-0.46-1.69-3.25-3.05-2.34-1.14-4.48-2.07-4.75-2.07-0.28 0-0.51 0.56-0.52 1.25zm-504.48 6.87c-3.12 1.58-3.73 2.29-2.77 3.2 0.95 0.91 2.04 0.72 4.76-0.82 1.94-1.1 3.52-2.56 3.52-3.25-0.01-0.69-0.35-1.23-0.76-1.21-0.41 0.03-2.55 0.96-4.75 2.08zm515.52-0.37q0.02 1.75-3.25 2.51c-1.8 0.42-9.35 2.38-16.77 4.37-7.43 1.98-14.18 4.19-15 4.91-1.3 1.12-1.06 1.51 1.75 2.88 1.79 0.87 3.7 1.35 4.25 1.08 0.55-0.27 0.77-0.95 0.5-1.5-0.28-0.55 1.19-1.41 3.25-1.92 2.06-0.5 10.16-2.53 18-4.5 7.84-1.97 14.47-3.58 14.75-3.58 0.27 0 0.5-0.45 0.5-1 0-0.55-1.46-1.9-3.25-3-1.79-1.09-3.59-1.99-4-2-0.41 0-0.74 0.79-0.73 1.75zm-479.17 12.21c-1.65 1.24-1.98 1.95-1.1 2.4 0.69 0.35 2.37 0.41 3.75 0.14 1.37-0.27 2.48-1.13 2.45-1.89-0.02-0.77-0.65-1.62-1.4-1.9-0.74-0.28-2.41 0.29-3.7 1.25zm465.71 12.29c0.26 0.69 1.81 2.04 3.46 3 1.64 0.96 3.43 1.75 3.98 1.75 0.55 0 0.91-0.64 0.81-1.43-0.11-0.79-1.12-1.78-2.25-2.2-1.13-0.42-2.4-0.68-2.81-0.57-0.41 0.11-0.75-0.25-0.75-0.8 0-0.55-0.65-1-1.45-1-0.8 0-1.25 0.56-0.99 1.25zm-204.6 109c-0.03 0.69 0.53 1.76 1.25 2.39 0.71 0.62 1.69 3.1 2.18 5.5 0.49 2.4 1.06 3.57 1.25 2.61 0.2-0.96 0.81-1.75 1.36-1.75 0.55 0 1-1.35 1-3 0-2.11-0.81-3.6-2.75-5.03-1.51-1.12-3.09-2.02-3.5-2-0.41 0.01-0.77 0.59-0.79 1.28zm-73.46 0.93c-1.1 0.61-2.23 1.3-2.5 1.52-0.28 0.23 0.04 0.72 0.7 1.11 0.91 0.53 0.72 3.77-0.78 13.69-1.09 7.15-2.41 13.79-2.95 14.75-0.68 1.23-0.6 1.93 0.28 2.36 0.69 0.33 2.04 0.33 3 0 1.24-0.43 1.75-1.69 1.76-4.36 0.01-2.06 0.9-8.7 1.99-14.75 1.09-6.05 1.98-12.01 1.99-13.25 0-1.24-0.33-2.24-0.74-2.22-0.41 0.02-1.65 0.53-2.75 1.15zm27.48 3.07c-0.02 0.14 0.66 1.94 1.5 4 0.83 2.06 1.53 5.21 1.54 7 0.01 1.79-0.64 5.05-1.44 7.25-0.81 2.2-1.16 4.35-0.78 4.78 0.39 0.43 1.04 0.76 1.45 0.75 0.41-0.02 1.64-1.94 2.73-4.28 1.09-2.34 1.99-6.16 2-8.5 0.01-2.34-0.66-5.83-1.48-7.75q-1.5-3.5-3.5-3.5c-1.1 0-2.01 0.11-2.02 0.25zm-13.9 4.32c-0.48 1.41-0.92 3.21-0.98 4-0.05 0.78 0.51 2.67 1.26 4.18 0.75 1.51 2.1 3.09 3 3.5 0.9 0.41 1.86 0.3 2.14-0.25 0.27-0.55-0.2-2.01-1.06-3.25-0.97-1.41-1.44-3.84-1.25-6.5 0.21-2.92-0.09-4.25-0.96-4.25-0.7 0-1.67 1.15-2.15 2.57zm59.83 5.16c-1.05 1.25-1.8 2.42-1.66 2.6 0.14 0.18 1.77 0.96 3.64 1.75 1.86 0.78 4 2.66 4.75 4.17 0.75 1.51 1.36 3.65 1.36 4.75 0 1.11 0.56 1.85 1.25 1.67 0.69-0.18 1.36-2.19 1.5-4.5 0.21-3.45-0.23-4.61-2.5-6.7-1.51-1.4-3.31-2.52-4-2.5-0.69 0.01-1.51-0.77-1.84-1.74-0.53-1.61-0.76-1.57-2.5 0.5zm-33.88 2.27c-0.57 1.1-1.31 3.91-1.66 6.25-0.35 2.34-0.14 5.83 0.46 7.75 0.6 1.92 2.04 4.4 3.19 5.5 1.8 1.71 2.22 1.78 2.9 0.5 0.49-0.92 0.05-2.85-1.13-5-1.45-2.63-1.81-4.75-1.44-8.5 0.26-2.75 0.65-5.79 0.84-6.75 0.2-0.96-0.2-1.75-0.89-1.75-0.68 0-1.71 0.9-2.27 2zm8.97 2c0 0.55 1.12 1.23 2.5 1.5 1.48 0.3 3.11 1.72 4 3.5 0.82 1.65 1.5 4.58 1.5 6.5 0 2.44 0.45 3.5 1.5 3.5 0.91 0 1.73-1.29 2.08-3.25 0.32-1.79 0.32-4.49 0-6-0.32-1.51-1.82-3.67-3.33-4.78-1.51-1.12-3.99-2.02-5.5-2-1.51 0.01-2.75 0.48-2.75 1.03z"/>
		<path id="Path 4" class="s0" d="m238 322.66c-1.93 0.18-7.78 0.82-13 1.42-5.22 0.6-13.32 1.98-18 3.07-4.68 1.09-11.65 3.19-15.5 4.68-3.85 1.49-9.44 4.27-12.42 6.19-2.98 1.91-6.95 5.28-8.83 7.48-1.87 2.2-5.14 7.6-7.27 12-2.12 4.4-4.88 11.82-6.12 16.5-2.09 7.82-2.32 11.28-2.82 43.5-0.42 26.96-0.86 35.57-1.91 37.5-0.76 1.37-2.56 3.76-4 5.29-1.54 1.64-4.23 3.08-6.5 3.5-2.13 0.39-4.03 0.93-4.23 1.21-0.19 0.27 2.45 3.46 5.87 7.07 3.43 3.62 9.16 8.54 12.73 10.94 3.57 2.4 9.2 5.62 12.5 7.15 3.3 1.54 9.6 3.76 14 4.94 6.14 1.65 11.13 2.18 21.5 2.28 11.34 0.1 14.62-0.23 20.5-2.08 3.85-1.2 9.47-3.96 12.5-6.13 3.03-2.16 6.92-5.9 8.66-8.3 1.74-2.4 4.16-6.62 5.39-9.37 2.16-4.84 2.22-5.94 2.04-34.5-0.11-16.23 0.3-36.03 0.91-44 0.61-7.98 1.77-17.65 2.58-21.5 0.82-3.85 3.15-10.15 5.19-14 2.4-4.55 6.51-9.84 11.72-15.1 5.29-5.34 9.88-8.96 13.51-10.66 3.02-1.41 8.31-3.05 11.75-3.65 4.86-0.85 7.75-0.78 13 0.28 3.71 0.76 8.32 2.16 10.25 3.13 1.93 0.96 6.2 3.66 9.5 5.98 3.3 2.33 7.46 5.87 9.25 7.88 1.79 2 3.14 3.84 3 4.09-0.14 0.25-4.07-0.85-8.75-2.45-4.68-1.6-12.32-3.46-17-4.13-6.15-0.89-10.43-0.95-15.5-0.22-3.85 0.56-9.59 2.21-12.75 3.68-3.16 1.47-8.14 5.03-11.07 7.92-3.31 3.27-6.72 8.08-9.03 12.75-2.2 4.46-4.57 11.55-5.84 17.5-1.8 8.41-2.13 13.18-2.07 30 0.04 11 0.6 24.72 1.25 30.5 0.67 5.99 2.36 13.93 3.94 18.5 1.52 4.4 3.96 9.91 5.42 12.25 1.46 2.34 4.56 6.1 6.9 8.36 2.34 2.27 6.27 5.29 8.75 6.73 2.48 1.44 6.98 3.49 10 4.55 5.03 1.77 9.58 1.99 53.5 2.59 26.4 0.35 48.12 0.62 48.27 0.58 0.15-0.03-1.59-2.09-3.85-4.56-2.27-2.48-6.35-7.88-9.07-12-2.72-4.13-5.89-9.98-7.06-13-1.69-4.41-2.25-8.87-2.85-22.5-0.41-9.35-0.48-30.05-0.17-46 0.41-21.18 0.23-30.75-0.69-35.5-0.69-3.58-2.64-9.43-4.34-13-1.77-3.72-5.26-8.67-8.17-11.57-2.94-2.95-7.79-6.36-11.57-8.14-3.57-1.68-8.75-3.55-11.5-4.16-2.75-0.6-11.07-1.77-18.5-2.59-7.43-0.83-20.25-1.95-28.5-2.5-8.25-0.56-23.32-0.94-33.5-0.86-10.18 0.08-20.07 0.29-22 0.48z"/>
	</g>
</svg>