<svg version="1.2" xmlns="http://www.w3.org/2000/svg" viewBox="0 0 512 512" width="512" height="512">
	<title>philippines</title>
	<style>
		.s0 { fill: #0052b4 } 
		.s1 { fill: #d80027 } 
		.s2 { fill: #f0f0f0 } 
		.s3 { fill: #ffda44 } 
	</style>
	<g id="Background">
		<path id="Path 0" class="s0" d="m2 85.8c0 0.4 57.1 38.8 127 85.5l127 84.7h256v-171c-395.3 0-510 0.3-510 0.8z"/>
		<path id="Path 1" class="s1" d="m129 340.6c-69.6 46.4-126.9 84.9-127.4 85.4-0.7 0.7 87.9 1 254.7 1h255.7v-171l-256.5 0.1z"/>
		<path id="Path 2" class="s2" d="m0 255.8l0.1 170.7c197.2-131.4 254.5-169.8 254.7-170.3 0.1-0.4-56.7-38.7-126.3-85.2-69.6-46.5-126.5-84.8-126.5-85.2 0-0.5-0.4-0.8-1-0.8-0.7 0-1 57.6-1 170.8z"/>
		<path id="Path 3" class="s3" d="m21.9 126.2l-0.4 7.2c-11.3 3.5-13.4 4.6-12.5 5 0.8 0.3 4 1.4 7 2.4l5.5 1.9 1 14.5c6.2-8.6 8.2-11.2 8.5-11.2 0.3 0 3.2 0.9 6.5 2 3.3 1.1 6.2 1.8 6.5 1.5 0.3-0.2-1.2-2.7-3.2-5.5-2.1-2.7-3.8-5.3-3.8-5.8 0-0.4 1.5-2.8 3.5-5.5 1.9-2.6 3.5-5.2 3.5-5.7 0-0.6-2.7-0.1-6 1-3.3 1.1-6.3 2-6.7 2-0.5 0-2.4-2.3-4.3-5.1-1.9-2.8-3.8-5.3-4.1-5.5-0.3-0.3-0.8 2.8-1 6.8zm50.7 80.8c-1 8-2 14.7-2.2 15-0.3 0.3-6.6-0.7-14.2-2.2-7.5-1.6-13.9-2.6-14.2-2.3-0.3 0.2 2.5 5.9 6.2 12.5 3.8 6.6 6.8 12.3 6.8 12.8 0 0.4-5.8 3.4-13 6.7-7.1 3.3-12.9 6.2-12.9 6.5 0 0.3 5.8 3.2 12.9 6.5 7.2 3.3 13 6.3 13 6.7 0 0.5-3 6.2-6.8 12.8-3.7 6.6-6.5 12.3-6.2 12.5 0.3 0.3 6.7-0.7 14.2-2.3 7.6-1.5 13.9-2.5 14.2-2.2 0.2 0.3 1.2 7 2.2 15l1.7 14.5 20.9-22 20.5 22c0.9-6.2 1.8-12.8 2.5-18.8 0.9-7.2 1.7-10.7 2.5-10.7 0.7 0 7.3 1.1 14.5 2.5 7.3 1.4 13.4 2.4 13.4 2.3 0.1-0.2-2.9-5.9-6.7-12.8-3.8-6.9-6.9-12.7-6.9-13 0-0.3 5.9-3.2 13-6.5 7.2-3.3 13-6.2 13-6.5 0-0.3-5.8-3.2-13-6.5-7.1-3.3-13-6.2-13-6.5 0-0.3 3.1-6.1 6.9-13 3.8-6.9 6.8-12.6 6.7-12.8 0-0.1-6.1 0.9-13.4 2.3-7.2 1.4-13.8 2.5-14.5 2.5-0.8 0-1.6-3.5-2.5-10.7-0.7-6-1.6-12.6-1.9-14.8l-0.6-4-20.5 22-20.9-22zm133 35.3c-2.2 3.2-4.3 5.8-4.5 5.7-0.3 0-3.2-0.9-6.5-2-3.3-1.1-6.1-2-6.3-2-0.1 0-0.3 0.3-0.3 0.8 0 0.4 1.6 2.8 3.5 5.5 2 2.6 3.5 5.3 3.5 6 0 0.6-1.6 3.3-3.5 6-1.9 2.6-3.2 4.9-2.9 5.2 0.2 0.3 3.3-0.4 6.7-1.5 3.5-1.1 6.3-1.9 6.4-1.7 0.1 0.1 2.1 2.7 4.3 5.7 2.8 3.8 4.2 5 4.5 4 0.3-0.8 0.6-4.2 0.8-7.4l0.3-6c9.7-3.2 12.5-4.3 12.5-4.6 0-0.3-2.8-1.4-6.1-2.5-3.4-1.1-6.5-2.4-7-3-0.4-0.6-0.9-3.9-1.1-7.4l-0.3-6.5zm-183.6 119.8l-0.4 7.1c-11.4 3.6-13.5 4.7-12.5 5.1 0.8 0.4 3.9 1.5 7 2.5l5.5 1.9 1 14.5c6.2-8.7 8.2-11.2 8.5-11.2 0.2 0 3.2 0.8 6.5 1.9 3.3 1.2 6.2 1.8 6.5 1.6 0.2-0.3-1.3-3-3.5-6l-4-5.5c4.6-6.4 6.3-8.4 6.7-8.6 0.4-0.3 0.8-1.1 0.8-1.9 0-1.4-0.6-1.4-4.8 0-2.6 0.8-5.6 1.7-6.7 2-1.6 0.4-2.8-0.6-5.5-4.6-2-2.8-3.8-5.3-4.1-5.6-0.4-0.2-0.8 2.8-1 6.8z"/>
	</g>
</svg>