<svg version="1.2" xmlns="http://www.w3.org/2000/svg" viewBox="0 0 804 206" width="804" height="206">
	<style>
		.s0 { fill: #0261b5 } 
		.s1 { fill: #1f222c } 
	</style>
	<g id="Background">
		<path id="Path 0" fill-rule="evenodd" class="s0" d="m104.5 0.15c1.1-0.06 6.28 0.33 11.5 0.88 5.22 0.55 12.88 1.92 17 3.05 4.13 1.13 11.1 3.74 15.5 5.79 4.4 2.06 10.93 5.73 14.5 8.15 3.57 2.43 9.69 7.58 13.58 11.45 3.9 3.86 8.9 9.73 11.12 13.03 2.21 3.3 5.61 9.15 7.55 13 1.93 3.85 4.72 10.83 6.19 15.5 1.47 4.67 3.19 13 3.82 18.5 0.86 7.52 0.86 12.6-0.01 20.5-0.63 5.78-2.34 14.55-3.78 19.5-1.45 4.95-4.45 12.6-6.66 17-2.22 4.4-5.72 10.47-7.78 13.5-2.06 3.03-6.17 8.17-9.14 11.43-2.96 3.26-8.54 8.44-12.39 11.51-3.85 3.07-9.93 7.23-13.5 9.23-3.57 2.01-9.99 5.04-14.25 6.74-4.26 1.7-12.36 4.03-18 5.19-8.44 1.72-12.54 2-23.25 1.58-8.4-0.33-16.01-1.26-21.5-2.64-4.67-1.18-12.77-4.17-18-6.66-5.22-2.49-12.2-6.47-15.5-8.84-3.3-2.38-9.03-7.41-12.72-11.18-3.7-3.77-8.04-8.66-9.65-10.86-1.6-2.2-4.52-6.93-6.49-10.5-1.97-3.57-4.94-10.21-6.61-14.75-1.67-4.54-3.75-12.64-4.63-18-1.13-6.88-1.44-12.99-1.04-20.75 0.33-6.49 1.54-14.9 2.96-20.5 1.32-5.22 4.17-13.33 6.33-18 2.17-4.67 6.39-12.07 9.4-16.42 3-4.36 8.83-11.28 12.95-15.38 4.13-4.1 10.88-9.69 15-12.42 4.13-2.73 10.76-6.5 14.75-8.37 3.99-1.88 11.19-4.55 16-5.93 4.81-1.39 12.35-2.91 16.75-3.37 4.4-0.46 8.9-0.9 10-0.96zm-36.5 13.91c-4.12 1.15-10.87 3.84-15 5.98-4.12 2.15-10.42 6.3-14 9.23-3.57 2.93-8.7 8.24-11.39 11.78-2.69 3.55-6.63 10.05-8.74 14.45-2.12 4.4-4.76 11.6-5.88 16-1.11 4.4-2.3 12.28-2.64 17.5-0.36 5.59-0.11 13.21 0.61 18.5 0.67 4.95 2.32 12.83 3.67 17.5 1.34 4.68 4.44 12.55 6.88 17.5 2.44 4.95 7.48 12.79 11.21 17.42 3.73 4.64 10.16 11.05 14.28 14.26 4.13 3.21 10.88 7.58 15 9.72 4.13 2.13 10.88 5.08 15 6.54 4.13 1.47 11.33 3.32 16 4.12 4.68 0.8 13.22 1.45 19 1.44 6.5-0.02 14.12-0.78 20-2 6.41-1.34 12.75-3.57 19.5-6.87 7.6-3.72 11.89-6.66 17.89-12.26 4.35-4.05 9.72-10.07 11.94-13.37 2.23-3.3 5.31-8.81 6.86-12.25 1.55-3.44 3.7-9.96 4.79-14.5 1.1-4.54 2.27-12.08 2.62-16.75 0.35-4.67 0.13-12.55-0.47-17.5-0.61-4.95-2.03-12.6-3.16-17-1.14-4.4-4.25-12.5-6.93-18-2.67-5.5-7.08-12.92-9.79-16.5-2.71-3.58-7.59-8.93-10.84-11.89-3.25-2.97-8.61-7.22-11.91-9.44-3.3-2.23-9.15-5.51-13-7.29-3.85-1.77-10.82-4.34-15.5-5.7-4.67-1.36-12.55-2.96-17.5-3.57-4.95-0.61-11.03-1.05-13.5-0.98-2.47 0.07-7.42 0.51-11 0.98-3.57 0.48-9.87 1.8-14 2.95zm718.56 10.16c3.48 0.19 6.35 1.14 9.25 3.03 2.38 1.56 5.05 4.48 6.19 6.75 1.2 2.4 2 6 2 9 0 2.92-0.79 6.56-1.89 8.75-1.05 2.06-2.73 4.51-3.75 5.44-1.02 0.93-3.55 2.39-5.61 3.25-2.06 0.86-5.55 1.56-7.75 1.56-2.2 0-5.69-0.84-7.75-1.86-2.06-1.03-4.99-3.28-6.5-5-1.51-1.73-3.2-4.83-3.74-6.89-0.55-2.06-1-4.42-1-5.25 0-0.83 0.45-3.19 1-5.25 0.54-2.06 2.23-5.18 3.74-6.92 1.51-1.75 4.55-4.01 6.75-5.04 2.65-1.23 5.71-1.76 9.06-1.57zm-12.78 8.83c-0.99 1.35-2.2 4.03-2.68 5.95-0.52 2.03-0.52 5.18 0 7.5 0.48 2.2 1.9 5.07 3.14 6.38 1.24 1.31 3.72 2.99 5.51 3.75 1.79 0.75 4.49 1.37 6 1.37 1.51 0.01 4.33-0.83 6.25-1.85 1.93-1.02 4.53-3.38 5.78-5.25 1.38-2.07 2.27-4.87 2.25-7.15-0.02-2.06-0.82-5.39-1.78-7.4-0.96-2-2.99-4.48-4.5-5.5-1.51-1.02-4.66-2.08-7-2.36-2.39-0.29-5.76 0.05-7.71 0.79-1.91 0.73-4.28 2.42-5.26 3.77z"/>
		<path id="Path 1" fill-rule="evenodd" class="s1" d="m249 139h29v3c0 2.93-0.11 3-10 3l-0.5 17.5-7.5 0.5v-18h-5.5c-5.44 0-5.5-0.03-5.5-3zm31 0h26v6h-9.5c-7.78 0-9.5 0.27-9.5 1.5 0 1.22 1.67 1.5 9 1.5 8.93 0 9 0.02 9 2.5 0 2.48-0.07 2.5-9 2.5-8.33 0-9 0.15-9 2 0 1.86 0.67 2 19 2v6h-26zm44.12 0c8.34 0 11.23 0.35 12.38 1.5 0.82 0.82 1.5 2.85 1.5 4.5 0 2.76-0.28 3-3.5 3-2.22 0-3.68-0.55-4-1.5-0.39-1.17-1.98-1.45-14-1l-0.28 5c-0.18 3.27 0.16 5.25 1 5.73 0.7 0.41 3.87 0.75 7.03 0.75 4.76 0.02 5.92-0.32 6.75-1.98 0.74-1.48 1.84-1.94 4.25-1.75 3.05 0.23 3.24 0.47 3.03 3.75-0.12 1.93-0.7 3.95-1.3 4.5-0.59 0.55-6.44 1-12.99 1-10.11 0-12.19-0.27-13.7-1.79-1.42-1.41-1.79-3.44-1.79-9.83 0-7.28 0.23-8.24 2.37-9.97 2.01-1.62 4.04-1.91 13.25-1.91zm16.82 0h8.06v8h16v-8h8v24h-8v-9h-16v9l-7.5-0.5zm35 0l13.56 0.07 5.5 7.94c3.03 4.37 5.84 7.73 6.25 7.47 0.42-0.27 0.75-3.85 0.75-15.48h7v24l-12.4-0.5-12.1-16.94-0.5 17.44-7.5-0.5zm52.64 0c9.71 0 12.76 0.33 13.93 1.5 0.82 0.82 1.78 3.19 2.13 5.25 0.35 2.06 0.39 6 0.1 8.75-0.39 3.68-1.15 5.47-2.88 6.79-1.94 1.48-4.28 1.79-13.35 1.76-8.1-0.03-11.6-0.43-13.25-1.54-1.6-1.07-2.43-2.89-2.87-6.26-0.33-2.61-0.33-6.66 0-9 0.34-2.34 1.33-4.93 2.19-5.75 1.22-1.17 4.32-1.5 14-1.5zm-8.74 12.17l0.17 4.83c6.59 0.93 10.41 0.93 12.75 0.6l4.25-0.6-0.5-10.5c-11.7-0.45-15.49-0.26-15.97 0.13-0.47 0.39-0.79 2.88-0.7 5.54zm28.17-12.17h8v17h16v7h-24zm42.47-0.03c11.02-0.03 12.2 0.14 14.03 2.1 1.65 1.77 2 3.52 2 10.12 0 7.33-0.21 8.15-2.5 9.94-2.14 1.67-4.11 1.95-13.5 1.95-9.4 0-11.37-0.28-13.5-1.95-2.33-1.82-2.5-2.56-2.5-10.62 0-7.49 0.27-8.86 1.97-10.09 1.44-1.03 5.25-1.43 14-1.45zm-8.64 12.2l0.17 4.83c7.36 0.98 11.07 0.87 13 0.38 3.2-0.8 3.52-1.22 3.76-4.88 0.15-2.23-0.29-4.57-1-5.29-0.79-0.82-3.72-1.28-7.85-1.25-3.62 0.02-6.95 0.34-7.41 0.71-0.46 0.36-0.76 2.84-0.67 5.5zm42.87-12.18c7.97 0 11.39 0.39 13.05 1.5q2.25 1.51 2.25 4.51c0 2.76-0.28 3-3.5 3-2.22 0-3.68-0.55-4-1.5-0.4-1.18-2.04-1.45-15-1v11l7.75 0.25c6.33 0.2 7.75-0.02 7.75-1.25 0-1.11-1.17-1.5-4.5-1.5-4.14 0-4.5-0.2-4.5-2.5 0-2.46 0.13-2.5 16-2.5l-0.25 5.73c-0.22 4.97-0.58 5.88-2.75 6.98-1.52 0.77-6.53 1.27-12.75 1.28-9.61 0.01-10.41-0.15-12.75-2.49-2.21-2.21-2.5-3.33-2.46-9.55 0.04-6.06 0.38-7.38 2.46-9.5 2.26-2.3 3.07-2.45 13.2-2.46zm19.3 0.01h7v24h-7zm11 0h26v6h-9.5c-7.78 0-9.5 0.27-9.5 1.5 0 1.22 1.66 1.5 9 1.5 8.93 0 9 0.02 9 2.5 0 2.48-0.07 2.5-9 2.5-8.34 0-9 0.15-9 2 0 1.86 0.66 2 19 2v6h-26zm42.72 0c7.8 0 10.64 0.36 11.78 1.5 0.82 0.82 1.5 2.63 1.5 4 0 2.11-0.47 2.5-3 2.5-1.65 0-3.74-0.68-4.64-1.5-0.91-0.83-3.48-1.49-5.75-1.48-2.26 0-4.79 0.45-5.61 1-1.34 0.87-1.34 1.09 0 1.96 0.82 0.55 4.76 1 8.75 1 5.9 0.02 7.62 0.39 9.25 2.02 1.24 1.24 2 3.33 2 5.5 0 2.17-0.76 4.26-2 5.5-1.8 1.79-3.14 1.97-13.08 1.75-9.78-0.22-11.26-0.49-12.52-2.25-0.79-1.1-1.43-2.79-1.42-3.75 0.01-1.2 0.81-1.75 2.52-1.75 1.37 0 2.5-0.22 2.5-0.5 0-0.28-1.2-1.74-2.66-3.25-2.3-2.37-2.55-3.23-1.86-6.25 0.44-1.92 1.51-4.06 2.38-4.75 1.04-0.82 5.14-1.25 11.86-1.25zm-7.46 16.79c0.76 0.8 3.63 1.28 7.49 1.25 3.44-0.02 6.47-0.49 6.75-1.04 0.27-0.55-0.06-1.19-0.75-1.42-0.69-0.23-4.05-0.63-7.47-0.9-3.41-0.26-6.45-0.19-6.74 0.17-0.29 0.36 0.03 1.23 0.72 1.94z"/>
		<path id="Path 2" fill-rule="evenodd" class="s0" d="m252 41l35.75 0.02c19.66 0.02 37.55 0.45 39.75 0.97 2.2 0.52 5.13 1.78 6.5 2.79 1.38 1.02 3.36 3.62 4.41 5.78 1.49 3.08 1.91 6.11 1.89 13.94-0.01 7.04-0.49 11.04-1.62 13.5-0.88 1.92-2.76 4.17-4.17 5-1.41 0.83-2.55 1.72-2.53 2 0.02 0.28 1.38 1.29 3.03 2.25q2.99 1.75 3.98 5.5c0.55 2.06 1 7.46 1.01 20.25l-21.5 0.02-0.79-7.26c-0.51-4.58-1.43-7.92-2.5-9.04-1.53-1.6-3.79-1.78-41.21-1.72v18h-22zm22 35c37.22 0 41.14-0.27 42.43-1.5 0.98-0.94 1.58-3.27 1.6-6.25 0.03-3.28-0.52-5.28-1.75-6.47-1.56-1.52-4.23-1.73-22.03-1.75l-20.25-0.03zm94.5-34.9l10 12.51c5.5 6.89 10.68 13.12 11.5 13.85 1.29 1.15 2.97-0.57 23-26.46h13.5c8 0 13.7 0.41 14 1 0.27 0.55-8.04 11.01-37.44 45.5l-0.06 25.5h-23l-0.1-25.5-19.95-22.25c-10.97-12.24-19.7-22.7-19.4-23.25 0.33-0.6 6.1-0.98 27.95-0.9zm75.5-0.1h38l18.5 26.5c10.18 14.58 18.84 26.5 19.25 26.5 0.41 0 0.71-11.92 0.58-53h22.67v72l-38.5-0.11-18.5-26.43c-10.18-14.54-18.84-26.44-19.25-26.45-0.41 0-0.71 11.8-0.56 52.49l-22.19 0.5zm140.5 0.05l34-0.02 18.25 34.99c10.04 19.24 18.25 35.43 18.25 35.98 0 0.61-4.76 1.01-24.5 1.04l-6-12.08-46.5 0.04-6 12-12.25-0.25c-6.74-0.14-12.25-0.62-12.25-1.07 0-0.46 8.33-16.53 18.5-35.73zm2.75 42.03c-0.14 0.53 5.9 0.92 14.25 0.92h14.5c-11.15-22.31-12.93-25.01-14.51-25.01-1.55 0.01-3.38 2.66-8 11.59-3.29 6.37-6.1 11.99-6.24 12.5zm70.75-42.08l38.5 0.07 18.5 26.47c10.17 14.56 18.95 26.47 19.5 26.47 0.65-0.01 0.83-9.09 0-52.51l22.5-0.5v72h-38l-18.5-26.5c-10.17-14.58-18.95-26.5-19.5-26.5-0.66 0-0.75 9 0.5 53h-23.5zm-545-16.56c8.96 0.27 14.62 0.99 20 2.55 4.12 1.2 10.81 3.83 14.85 5.85 4.05 2.01 10.47 6.13 14.27 9.16 3.8 3.02 9.43 8.65 12.5 12.5 3.08 3.85 7.35 10.6 9.49 15 2.15 4.4 4.86 11.6 6.04 16 1.62 6.07 2.15 11.02 2.19 20.5 0.04 9.83-0.42 14.26-2.14 20.75-1.21 4.54-3.46 11.06-5 14.5-1.54 3.44-5.25 9.81-8.25 14.16-3 4.35-8.68 10.87-12.62 14.5-3.95 3.62-9.57 8.05-12.5 9.83-2.93 1.78-8.93 4.79-13.33 6.69-4.4 1.89-11.83 4.21-16.5 5.14-6.32 1.26-11.58 1.57-20.5 1.2-10.01-0.41-13.57-1.02-21.5-3.68-5.22-1.76-12.42-4.92-16-7.04-3.58-2.12-8.89-5.81-11.82-8.2-2.93-2.39-7.81-7.5-10.85-11.35-3.04-3.85-7.29-10.6-9.44-15-2.14-4.4-4.85-11.6-6.01-16-1.57-5.93-2.13-11.11-2.17-20-0.03-8.15 0.5-14.25 1.68-19 0.94-3.85 2.89-9.93 4.32-13.5 1.43-3.58 4.44-9.53 6.69-13.23 2.26-3.71 6.37-9.33 9.15-12.5 2.78-3.18 7.73-7.85 11-10.39 3.27-2.55 8.87-6.24 12.45-8.22 3.57-1.97 9.2-4.53 12.5-5.69 3.3-1.16 8.92-2.74 12.5-3.51 4.31-0.93 10.71-1.27 19-1.02zm-37.5 13.48c-3.3 1.17-8.44 3.57-11.41 5.35-2.98 1.78-8.49 6.27-12.25 9.98-5.13 5.06-7.84 8.82-10.83 15-2.19 4.54-4.68 10.95-5.52 14.25-0.84 3.3-1.8 9.82-2.12 14.5-0.41 5.8-0.09 11.44 1.02 17.75 0.88 5.09 2.98 12.96 4.66 17.5 1.67 4.54 4.71 10.94 6.75 14.23 2.03 3.29 5.95 8.42 8.7 11.39 2.75 2.98 7.7 7.34 11 9.7 3.3 2.36 9.37 5.87 13.5 7.8 4.12 1.93 11.55 4.47 16.5 5.66 6.46 1.54 12.1 2.13 20 2.11 7.87-0.03 13.28-0.64 19-2.14 4.4-1.15 11.14-3.76 14.98-5.8 4.19-2.22 9.8-6.49 14.07-10.7 5.39-5.32 8.09-9.04 11.26-15.5 2.29-4.68 4.86-11.2 5.7-14.5 0.84-3.3 1.8-9.83 2.12-14.5 0.41-5.8 0.09-11.44-1.02-17.75-0.88-5.09-2.98-12.96-4.66-17.5-1.67-4.54-4.57-10.73-6.43-13.75-1.87-3.03-5.78-8.16-8.71-11.4-2.92-3.25-8.01-7.83-11.31-10.18-3.3-2.36-9.38-5.86-13.5-7.79-4.13-1.93-11.33-4.43-16-5.56-6.26-1.51-11.53-2.03-20-1.95-6.33 0.05-13.3 0.46-15.5 0.89-2.2 0.44-6.7 1.75-10 2.91zm702.5-4.92h6c5.39 0 6.21 0.28 8.03 2.75 1.28 1.73 1.79 3.49 1.39 4.75-0.35 1.1-1.24 2.67-1.98 3.5-1.12 1.26-1.03 2.09 0.61 5.25 1.84 3.53 1.85 3.79 0.2 4.36-0.96 0.33-2.31 0.33-3 0-0.69-0.34-1.92-2.19-2.75-4.11-0.83-1.93-1.95-3.5-2.5-3.5-0.55 0-1.11 1.69-1.25 3.75-0.2 3.06-0.66 3.8-2.5 4-2.21 0.25-2.25 0.05-2.25-10.25zm7.5 8c1.56 0 2.5-0.57 2.5-1.5 0-0.83-0.67-1.73-1.5-2-0.83-0.28-1.95-0.5-2.5-0.5-0.55 0-1 0.9-1 2 0 1.47 0.67 2 2.5 2zm-664.5 18.64c3.58 0.26 8.97 1.16 12 2.01 3.03 0.84 8.43 3.05 12 4.91 3.57 1.87 8.94 5.76 11.92 8.67 2.98 2.9 6.83 7.52 8.56 10.27 1.74 2.75 4.11 7.25 5.27 10 1.17 2.75 2.66 8.37 3.31 12.5 0.67 4.31 0.9 10.47 0.52 14.5-0.36 3.85-1.77 10.15-3.13 14-1.35 3.85-3.92 9.39-5.71 12.31-1.78 2.92-5.82 7.87-8.97 11-3.15 3.13-8.55 7.39-12 9.48-3.45 2.08-9.2 4.7-12.77 5.82-3.57 1.12-9.65 2.28-13.5 2.59-3.85 0.31-10.15 0.04-14-0.59-4.2-0.68-10.4-2.77-15.5-5.22-6.63-3.18-10.04-5.65-15.5-11.24-4.42-4.51-8.18-9.55-10.2-13.65-1.76-3.58-3.94-9.65-4.85-13.5-1.18-5.01-1.52-9.71-1.17-16.5 0.33-6.54 1.22-11.52 2.86-16 1.31-3.58 3.95-9.11 5.87-12.31 1.92-3.2 5.74-8.11 8.49-10.93 2.75-2.81 7.7-6.84 11-8.96 3.3-2.12 8.92-4.81 12.5-5.98 3.58-1.17 8.75-2.47 11.5-2.89 2.75-0.42 7.92-0.56 11.5-0.29zm-32 13.07c-2.47 1.18-6.92 4.32-9.88 6.97-2.96 2.65-6.54 6.84-7.96 9.32-1.42 2.47-3.38 7.09-4.37 10.25-0.98 3.16-1.79 8.79-1.8 12.5 0 3.71 0.69 9.45 1.53 12.75 0.84 3.3 2.94 8.92 4.66 12.5 2.2 4.55 5.57 8.93 11.23 14.59 5.59 5.59 10.1 9.07 14.59 11.27 3.58 1.75 8.97 3.84 12 4.65 3.03 0.81 8.87 1.46 13 1.45 4.12 0 9.53-0.48 12-1.06 2.47-0.58 6.91-2.25 9.86-3.73 2.95-1.47 7.72-5.15 10.6-8.17 2.88-3.03 6.37-7.75 7.76-10.5 1.39-2.75 3.04-7.36 3.66-10.25 0.61-2.89 1.12-7.5 1.12-10.25 0-2.75-0.5-7.36-1.12-10.25-0.62-2.89-2.46-8.18-4.09-11.75-1.63-3.58-5.06-9.14-7.62-12.36-2.57-3.23-7.37-7.91-10.67-10.4-3.3-2.49-8.47-5.63-11.5-6.98-3.03-1.36-8.42-3.08-12-3.84-3.58-0.76-8.53-1.36-11-1.32-2.47 0.04-6.97 0.61-10 1.26-3.03 0.66-7.53 2.16-10 3.35zm36 16.61c5.34 0.22 9.09 1.03 13 2.8 3.03 1.36 7.5 4.48 9.95 6.93 2.45 2.45 5.6 6.92 7 9.95 2.17 4.68 2.55 6.92 2.55 15 0 8.3-0.35 10.22-2.75 15.25-1.51 3.16-4.72 7.89-7.13 10.5-2.43 2.63-7 6.03-10.25 7.62-3.23 1.58-8.34 3.24-11.37 3.7-3.03 0.45-7.75 0.45-10.5 0-2.75-0.46-7.03-1.83-9.5-3.06-2.47-1.22-6.45-4.08-8.83-6.36-2.39-2.28-5.38-6.18-6.66-8.65-1.27-2.48-2.81-7.2-3.42-10.5-0.8-4.38-0.8-7.62 0.01-12 0.61-3.3 2.18-8.14 3.5-10.75 1.32-2.61 4.09-6.6 6.15-8.87 2.06-2.27 5.78-5.29 8.25-6.71 2.47-1.42 6.3-3.16 8.5-3.87 2.27-0.73 7.24-1.15 11.5-0.98zm-23 12.47c-1.38 1.04-3.85 3.81-5.5 6.14-2.74 3.89-3 4.95-3 12.41 0.01 7.19 0.36 8.8 3 13.55 1.65 2.96 5.47 7.61 8.5 10.32 3.12 2.8 7.88 5.84 11 7.02q5.5 2.08 12.5 2.08c5.03 0 8.13-0.56 11-2.01 2.2-1.11 5.7-4 7.77-6.41 2.1-2.44 4.05-5.95 4.39-7.89 0.34-1.93 0.41-6.2 0.16-9.5q-0.46-6-3.14-10.75c-1.47-2.61-4.59-6.62-6.93-8.9-2.34-2.29-6.95-5.41-10.25-6.94-3.3-1.53-8.47-3.02-11.5-3.32-3.36-0.33-7.44 0.01-10.5 0.88-2.75 0.78-6.13 2.27-7.5 3.32zm24.75 14.3c1.24-0.05 3.94 0.61 6 1.47 2.06 0.86 4.6 2.32 5.64 3.25 1.04 0.93 2.72 3.49 3.73 5.69 1.01 2.2 1.85 5.46 1.86 7.25 0.01 1.79-0.88 5.05-1.98 7.25-1.1 2.2-3.46 4.88-5.25 5.95-1.79 1.07-3.59 1.74-4 1.5-0.41-0.25-0.47-2.81-0.12-5.7 0.47-3.87 0.21-6.1-1-8.5-0.9-1.79-2.87-4.19-4.38-5.35-2.26-1.72-3.85-2.03-9-1.75-4.51 0.25-6.24 0-6.25-0.9 0-0.69 1.27-2.82 2.83-4.75 1.63-2.01 4.29-3.88 6.25-4.41 1.88-0.5 4.43-0.95 5.67-1z"/>
	</g>
</svg>