<svg version="1.2" xmlns="http://www.w3.org/2000/svg" viewBox="0 0 600 600" width="600" height="600">
	<style>
		.s0 { fill: #104706 } 
		.s1 { fill: #c59e37 } 
		.s2 { fill: #c7a133 } 
		.s3 { fill: #c7a137 } 
		.s4 { fill: #fffcff } 
		.s5 { fill: #fdfffb } 
		.s6 { fill: #fefefc } 
		.s7 { fill: #fefeff } 
	</style>
	<g id="Background">
		<path id="Path 0" class="s0" d="m329.22 240.25c-2.23 5.64-4.76 11.94-5.63 14-1.57 3.69-1.56 3.75 0.66 3.76 1.56 0.01 2.63-0.91 3.5-3 1.18-2.83 1.58-3.01 6.75-3.01 5.21 0 5.53 0.14 5.99 2.75 0.31 1.73 1.33 3.01 2.75 3.45 1.24 0.39 2.48 0.5 2.76 0.24 0.27-0.25-2.06-6.75-5.18-14.45-3.12-7.69-6.1-13.99-6.62-13.99-0.51 0-2.76 4.61-4.98 10.25zm72.55-7.58c-0.37 1.01-1.59 6.67-2.72 12.58-1.13 5.91-2.05 11.43-2.05 12.25 0 0.83 0.89 1.5 2 1.5 1.24 0 2-0.67 2.01-1.75 0-0.96 0.48-4.68 1.07-8.25 0.58-3.57 1.36-6.12 1.74-5.65 0.37 0.47 2.07 4.3 3.76 8.5l3.09 7.65c5.29-12.78 7.13-16.16 7.5-15.75 0.37 0.41 1.05 3.9 1.5 7.75 0.72 6.05 1.1 7 2.83 7 1.71 0 1.95-0.56 1.66-4-0.18-2.2-1.22-8.28-2.29-13.5-1.08-5.22-2.16-9.72-2.39-10-0.23-0.28-1.49 1.97-2.79 5-1.3 3.03-3 7.19-3.78 9.26-0.78 2.07-1.75 3.76-2.16 3.75-0.41 0-2.38-3.95-4.37-8.76-1.99-4.81-3.69-8.9-3.78-9.08-0.08-0.17-0.46 0.5-0.83 1.5zm-235.77 36.58c0 0.41 93.94 0.64 208.75 0.51 114.81-0.14 175-0.36 133.75-0.5-41.25-0.14-135.19-0.37-208.75-0.51-73.56-0.14-133.75 0.09-133.75 0.5zm20 11.62c-1.38 0.41-4.19 1.74-6.25 2.94-2.72 1.59-4.49 3.78-6.42 7.94-2.21 4.74-2.58 6.71-2.17 11.25 0.31 3.34 1.45 7.03 2.92 9.4 1.35 2.18 6.17 6.66 10.92 10.14 4.67 3.43 10.07 7.89 12 9.91 3.08 3.23 3.55 4.41 3.88 9.86 0.36 5.86 0.2 6.4-3 10.02-2.12 2.39-4.87 4.23-7.38 4.92-2.95 0.81-5.24 0.79-8.75-0.08-2.61-0.64-6.35-2.41-8.3-3.92l-3.54-2.75 0.09 18c8.14 0.1 12.52 0.49 15 0.93 3.22 0.58 6.13 0.35 10.25-0.81 3.71-1.05 7.22-2.95 9.91-5.37 2.28-2.06 5.2-6 6.49-8.75 1.8-3.85 2.33-6.72 2.32-12.5-0.01-5.18-0.59-8.74-1.87-11.5-1.02-2.2-3.37-5.53-5.23-7.39-1.85-1.87-6.93-5.92-11.28-9-4.36-3.09-8.76-6.73-9.79-8.11-1.03-1.37-1.85-3.51-1.83-4.75 0.01-1.24 0.48-3.15 1.03-4.25 0.55-1.1 2.35-2.68 4-3.5 2.05-1.02 4.19-1.28 6.75-0.8 2.06 0.39 4.99 1.74 6.5 3l2.75 2.3v-16.5c-5.04-0.05-8.75-0.37-11.5-0.73-2.75-0.36-6.13-0.32-7.5 0.1zm71.97 0.94c-3.59 0.93-9.15 3.26-12.36 5.19-3.21 1.93-7.62 5.52-9.8 8-2.18 2.48-5.39 7.42-7.14 10.98-3.05 6.24-3.17 6.95-3.17 19.09v12.61c6.66 13.02 9.67 17.13 13 20.09 2.75 2.46 7.02 5.49 9.5 6.74 2.47 1.26 7.2 3.07 10.5 4.04 5.34 1.56 7.1 1.62 16 0.54 5.5-0.67 10.79-0.96 11.75-0.65 1.57 0.5 1.75-0.3 1.75-7.94 0-4.68-0.11-8.5-0.25-8.5-0.14 0.01-2.95 1.12-6.25 2.48-4.19 1.73-7.96 2.49-12.5 2.52-5.43 0.04-7.65-0.51-13.5-3.37-4.37-2.13-8.17-4.87-10.11-7.27-1.72-2.12-3.8-5.21-4.63-6.86-0.83-1.65-1.79-4.01-2.13-5.25l-0.63-2.25h36v-15c-27.13 0-35.2-0.34-35.44-0.75-0.25-0.41 0.84-3 2.4-5.75 1.57-2.75 4.35-6.53 6.19-8.41 1.84-1.87 5.82-4.52 8.85-5.9 3.02-1.37 7.98-2.69 11-2.95 4.21-0.34 7.25 0.16 13 2.17 4.12 1.44 7.61 2.61 7.75 2.6 0.14 0 0.14-3.79 0-8.41-0.24-7.95-0.36-8.36-2.21-7.53-1.24 0.55-4.69 0.33-9.25-0.6-4.01-0.81-8.3-1.44-9.54-1.41-1.24 0.03-5.19 0.82-8.78 1.75zm136.03-0.7c-2.48 0.53-6.41 0.83-8.75 0.68l-4.25-0.29c0.03 73.65-0.27 84.31-1.18 85.25-0.97 1 0.44 1.25 6.98 1.25 7.87 0 8.16-0.08 7.2-2-0.55-1.1-1.01-9.31-1.02-18.25l-0.01-16.25c5.84 0.92 9.71 2.27 12.38 3.59 2.67 1.33 7.24 4.89 10.16 7.91 2.91 3.02 6.01 7.19 6.89 9.25 0.88 2.06 1.7 5.44 1.83 7.5 0.12 2.06-0.1 4.76-0.5 6-0.72 2.21-0.59 2.25 7.52 2.23l8.25-0.02c-3.23-12.76-5.37-18.94-6.85-21.96-1.47-3.02-4.36-7.36-6.41-9.62-2.06-2.27-5.32-5.08-7.24-6.25-1.93-1.17-4.51-2.12-5.75-2.13-1.24 0-2.26-0.34-2.27-0.75-0.02-0.41 1.33-1.09 3-1.5 1.66-0.41 4.4-1.99 6.09-3.5 2.23-2 3.46-4.4 4.49-8.75 1.06-4.5 1.17-7.31 0.43-11.25-0.55-2.89-1.61-6.49-2.37-8-0.77-1.51-2.9-4.25-4.75-6.09-1.86-1.83-4.95-4.15-6.87-5.15-1.93-0.99-5.52-2.04-8-2.33-2.48-0.3-6.52-0.1-9 0.43zm87-0.11c-3.02 0.35-8.43 2-12 3.67-3.58 1.66-8.91 5.23-11.86 7.93q-5.36 4.9-8.78 11.9c-1.88 3.85-3.92 9.93-4.54 13.5-0.83 4.83-0.82 8.36 0.03 13.75 0.63 3.99 2.37 9.84 3.86 13 1.49 3.16 5.2 8.27 8.25 11.35 3.05 3.07 7.79 6.74 10.54 8.15 2.75 1.4 7.92 3.31 11.5 4.25 5.7 1.49 7.55 1.55 15 0.46 4.67-0.69 9.51-0.96 10.75-0.6 2.21 0.63 2.25 0.48 2.29-8.11 0.04-7.09-0.2-8.53-1.25-7.59-0.71 0.63-3.99 1.93-7.29 2.88-4.28 1.23-7.86 1.55-12.5 1.14-3.83-0.34-8.55-1.58-11.5-3.03-2.75-1.35-6.71-4.41-8.79-6.8-2.09-2.39-4.79-6.37-6-8.85-1.75-3.57-2.21-6.26-2.21-13 0-7.1 0.41-9.3 2.5-13.38 1.37-2.68 4.52-6.91 7-9.39 2.48-2.49 6.52-5.43 9-6.52 2.48-1.1 7.2-2.21 10.5-2.47 4.56-0.35 7.72 0.1 13.17 1.9l7.17 2.36c0.63-15.51 0.5-16.23-1.02-15.5-0.93 0.45-3.85 0.44-6.5-0.01-2.65-0.45-6.4-1-8.32-1.22-1.93-0.22-5.98-0.12-9 0.23zm-153.66 9.19c-2.27 5.12-9.1 20.79-15.16 34.81-6.07 14.02-12 27.98-13.18 31-1.19 3.02-3.02 6.96-4.08 8.75l-1.92 3.25 16.5 0.04c0.96-5.07 2.53-9.37 4.12-12.83l2.88-6.28 32 0.01c5.08 11.28 6.54 15.57 6.52 16.81-0.02 2.17 0.31 2.25 8.98 2.25h9c-4.2-7.36-7.53-14.23-10.1-20-2.57-5.77-10.37-22.87-17.33-38-6.97-15.12-12.98-27.87-13.38-28.31-0.39-0.45-2.57 3.37-4.85 8.5z"/>
		<path id="Path 1" class="s1" d="m69.33 233.72c0.45 0.43 3.83 0.64 7.5 0.46 3.67-0.17 6.86-0.51 7.09-0.75 0.23-0.24-3.15-0.44-7.5-0.46-4.36-0.01-7.55 0.32-7.09 0.75zm-13.33 3.17c-4.12 1.54-9.41 3.77-11.75 4.95-2.72 1.39-4.01 2.61-3.59 3.41 0.36 0.69 0.25 0.93-0.25 0.53-0.5-0.39-2.03-0.11-3.41 0.63-1.37 0.74-5.35 4.44-8.84 8.22-3.48 3.78-7.61 9.12-9.17 11.87-1.57 2.75-4.09 8.6-5.61 13-2.41 6.95-2.78 9.57-2.83 20-0.03 7.43 0.45 13.52 1.27 16 0.73 2.2 2.2 6.36 3.25 9.25 1.06 2.89 2.38 5.02 2.93 4.75 0.55-0.27 0.76 0.06 0.47 0.75-0.3 0.69 1.73 4.51 4.5 8.5 2.83 4.09 7.76 9.41 11.28 12.21 3.44 2.73 9.4 6.5 13.25 8.39 3.85 1.89 10.6 4.22 15 5.19 6.05 1.32 10.44 1.61 18 1.18 5.5-0.32 12.25-1.33 15-2.26 2.75-0.92 7.03-2.59 9.5-3.7 2.47-1.12 7.2-3.95 10.5-6.3 3.3-2.35 7.36-5.78 9.03-7.62 1.66-1.84 4.22-4.91 5.67-6.84 1.46-1.93 4.09-6.43 5.85-10 1.76-3.57 4.05-9.88 5.09-14 1.05-4.17 1.88-10.94 1.87-15.25 0-4.26-0.49-10.11-1.07-13-0.58-2.89-1.4-6.15-1.81-7.25-0.41-1.1-2.52-5.54-4.69-9.88-2.17-4.33-5.42-9.5-7.23-11.5-1.8-1.99-4.95-5.36-7-7.49-2.04-2.13-6.63-5.59-10.21-7.69-3.57-2.11-9.99-4.98-14.25-6.38-5.82-1.92-8.65-2.37-11.37-1.81-2 0.41-3.8 1.09-4 1.5-0.21 0.41-2.07 0.76-4.13 0.78-2.06 0.02-5.1-0.65-6.75-1.49-1.65-0.84-3.9-1.51-5-1.49-1.1 0.03-5.37 1.31-9.5 2.84zm319 32.11l208.5 0.5-418 1.01c375.2-0.01 417.9-0.27 418.17-1.26 0.26-1-41.81-1.2-208.42-1l-208.75 0.25zm130.8 11.75c-0.17 0.41-0.03 4.57 0.29 9.25l0.59 8.5c0.06-14.34-0.07-18.5-0.25-18.5-0.18 0-0.47 0.34-0.63 0.75zm-267 35.45c0.38 0.39 8.67 0.84 18.4 1 9.74 0.17 17.39-0.02 17-0.4-0.38-0.39-8.67-0.84-18.4-1-9.74-0.17-17.39 0.02-17 0.4zm-14.46 8.3c0.01 4.4 0.18 5.97 0.39 3.5 0.21-2.48 0.21-6.08 0-8-0.22-1.93-0.39 0.1-0.39 4.5zm169.07 24c0 9.35 0.15 13.4 0.33 9 0.19-4.4 0.19-12.05 0.01-17-0.19-4.95-0.34-1.35-0.34 8zm112.94 12c0 4.95 0.17 7.2 0.38 5 0.21-2.2 0.21-6.25 0.01-9-0.21-2.75-0.38-0.95-0.39 4z"/>
		<path id="Path 2" class="s2" d="m70.5 235.6c1.65 0.81 4.6 1.45 6.55 1.43 1.95-0.02 3.98-0.44 4.5-0.93 0.52-0.5 1.85-1.13 2.95-1.4 1.1-0.28-2.28-0.51-7.5-0.53-9.02-0.02-9.35 0.05-6.5 1.43z"/>
		<path id="Path 3" class="s3" d="m44.55 241c-0.3 0.55 0.24 1.75 1.2 2.67 1.65 1.58 1.58 1.64-1.25 1.04-1.65-0.35-2.44-0.42-1.75-0.17 0.69 0.25 1.03 1.14 0.75 1.96-0.27 0.82-1.4 1.5-2.5 1.5-1.1 0-1.77 0.45-1.5 1 0.28 0.55 1.4 1 2.5 1 1.1 0 2.05-0.56 2.12-1.25 0.06-0.69 0.06-1.59 0-2-0.07-0.41 0.78-0.53 1.88-0.25q1.98 0.49 1.75-0.83c-0.14-0.74-0.92-2.17-1.75-3.19-1.36-1.68-1.34-1.79 0.25-1.17 1.04 0.41 1.55 0.28 1.25-0.31-0.27-0.55-0.93-1-1.45-1-0.52 0-1.2 0.45-1.5 1z"/>
		<path id="Path 4" fill-rule="evenodd" class="s4" d="m180.99 218.37c3.03 0.33 5.73 0.99 6.01 1.48 0.27 0.48 1.85 1.56 3.5 2.41 1.65 0.84 3.74 2.37 4.65 3.39 0.91 1.02 2.38 4.32 3.26 7.35 0.89 3.03 1.61 6.74 1.6 8.25-0.01 1.51 0.53 3.76 1.19 5 0.66 1.24 1.34 3.04 1.5 4 0.24 1.38-0.14 1.59-1.77 1-1.14-0.41-2.25-1.65-2.45-2.75-0.21-1.1-0.53-4.7-0.71-8-0.26-4.66-0.93-6.78-3.02-9.5-1.48-1.93-2.71-4.29-2.72-5.25-0.02-1-0.78-1.74-1.78-1.73-0.96 0.01-2.2-0.45-2.75-1.02-0.55-0.56-3.57-1.36-6.72-1.76-5.59-0.72-5.8-0.66-9.33 2.76-1.98 1.93-5.11 5.53-6.94 8-3.19 4.3-3.37 5.01-4.01 16-0.43 7.38-0.26 13.65 0.48 17.5 0.8 4.13 0.85 6.78 0.15 8.5-0.98 2.45-1 2.43-1.07-0.75-0.03-1.82-0.5-3.03-1.06-2.75-0.55 0.27-1 1.4-1 2.5 0 1.1-0.34 2.03-0.75 2.08-0.41 0.04-1.54 0.26-2.5 0.5-0.96 0.23-2.43-0.26-3.25-1.08-0.82-0.82-1.61-1.27-1.75-0.98-0.14 0.28-1.49-1.3-3-3.5-1.51-2.21-2.75-4.7-2.75-5.52 0-0.82-0.68-1.73-1.5-2-0.82-0.27-1.73-1.85-2-3.5-0.28-1.65-0.84-2.99-1.25-2.98-0.41 0.02-2.32-2.05-4.25-4.59-1.93-2.54-5.3-5.98-7.5-7.64-2.2-1.66-3.55-2.84-3-2.62 0.55 0.22 2.35 1.05 4 1.86 1.65 0.81 3.96 2.59 5.14 3.97 1.18 1.37 3.32 3.74 4.75 5.25 1.44 1.51 3.32 4.21 5.77 9.25l2.67-3.1c1.47-1.7 3.57-3.28 4.67-3.51 1.17-0.24 2.1-1.34 2.25-2.65 0.14-1.23 0.7-2.24 1.25-2.24 0.55 0 1-1.24 1-2.75 0-1.51 0.87-5.9 1.94-9.75 1.71-6.16 2.58-7.57 7.25-11.76 2.92-2.61 5.76-4.73 6.31-4.7 0.55 0.03 1.67-0.7 2.49-1.61 1.2-1.33 2.61-1.54 7-1.06zm216.36 9.66c0.63 0.02 0.38 0.58-0.56 1.25-0.94 0.67-1.73 1.78-1.75 2.47-0.02 0.69-0.49 1.25-1.04 1.25-0.55 0-2.05 1.69-3.34 3.75-1.29 2.06-2.68 5.1-3.11 6.75-0.42 1.65-2.18 4.37-3.91 6.05-1.72 1.68-3.56 3.93-4.07 5-0.85 1.81-0.95 1.77-1.31-0.55-0.21-1.38 0.18-3.85 0.88-5.5 0.7-1.65 2.41-4.16 3.81-5.58 1.4-1.41 4.96-5.35 7.9-8.75 2.94-3.39 5.86-6.16 6.5-6.14zm-226.91 2.97c0.16 0-0.77 2.25-2.07 5-1.48 3.11-2.41 6.98-2.47 10.25-0.05 2.89-0.48 6.37-0.94 7.75-0.57 1.7-0.81-0.22-0.73-6 0.05-4.68 0.64-9.63 1.3-11 0.66-1.38 1.97-3.29 2.91-4.25 0.94-0.96 1.84-1.75 2-1.75zm106.09 4.25c2.62 2.84 3.31 4.3 2.83 6-0.42 1.48-0.11 2.59 0.91 3.25 0.85 0.55 2.04 2.24 2.64 3.75 0.6 1.51 1.09 3.65 1.09 4.75 0 1.82-0.25 1.75-2.8-0.75-2.07-2.03-2.92-4-3.27-7.56-0.26-2.64-1.46-6.24-2.67-8-1.21-1.75-2.2-3.64-2.2-4.19 0-0.55 1.56 0.69 3.47 2.75zm319.77 4.53c0.44 0.4 0.67 5.38 0.5 11.07-0.29 10.15-0.36 10.39-3.3 12.7-1.65 1.3-3.23 2.17-3.5 1.93-0.27-0.24 0.23-1.45 1.13-2.7 0.9-1.26 1.9-3.85 2.22-5.78 0.32-1.93 0.94-6.75 1.37-10.72 0.43-3.97 1.14-6.9 1.58-6.5zm-402.26 6.72c0.45 1.1 0.85 2.56 0.89 3.25 0.04 0.69-0.38 1.25-0.93 1.25-0.55 0-1.27-0.79-1.61-1.75-0.33-0.96-0.28-2.43 0.11-3.25 0.59-1.23 0.86-1.15 1.54 0.5zm99.05 39.62c0.32-0.07 0.37 1.12 0.1 2.63-0.26 1.51-1.42 4.1-2.58 5.75-1.87 2.69-2.13 2.79-2.44 1-0.2-1.1-0.08-3.43 0.25-5.18 0.35-1.83 1.34-3.38 2.34-3.64 0.96-0.25 2-0.5 2.33-0.56zm76.41 0.88c2.3 0 2.5 0.37 2.5 4.5 0 3.83 0.3 4.5 2 4.5 1.45 0 2.42 1.18 3.53 4.25 1.36 3.78 1.37 5.19 0.06 12.75-0.8 4.68-1.27 8.84-1.03 9.25 0.24 0.41 0.89 0.52 1.44 0.25 0.55-0.27 1.27 0.51 1.61 1.75 0.33 1.24 0.3 3.6-0.08 5.25-0.38 1.65-1.22 3.58-1.86 4.29-0.64 0.72-1.51 1.28-1.92 1.25-0.41-0.02-1.76-1.17-3-2.55-1.24-1.38-3.38-3.08-4.75-3.77-2.15-1.09-2.53-2.03-2.75-6.74-0.21-4.73-0.08-5.21 1-3.48 0.69 1.1 2.26 2.11 3.5 2.25 1.65 0.18 2.18-0.22 1.98-1.5-0.14-0.96-1.49-2.31-3-3-1.5-0.69-2.73-1.7-2.73-2.25 0-0.55-0.9-0.77-2-0.5-1.41 0.35-2.15-0.09-2.5-1.5-0.28-1.1-1.06-1.87-1.75-1.72-0.69 0.15-1.81 0.6-2.5 1-0.69 0.4-1.45 0.16-1.7-0.53-0.24-0.69-0.83-2.82-1.3-4.75-0.48-1.93-0.7-4.4-0.15-7.5l1.98 2c1.09 1.1 1.97 2.56 1.95 3.25-0.02 0.69 0.53 1.32 1.22 1.4 0.69 0.09 1.7 0.21 2.25 0.28 0.55 0.07 1.56 0.45 2.25 0.85 0.96 0.55 1.25-1.26 1.25-7.78 0-5 0.41-8.5 1-8.5 0.55 0 1-0.68 1-1.5 0-0.93 0.94-1.5 2.5-1.5zm-83.76 11.26q2.24 0.25 3.27 3.24c0.56 1.65 1.01 3.68 1 4.5-0.02 0.82 0.54 2.73 1.23 4.24 0.69 1.51 1.71 2.75 2.26 2.77 0.55 0.01 0.47 0.35-0.18 0.76-0.85 0.52-0.99 2.96-0.5 8.56 0.51 5.85 0.35 8.12-0.61 9-1.04 0.94-1.31 0.38-1.39-6.83l-1 3.5c-0.55 1.93-1.63 3.84-2.41 4.25-0.77 0.41-1.41 1.65-1.41 2.75 0 1.19-1.12 2.55-2.75 3.36-1.86 0.91-4.2 1.13-7.25 0.65-2.48-0.39-5.51-1-9-2.01l2.25-1.87c1.24-1.03 4.72-2.69 7.75-3.68 3.02-1 6.75-2.29 8.27-2.88 2.5-0.96 2.71-1.42 2.16-4.57-0.34-1.93-0.65-5.07-0.69-7-0.05-1.93 0.38-4.4 0.95-5.5 0.62-1.2 0.72-3.8 0.26-6.5-0.44-2.59-1.54-5.03-2.61-5.74-1.72-1.16-1.69-1.23 0.4-1zm161.56 1.74c0.66-0.01-0.04 1.12-1.55 2.5-1.51 1.37-3.2 2.5-3.75 2.5-0.55 0-1-0.68-1-1.5 0-0.83 0.89-1.5 2-1.5 1.1 0 2.25-0.45 2.55-1 0.3-0.55 1.09-1 1.75-1zm22.81 8.01c0.34-0.01 0 1.11-0.75 2.49-0.75 1.37-1.14 2.5-0.86 2.5 0.27 0-0.96 1.33-2.75 2.96-1.79 1.63-3.81 2.98-4.5 3-0.69 0.02-1.25-0.41-1.25-0.96 0-0.55 0.56-0.69 1.25-0.31 0.71 0.4 0.61-0.05-0.25-1.04-1.08-1.25-1.15-1.73-0.25-1.69 0.69 0.02 2.94-1.53 5-3.45 2.06-1.92 4.03-3.5 4.36-3.5zm-300.92 14.49c3.54 3.3 7.38 7.8 8.52 10 1.82 3.52 1.91 4.3 0.72 6.5-0.75 1.37-1.38 3.74-1.39 5.25-0.02 1.51-0.49 2.52-1.04 2.25-0.55-0.27-1.23-0.05-1.5 0.5-0.28 0.55-1.4 1-2.5 1-1.1 0-1.99 0.56-1.98 1.25 0.01 0.69-1.59 3.05-3.54 5.25-2.3 2.58-3.55 4.98-3.52 6.75 0.02 1.51 0.44 3.76 0.93 5 0.5 1.24 2.72 4.05 4.94 6.25 2.23 2.2 5.65 5.57 7.61 7.5 2.07 2.04 3.03 3.62 2.31 3.8-0.69 0.16-3.95-1.31-7.25-3.28-3.62-2.15-7.35-5.45-9.41-8.3-1.87-2.59-4.01-6.52-4.75-8.72-1.1-3.26-1.11-4.71-0.09-7.84 1.01-3.13 2.19-4.32 6.25-6.34 2.75-1.37 5.32-3.02 5.71-3.66 0.4-0.64 1.07-1.17 1.5-1.19 0.44-0.01 1.69-0.51 2.79-1.11 1.41-0.76 1.63-1.27 0.75-1.72-0.69-0.35-1.03-1.32-0.75-2.14 0.27-0.82 1.17-1.5 2-1.5 0.82 0 1.49-0.79 1.48-1.75 0-0.96-0.34-2.27-0.75-2.92-0.4-0.64-1.97-1.42-3.48-1.75-1.51-0.32-2.75-1.14-2.74-1.83 0-0.69-1.29-2.82-2.86-4.75-1.58-1.93-3.21-4.63-3.63-6-0.62-2 0.51-1.31 5.67 3.5zm185.02-5.53c0.71-0.01 1.96 1.1 2.79 2.47 0.82 1.36 1.84 2.28 2.25 2.02 0.41-0.25 0.19 0.95-0.5 2.68-0.69 1.73-1.7 3.37-2.25 3.66-0.55 0.29-0.67 0.11-0.26-0.39 0.41-0.5 0.19-1.48-0.5-2.18-0.68-0.7-0.92-1.6-0.52-2 0.39-0.4 0.04-1.97-0.79-3.48-1.18-2.14-1.23-2.76-0.22-2.78zm106.59 3.05c1.46 0.01 1.49 0.14 0.2 0.95-1.21 0.77-1.26 1.19-0.23 2.24 0.69 0.71 1.26 2.3 1.25 3.54-0.01 1.24 0.32 2.06 0.73 1.83 0.41-0.22 1.54 1.58 2.5 4 0.96 2.43 1.46 4.76 1.11 5.17-0.35 0.41-0.89 0.07-1.21-0.75-0.31-0.82-1.63-2.63-2.92-4-1.3-1.38-2.61-3.4-2.91-4.5-0.31-1.1-0.28-2.79 0.06-3.75 0.34-0.96 0.17-1.98-0.38-2.25-0.55-0.27-0.75-0.95-0.45-1.5 0.3-0.55 1.31-0.99 2.25-0.98zm-48.92 31.98c0.48 0 0.71 0.45 0.5 1-0.21 0.55 0.41 1.01 1.37 1.02 0.96 0.02 3.23 1.71 5.04 3.75 1.81 2.05 3.27 4.29 3.25 4.98-0.02 0.69-0.6 1.02-1.29 0.73-0.69-0.28-2.04-1.85-3-3.5-1.55-2.65-2.11-2.9-5-2.28-2.82 0.6-3.15 0.47-2.5-1 0.41-0.94 0.75-2.38 0.75-3.2 0-0.82 0.4-1.5 0.88-1.5zm149.41 10.24c1.21 1.5 3.11 2.73 4.21 2.73 1.11 0.01 2.74 1.23 3.67 2.77 0.92 1.52 2.94 3.98 4.5 5.47 2.04 1.95 4.92 3.13 10.33 4.26 5.54 1.14 8.41 1.29 11 0.54 1.92-0.55 3.84-1 4.25-1 0.41-0.01 0.75 0.67 0.75 1.49 0 1.18-1.97 1.63-9.25 2.13-8.43 0.57-9.68 0.42-14.1-1.75-2.69-1.32-7.32-5.06-10.37-8.38-3.03-3.3-5.9-6.79-6.39-7.75-0.49-0.96-0.87-2.09-0.85-2.5 0.02-0.41 1.03 0.48 2.25 1.99zm-158.06 0.12c1.8 0.63 3.76 1.82 4.36 2.64 0.95 1.3 1.29 1.22 2.5-0.58 0.78-1.14 2.31-2.32 3.41-2.6 1.1-0.29 2.5-0.03 3.12 0.58 0.61 0.6 2.08 1.78 3.26 2.6 1.18 0.82 2.14 2.06 2.13 2.75-0.01 0.69 1.23 2.17 2.74 3.28 1.97 1.46 4.25 2.03 8 2 2.89-0.01 5.47-0.48 5.75-1.03 0.27-0.55 3.87-1 8-1 4.12 0 7.72-0.45 8-1 0.27-0.55 1.74-1 3.25-0.99 1.51 0.01 5.53 0.57 8.93 1.25 3.39 0.68 5.98 1.58 5.75 1.99-0.24 0.41 0.47 0.52 1.57 0.25 1.1-0.27 2-0.05 2 0.5 0 0.55 0.79 0.99 1.75 0.97 0.96-0.01 2.13 0.32 2.58 0.75 0.46 0.43 1.14 0.8 1.5 0.83 0.37 0.03 2.81 0.36 5.42 0.75 2.61 0.38 4.75 1.15 4.75 1.7 0 0.63 2.69 0.78 7.25 0.42 3.99-0.33 11.07-0.7 15.75-0.84 4.67-0.13 9.74-0.77 11.25-1.41 1.51-0.64 4.57-3.08 10.84-9.67l-1.99 3.5c-1.1 1.93-1.79 3.84-1.55 4.25 0.25 0.41 0 0.75-0.55 0.75-0.55 0-1.21 0.79-1.46 1.75-0.26 0.96-2.62 2.86-5.25 4.23-4.34 2.24-6.57 2.56-23.79 3.42-18.77 0.95-19.04 0.93-22-1.26-1.65-1.21-4.24-2.19-5.75-2.17-1.77 0.02-3.11-0.68-3.75-1.97-0.55-1.1-2.69-2.48-4.75-3.08-2.06-0.59-5.33-1.46-7.25-1.94-2.66-0.66-3.86-0.51-5 0.64-1.05 1.05-3.44 1.47-8 1.4-5.34-0.08-6.86 0.27-8.5 1.98-1.46 1.51-3.21 2.05-6.5 2.01-2.98-0.04-6.02-0.94-9-2.69-2.48-1.45-4.84-3.24-5.25-3.98-0.6-1.07-1.31-0.93-3.5 0.69-1.51 1.12-3.54 2.02-4.5 2-1.02-0.02-2.58-1.69-3.75-4.03-1.1-2.2-1.98-4.56-1.96-5.25 0.03-0.69-0.53-1.79-1.25-2.45-1.04-0.97-1.44-0.33-2.04 3.25-0.48 2.87-1.91 5.75-4 8.11-1.79 2.02-5.05 4.45-7.25 5.41-2.69 1.18-6.77 1.78-12.5 1.84-6.17 0.06-9.51-0.39-12.18-1.66-2.02-0.96-7.08-5.01-11.25-9-4.16-3.99-7.23-7.26-6.82-7.27 0.41-0.02 3.22 1.7 6.25 3.82 3.02 2.11 7.52 4.75 10 5.85 2.77 1.24 5.85 1.85 8 1.6 1.92-0.23 5.97 0.03 9 0.59 5.12 0.94 5.81 0.83 9.95-1.66 2.45-1.48 4.59-3.47 4.75-4.43 0.17-0.96 0.75-1.75 1.3-1.75 0.55 0 0.91-0.76 0.81-1.69-0.11-0.92 0.78-2.67 1.97-3.88 1.92-1.95 2.55-2.07 5.45-1.07zm-162.63 3.75c0.22 0.49 0.85 0.89 1.4 0.89 0.55 0 2.24 0.92 3.75 2.03 1.51 1.12 3.54 2.02 4.5 2 0.96-0.01 3.1 1.1 4.75 2.47 1.65 1.38 2.55 2.5 2 2.5-0.55 0-0.83 0.34-0.63 0.75 0.2 0.41 1.55 1.09 3 1.5 1.45 0.41 4.77 2.07 7.38 3.67 4.41 2.72 4.95 2.83 7.5 1.5 1.51-0.78 4.44-1.83 6.5-2.33 2.06-0.51 6.22-1.84 9.25-2.98 3.02-1.13 5.61-1.84 5.75-1.58 0.14 0.26 2.61-0.41 5.5-1.48 2.89-1.08 7.16-3.78 9.5-6 2.34-2.23 4.81-3.91 5.5-3.73 0.76 0.19 0.16 1.27-1.52 2.75-1.52 1.33-3.32 3.71-4 5.27-0.67 1.56-2.69 3.7-4.48 4.75-1.79 1.05-4.06 1.91-5.05 1.91-0.99 0-2.23 0.42-2.75 0.94-0.52 0.52-5 1.46-9.95 2.11-4.95 0.64-10.8 1.69-13 2.34q-4 1.17-8.5 0.3c-2.48-0.49-5.18-1.5-6-2.26-0.83-0.76-2.18-1.38-3-1.38-0.83-0.01-2.85-0.67-4.5-1.48-1.65-0.8-5.76-4.08-9.14-7.27-4.29-4.05-5.84-6.14-5.15-6.94 0.55-0.62 1.17-0.74 1.39-0.25zm-147.85-0.09q2.25-0.03 3.75 2.98c0.82 1.65 1.16 3.21 0.75 3.47-0.41 0.25-2.65-0.76-4.98-2.25q-4.21-2.72-3-3.45c0.68-0.41 2.24-0.75 3.48-0.75zm296.35 2.98c0.36 0 0.4 0.56 0.09 1.25-0.31 0.69-1.5 1.92-2.63 2.74-1.13 0.82-2.51 1.34-3.06 1.14-0.55-0.19-4.6-0.32-9-0.29-6.58 0.04-8.44-0.3-13-3.97l2.5 1.16c1.37 0.65 3.45 0.89 4.6 0.55 1.16-0.35 5.21-0.13 9 0.48 6.47 1.04 7.02 0.98 8.87-0.97 1.09-1.15 2.27-2.09 2.63-2.09z"/>
		<path id="Path 5" fill-rule="evenodd" class="s5" d="m488 223.01c0.27-0.03 2.3 0.68 4.5 1.58 2.2 0.91 4.23 1.71 4.5 1.78 0.27 0.07 0.39 0.47 0.25 0.88-0.14 0.41 0.46 0.64 1.33 0.5 1.04-0.16 2.05 1.11 2.98 3.75 0.78 2.2 1.42 4.34 1.42 4.75 0.01 0.41-0.54 0.42-1.23 0.01q-1.24-0.73-0.5 0.5c0.41 0.68 1.2 1.02 1.75 0.74 0.55-0.27 1.28 0.29 1.63 1.25 0.34 0.96 0.12 3.66-0.5 6-0.95 3.58-0.85 4.8 0.62 7.77 0.96 1.94 2.31 3.51 3 3.5 0.69-0.01 1.3 0.54 1.36 1.23 0.06 0.69 0.06 2.15-0.01 3.25-0.06 1.1 0.23 2.48 0.64 3.06 0.42 0.58 1.89 1.82 3.26 2.76 2.38 1.61 1.11 1.7-26.5 1.7-26.17 0-28.78-0.15-26.75-1.51 1.33-0.89 2.25-2.53 2.25-4.01 0-1.37 1.01-4.3 2.25-6.5 1.24-2.2 3.04-4.23 4-4.5 1.21-0.35 1.75-1.5 1.74-3.75-0.01-1.79 0.32-4.82 0.72-6.75 0.49-2.36 2.69-5.49 6.76-9.63 3.32-3.37 6.93-6.62 8.03-7.22 1.1-0.6 2.23-1.11 2.5-1.14zm80 0.3c4.76 0.3 6.09 0.88 9.84 4.27 2.38 2.16 5.19 4.37 6.24 4.92 1.05 0.55 3.02 2.8 4.38 5 1.36 2.2 2.49 4.68 2.5 5.5 0.02 0.82-0.59 2.63-1.35 4-0.96 1.72-1.14 3.59-0.59 6 0.67 2.95 0.38 4.05-1.86 7.02-1.46 1.93-3.16 4.41-3.77 5.5-1.05 1.87-2.35 1.99-47.39 2.48l0.42-2.25c0.24-1.24-0.22-3.15-1.01-4.25-0.79-1.1-1.21-2.79-0.92-3.75 0.28-0.96 1.41-1.75 2.51-1.75q2 0 2-2c0-1.1 0.45-2.22 1-2.5 0.55-0.27 1-1.85 1-3.5 0-1.65 0.79-5.15 1.75-7.78 0.96-2.62 2.45-5.43 3.31-6.25 0.86-0.81 3.11-2.93 5-4.72 1.89-1.79 5.24-3.94 7.44-4.77 2.4-0.91 6.2-1.38 9.5-1.17zm-389.83 0.71c0.98 0.01 0.93 0.24-0.17 0.88-1.19 0.69-0.99 0.98 1 1.45 1.37 0.32 3.51 0.37 4.75 0.11 1.24-0.25 2.26-1.02 2.27-1.71 0.01-0.69 0.87-0.12 1.9 1.25 1.04 1.38 1.6 3.18 1.25 4q-0.64 1.52 0.6 0.75c0.68-0.41 1.23-0.3 1.23 0.25 0 0.55-0.45 1.23-1 1.5-0.6 0.3-0.4 1.2 0.5 2.25 0.99 1.15 1.59 4.32 1.75 9.25 0.25 7.39 0.29 7.5 3 7.75 1.79 0.16 2.92 0.95 3.25 2.25 0.27 1.1 1.29 1.99 2.25 1.98 0.96-0.01 2.32 0.56 3.02 1.25 0.69 0.7 1.25 2.4 1.23 3.77-0.02 1.38 0.54 3.07 1.23 3.77 0.7 0.69 2.06 1.26 3.02 1.25 0.96-0.01 1.97 0.43 2.25 0.98 0.33 0.65-7.5 1-22.5 1-22.84 0-23.01-0.02-24.16-2.25-0.99-1.9-0.95-2.07 0.25-1.09 1.14 0.95 1.41 0.73 1.41-1.15 0-1.28-0.34-2.14-0.75-1.91-0.41 0.22-0.98-0.28-1.25-1.1-0.28-0.82-0.05-2.4 0.5-3.5 0.55-1.1 1-4.7 1-8 0-3.3 0.56-7.8 1.25-10 0.69-2.2 1.59-4 2-4 0.41 0 0.73-0.56 0.72-1.25-0.02-0.69 0.88-2.49 2-4 1.11-1.51 2.48-2.52 3.03-2.25 0.55 0.28 1.19-0.4 1.42-1.5 0.24-1.1 1.02-1.99 1.75-1.98zm80.08 1.14c3.91-0.13 5.02 0.24 6.26 2.09 0.83 1.24 1.51 1.8 1.53 1.25 0.01-0.55 1.56 2.15 3.44 6 2.02 4.11 3.41 8.45 3.38 10.5-0.05 3.19-0.13 3.28-0.86 1-0.68-2.12-0.82-1.86-0.9 1.75-0.06 2.53 0.3 4.05 0.9 3.75 0.55-0.27 0.67-1.06 0.27-1.75-0.4-0.69 0.48-0.35 1.97 0.75 1.49 1.1 2.93 2.68 3.19 3.5 0.26 0.82 1.4 1.84 2.53 2.25 1.12 0.41 2.76 2.44 3.64 4.5 0.88 2.06 2.34 4.55 3.25 5.53 1.58 1.71 0.5 1.78-52.35 1.72l-0.21-2.25c-0.11-1.24-0.45-3.94-0.75-6-0.47-3.26-0.28-3.75 1.46-3.75 1.1 0 2.68-1.12 3.5-2.5 0.82-1.37 1.52-4.69 1.55-7.36 0.03-3.79 0.69-5.72 2.98-8.75 1.62-2.14 3.4-4.45 3.96-5.14 0.55-0.69 1.01-1.7 1.01-2.25 0-0.55 0.56-1.6 1.25-2.33 0.69-0.73 1.93-1.56 2.75-1.84 0.82-0.28 3.64-0.59 6.25-0.67zm154.1 0.37c2.28 0.39 5.39 1.33 6.9 2.09 1.51 0.76 4.44 3.87 6.5 6.91 2.06 3.05 4.2 5.68 4.75 5.86 0.55 0.17 1.34 2.41 1.75 4.96 0.55 3.42 1.41 5.05 3.25 6.15 1.37 0.82 2.5 2.18 2.5 3 0 0.82 0.79 1.49 1.75 1.49 1.5-0.01 1.68 0.7 1.25 4.93-0.27 2.72-1.02 5.43-1.66 6.03-0.8 0.74-11.77 0.99-35 0.81-30.98-0.24-33.57-0.39-30.6-1.76 1.91-0.88 3.74-2.74 4.43-4.5 0.65-1.65 2.79-4.48 4.75-6.29 1.97-1.81 3.81-3.26 4.08-3.22 0.27 0.04 1.06-0.95 1.76-2.21 1.25-2.28 1.25-2.28 0.56 0.22-0.5 1.8-0.36 2.29 0.5 1.75 0.65-0.41 1.18-1.54 1.19-2.5 0-0.96 0.89-3.1 1.98-4.75 1.09-1.65 1.76-3.79 1.5-4.75-0.31-1.09 0.85-3.17 3.04-5.5 2.11-2.24 3.53-3.15 3.51-2.25-0.01 0.82-1.15 7.13-2.54 14-1.39 6.88-2.52 12.61-2.51 12.75 0 0.14 1.13 0.25 2.51 0.25 2.35 0 2.57-0.47 4.87-15.5l7.38 16 1.71-4c0.93-2.2 2.42-5.8 3.29-8 1.37-3.43 1.69-3.72 2.31-2 0.39 1.1 0.99 4.59 1.33 7.75 0.55 5.18 0.84 5.75 2.94 5.75 1.29 0 2.52-0.2 2.75-0.45 0.23-0.25-0.15-3.51-0.84-7.25-0.69-3.74-1.95-10.17-2.81-14.3-0.9-4.35-1.91-7.08-2.4-6.5-0.47 0.55-2.06 3.93-3.56 7.5-1.49 3.57-3.13 7.63-3.66 9-0.87 2.29-1.29 1.71-5.09-7-2.29-5.22-4.62-9.83-5.19-10.23-0.56-0.41-0.02-0.75 1.22-0.75 1.24-0.01 2.48-0.7 2.75-1.52 0.27-0.82 0.95-1.27 1.5-1 0.55 0.28 1.05 0.01 1.1-0.59 0.07-0.72 1.52-0.85 4.25-0.38zm-360.48 2.95c2 0.38 5.71 0.77 8.25 0.86 3.18 0.11 4.51 0.55 4.25 1.41-0.25 0.84 0.85 1.25 3.38 1.26 2.06 0.01 5.33-0.27 7.25-0.61 2.62-0.47 3.12-0.85 2-1.5-1.27-0.73-1.23-0.87 0.25-0.88 0.96-0.01 2.09 0.61 2.5 1.38 0.57 1.06 4.14 1.52 14.75 1.88 7.7 0.26 14.81 0.87 15.81 1.35 0.99 0.48 1.55 1.43 1.25 2.12-0.31 0.69 0.45 2.42 1.69 3.84 1.24 1.43 2.48 2.16 2.75 1.64 0.28-0.54 1.37-0.61 2.5-0.16 1.1 0.43 1.44 0.82 0.75 0.86-0.69 0.04-1.14 0.98-1 2.08 0.14 1.17 0.78 1.8 1.5 1.5 0.69-0.28 1.24-0.17 1.22 0.24-0.01 0.41 1.11 1.31 2.5 2 1.39 0.69 3.09 0.96 3.78 0.6 0.98-0.5 0.99-0.34 0.05 0.75-0.98 1.14-0.41 1.94 3 4.29 2.31 1.59 4.26 2.94 4.33 3 0.06 0.06 0.43 1.24 0.81 2.61 0.53 1.91 0.44 2.14-0.36 1q-1.06-1.52-1.06-0.25c-0.01 0.69 0.43 1.48 0.98 1.75 0.55 0.27 1.01 1.51 1.02 2.75 0 1.24 0.34 1.8 0.75 1.25 0.4-0.55 1.18-1.07 1.73-1.16 0.55-0.09 1.14 2.61 1.31 6 0.18 3.39 0.75 6.61 1.27 7.16 0.61 0.64 0.95-0.16 0.94-2.25-0.01-1.79 0.43-3.25 0.98-3.25 0.55 0 1 0.45 1 1 0 0.55-0.53 3.14-2.34 10.5l-1.8-5.5c-0.99-3.02-1.48-5.95-1.09-6.5 0.39-0.55 0.26-0.68-0.28-0.3-0.54 0.39-1.78-0.85-2.74-2.75-0.96-1.9-1.52-3.9-1.25-4.45 0.28-0.55 0.11-0.89-0.36-0.75-0.47 0.14-2.72-2.11-5-5-2.28-2.89-6.95-7.58-10.39-10.42-3.44-2.84-9.4-6.66-13.25-8.49-3.85-1.84-10.37-4.06-14.5-4.94-5.49-1.17-10.31-1.45-18-1.03-5.77 0.31-12.52 1.19-15 1.96-2.47 0.77-7.42 2.85-11 4.62-3.57 1.77-8.52 4.7-11 6.51-2.47 1.81-6.44 5.49-8.82 8.17-2.37 2.68-6.07 7.8-8.23 11.37-2.15 3.58-4.41 8.08-5.01 10-0.6 1.93-1.72 5.98-2.48 9-0.76 3.02-1.4 9.55-1.41 14.5-0.01 4.95 0.62 11.7 1.4 15 0.78 3.3 2.42 8.25 3.64 11 1.22 2.75 3.9 7.7 5.98 11 2.07 3.3 6.16 8.29 9.09 11.09 2.94 2.8 8.04 6.81 11.34 8.92 3.3 2.1 9.04 4.87 12.75 6.16 3.71 1.28 7.54 2.39 8.5 2.47 0.96 0.08-0.05 0.43-2.25 0.79-2.2 0.36-4.67 0.46-5.5 0.23-1.33-0.37-1.33-0.51 0-1.27 1.01-0.58 0.12-0.86-2.75-0.87-2.34-0.01-4.24-0.36-4.23-0.77 0.02-0.41-1.33-1.09-3-1.5-1.66-0.41-3.69-1.42-4.52-2.25-0.82-0.82-2.51-1.72-3.75-1.99-1.24-0.27-2.7-1.05-3.25-1.75-0.55-0.69-2.8-2.6-5-4.24-2.2-1.64-4.56-3.11-5.25-3.25-0.69-0.15-1.25 0.18-1.25 0.73 0 0.55-0.56 0.72-1.25 0.38-0.95-0.48-0.89-0.83 0.25-1.44 0.83-0.44 1.84-0.61 2.25-0.37 0.41 0.23 0.75-0.02 0.75-0.57 0-0.55-0.9-0.77-2-0.5-1.1 0.27-2 0.05-2-0.5 0-0.55 0.45-0.77 1-0.5 0.55 0.27 1-0.06 1-0.75 0-0.69-1.92-2.48-4.25-3.97-2.34-1.5-4.7-2.73-5.25-2.73-0.55 0 0.13 0.87 4 3.88l-3.79-1.21c-2.89-0.93-4.26-2.17-5.75-5.22-1.08-2.2-2.29-3.89-2.71-3.76-0.41 0.13-1.54 0.02-2.5-0.25-1.61-0.45-1.75-2.71-1.79-28.74-0.04-24.3 0.17-28.42 1.5-29.5 0.84-0.69 2.55-1.05 3.79-0.81 1.24 0.24 3.38-0.17 4.75-0.9 1.38-0.73 3.27-2.17 4.2-3.19 0.94-1.02 1.84-3.26 2-4.98 0.22-2.27 0.69-2.95 1.72-2.5 1.12 0.49 1.27 0.09 0.69-1.87-0.41-1.37-0.37-1.96 0.07-1.3 0.58 0.84 1.27 0.89 2.32 0.17 1.11-0.76 1.18-1.13 0.25-1.45-0.87-0.29-0.5-1.41 1.21-3.67 1.35-1.79 2.14-3.66 1.75-4.16-0.39-0.5-0.15-0.61 0.54-0.25 0.73 0.38 2.3-0.6 3.75-2.34 1.38-1.65 2.49-3.56 2.48-4.25-0.01-0.69 1.63-1.91 3.64-2.73 2-0.81 4.15-2.16 4.76-3 0.62-0.84 2.81-2.43 4.88-3.52 2.06-1.1 3.81-2.61 3.87-3.36 0.09-1.02 1.03-1.18 3.74-0.66zm280.36 0.93c0.42 0.87 0.58 1.93 0.35 2.34-0.24 0.41-2.94 6.71-11.58 27.25l2.75 0.02c2.12 0.02 3.09-0.7 4.25-3.17 1.38-2.93 1.9-3.19 6.46-3.27 4.76-0.08 5.01 0.06 6 3.2 0.85 2.66 1.55 3.27 3.79 3.25 1.75-0.02 2.6-0.48 2.33-1.28-0.24-0.69-2.96-7.1-6.06-14.25-3.36-7.78-5.3-13.49-4.82-14.22 0.61-0.93 1.63-0.78 4.3 0.64 1.92 1.02 4.4 3.26 5.5 4.97 1.1 1.72 2.68 3.34 3.5 3.6 0.82 0.26 2.61 2.85 3.96 5.75 1.36 2.89 3.38 6.6 4.5 8.23 1.12 1.64 2.6 3.55 3.29 4.25 0.69 0.71 1.26 2.07 1.26 3.03 0.01 0.96-0.33 3.22-1.51 8.3l-52.5-0.05v-5.5c0-4.5 0.36-5.68 2-6.5 1.1-0.55 1.99-1.56 1.97-2.25-0.01-0.69 1.11-1.81 2.5-2.5 1.56-0.77 2.54-2.11 2.56-3.5 0.02-1.24 0.7-3.15 1.52-4.25 0.82-1.1 1.48-2.79 1.47-3.75-0.01-0.96 0.66-1.75 1.48-1.75 0.82 0 2.29-1.58 3.25-3.52 0.96-1.94 2.12-3.51 2.57-3.5 0.45 0.01 1.57-0.7 2.48-1.57 1.52-1.45 1.73-1.45 2.43 0zm-165.73 41.6l24.25-0.01c22.86 0 24.19 0.1 23.13 1.75-0.86 1.34-0.75 2.51 0.5 5 1.53 3.08 1.52 3.32-0.31 4.5-1.44 0.93-1.7 1.69-1 3 0.77 1.45 0.5 1.75-1.64 1.75-1.42 0-3.22 0.68-4 1.5-0.79 0.82-1.42 2.29-1.41 3.25 0.01 1.5 0.15 1.53 0.98 0.25 0.76-1.17 0.97-0.89 0.98 1.25 0.01 1.51-0.43 2.52-0.98 2.25-0.55-0.27-1-0.05-1 0.5 0 0.55 0.56 3.05 1.25 5.55 1.18 4.31 1.42 4.53 4.25 4.08 2.21-0.36 3.54 0.09 5.06 1.69 1.13 1.2 2.55 3.31 3.16 4.68 0.67 1.53 0.75 3.08 0.21 4-0.5 0.82-0.91 1.84-0.91 2.25-0.01 0.41 1.1 0.75 2.48 0.75 2.4 0 2.5 0.25 2.49 6.25-0.01 3.64 0.86 8.96 2.08 12.75 1.15 3.57 3.13 8.3 4.4 10.5 1.28 2.2 4.73 6.26 7.67 9.02 2.95 2.75 7.61 6.13 10.36 7.5 2.75 1.36 5.11 2.82 5.25 3.23 0.14 0.41 0.59 0.56 1 0.33 0.41-0.23 3.23 0.17 6.25 0.89 4.58 1.09 6.84 1.08 13.5-0.07 4.4-0.76 9.24-1.16 13.5-0.4v-8.5c0-4.68-0.34-8.51-0.75-8.52-0.41-0.02-3 0.94-5.75 2.12-3.83 1.65-6.82 2.13-12.75 2.03-5.35-0.09-9.06-0.73-12-2.09-2.34-1.07-6.28-3.69-8.75-5.81-2.48-2.12-5.51-5.86-6.74-8.3-1.23-2.43-2.24-4.99-2.25-5.68-0.01-0.93 3.09-1.25 12.19-1.25 9.74 0 11.95 0.25 10.98 1.25-0.67 0.69-1.21 2.04-1.2 3 0.01 0.96 0.92 1.98 2.02 2.25 1.39 0.35 1.82 1.04 1.4 2.25-0.33 0.96-1.01 2.99-1.5 4.5-0.77 2.36-1.43 2.74-4.65 2.71-3.39-0.04-3.61 0.1-2.25 1.54 0.82 0.88 1.95 1.41 2.5 1.18 0.55-0.22 1.79-0.02 2.75 0.46 0.96 0.47 1.57 1.2 1.35 1.61-0.23 0.41 2.59 0.72 6.25 0.68 3.66-0.04 8.34-0.72 10.41-1.5 2.61-0.99 3.77-2.04 3.78-3.43 0.01-1.1 0.85-3.35 1.87-5 1.02-1.65 2.58-3.34 3.47-3.75 0.89-0.41 2.07-0.52 2.62-0.25 0.55 0.27 1.9-0.85 3-2.5 1.1-1.65 3.69-3.68 5.75-4.52 2.22-0.9 4.26-2.62 5.01-4.25 0.69-1.5 1.26-3.52 1.25-4.48-0.01-0.96 1.64-5.24 3.66-9.5 2.01-4.26 5.16-9.89 7-12.5 1.83-2.61 3.33-5.2 3.33-5.75 0-0.55 0.45-0.77 1-0.5 0.55 0.27 1.28-0.29 1.62-1.25 0.33-0.96 1.01-3.21 1.5-5 0.78-2.88 0.65-3.25-1.12-3.25-1.1 0-2.31-0.79-2.7-1.75-0.38-0.96-1.73-2.54-3-3.5-1.26-0.96-2.3-2.43-2.3-3.25 0-0.82-0.68-2.85-3-7.5l23.25 0.16c12.79 0.09 21.68 0.34 19.75 0.57-2.03 0.23-4.44 1.42-5.75 2.84-1.24 1.33-2.25 3.11-2.25 3.93 0 0.82-1.01 3.06-2.25 4.96-1.44 2.21-3.06 3.47-4.5 3.5-2 0.04-2.08 0.21-0.75 1.54 0.82 0.82 1.73 2.4 2 3.5 0.27 1.1 0.95 2 1.5 2 0.55 0 0.99 0.79 0.97 1.75-0.02 0.96 1.11 3.89 2.5 6.5 1.39 2.61 2.3 5.43 2.03 6.25-0.27 0.82-0.05 1.27 0.5 1 0.55-0.27 1 0.4 1 1.5 0 1.1 0.68 2.68 1.5 3.5 0.82 0.82 1.5 2.63 1.5 4 0 1.38 0.45 2.27 1 2 0.55-0.27 0.76 0.06 0.46 0.75-0.3 0.69 0.04 2.49 0.75 4 0.71 1.51 1.64 2.41 2.07 2 0.43-0.41 0.76-0.19 0.75 0.5-0.02 0.69 0.65 1.25 1.47 1.25 0.82 0 1.5 0.34 1.5 0.75 0 0.41 1.78 0.75 3.94 0.75 3.1 0 4.66 0.69 7.25 3.23 1.82 1.78 4.1 3.25 5.06 3.25 0.96 0.01 2-0.77 2.31-1.73 0.31-0.96 0.42-11.82 0.25-24.14-0.31-22.2-0.33-22.39-2.6-23.5-1.26-0.61-2.51-1.79-2.76-2.61-0.26-0.82-1.93-2.18-3.71-3.01-2-0.93-3.09-2.08-2.84-3 0.22-0.82 0.56-2.73 0.75-4.24 0.28-2.21-0.09-2.82-1.9-3.11-1.24-0.2 14.18-0.4 34.25-0.44 20.07-0.04 35.6 0.29 34.5 0.74-1.1 0.45-4.36 3.35-7.25 6.44-3.11 3.33-5.05 6.23-4.75 7.12 0.3 0.89-0.11 1.5-1 1.5-0.82 0-1.51 0.34-1.52 0.75-0.01 0.41 0.56 1.32 1.25 2.02 0.7 0.69 0.93 1.26 0.52 1.25-0.41-0.01 0.14 0.99 1.22 2.23 1.09 1.24 2.18 3.38 2.42 4.75 0.25 1.38 1.28 3.45 2.28 4.61 1.32 1.52 2.8 2.03 5.33 1.85 1.93-0.14 4.18-0.41 5-0.61 1.19-0.28 1.62 1.12 2.07 6.65 0.45 5.45 0.62 6 0.77 2.5 0.14-3.32 0.45-4.11 1.16-3 0.71 1.1 0.97 0.36 0.98-2.75 0.02-3.41 0.42-4.35 2.02-4.75 1.1-0.27 2.05-1.29 2.12-2.25 0.06-0.96 0.06-2.09 0-2.5-0.07-0.41 0.33-0.52 0.88-0.25 0.55 0.27 1 0.05 1-0.5 0-0.55 0.57-1.56 1.26-2.25 0.7-0.69 2.05-2.49 3-4 1.51-2.39 1.54-2.82 0.24-3.25-0.82-0.27-1.5-1.18-1.5-2 0-0.82-0.68-2.18-1.5-3-0.82-0.82-1.51-1.84-1.53-2.25-0.02-0.41 1.11-2.44 2.5-4.5 1.39-2.06 2.19-3.99 1.78-4.28-0.41-0.29 13.31-0.51 30.5-0.5 29.32 0.03 31.21 0.14 30.63 1.78-0.36 1.04 0.25 2.87 1.5 4.5 2.01 2.61 2.03 2.83 0.37 4.22-0.96 0.81-2.31 1.48-3 1.5-0.69 0.02-1.25 0.93-1.25 2.03 0 1.11-0.67 2-1.5 2-0.82 0-1.84-0.11-2.25-0.25-0.41-0.14-1.02 1.77-1.35 4.25-0.48 3.61-0.62 2.91-0.71-3.5-0.09-7.37-0.23-7.88-1.75-6.5-1.45 1.32-2.57 1.33-9.29 0.1-4.77-0.88-10-1.16-13.9-0.75-3.86 0.4-9.02 1.94-13.5 4.02-4.77 2.22-9.08 5.21-12.58 8.75-3.26 3.29-6.75 8.29-9 12.88-3.58 7.32-3.67 7.78-3.67 19.05 0 11.31 0.08 11.71 3.69 19 2.3 4.63 5.71 9.42 9 12.66 2.92 2.86 7.79 6.57 10.81 8.23 5.38 2.96 5.43 3.02 2.25 3.04-1.79 0.01-3.25-0.43-3.25-0.98 0-0.55-0.45-0.77-1-0.5-0.55 0.27-1.23 0.05-1.5-0.5-0.27-0.55-0.95-0.77-1.5-0.5-0.55 0.27-1 0.05-1-0.5 0-0.55-1.13-1.23-2.5-1.5-1.38-0.27-3.29-0.09-4.25 0.4-0.96 0.5-4.68 1.16-14.75 2.04l-1.87-7.22c-1.03-3.97-3.24-9.92-4.91-13.22-1.67-3.3-5.44-8.36-8.38-11.25-2.96-2.91-6.73-5.58-8.46-6-1.72-0.41-3.29-1.09-3.5-1.5-0.21-0.41 0.52-0.75 1.62-0.75 1.1 0 3.41-1.24 5.13-2.75 1.73-1.51 3.75-3.99 4.5-5.5 0.76-1.51 1.65-5.11 2-8 0.41-3.48 0.1-7.1-0.94-10.75-0.96-3.4-3.05-7.22-5.46-10-2.41-2.79-5.95-5.41-9.31-6.88-4.85-2.13-6.21-2.3-12.92-1.6-4.13 0.42-9.41 0.82-16 0.98v41.25c0 25.5-0.38 42.01-1 43.25-0.94 1.88-0.67 2 4.67 2 3.11 0 5.48 0.23 5.25 0.5-0.23 0.28-4.69 0.74-9.92 1.04-5.23 0.29-10.5 1.08-11.73 1.75-1.84 1-2.54 0.92-4-0.44-0.97-0.9-2.67-1.86-3.77-2.13-1.1-0.27 1.26-0.54 12.5-0.72l-5-10c-2.75-5.5-5-10.23-5-10.5 0-0.27-1.64-3.99-3.64-8.25-2-4.26-5.64-12.02-8.09-17.25-2.45-5.23-6.72-14.68-9.48-21-2.77-6.32-6.16-13.75-10.03-21.5l-2.04 4c-1.11 2.2-4.37 9.63-7.24 16.5-2.86 6.88-9.54 22.63-14.85 35-5.3 12.38-10.76 24.86-14.63 33l15.5 0.14-5.5 1.9c-3.02 1.05-6.63 1.92-8 1.94-1.38 0.02-4.75 0.71-7.5 1.54-2.75 0.82-7.54 1.38-10.64 1.24-3.11-0.14-5.47-0.6-5.25-1.01 0.21-0.41-0.29-0.98-1.11-1.25-0.82-0.27-3.19-0.49-5.25-0.48-2.06 0-6.45-0.9-9.75-2.02-3.3-1.12-6.79-2.02-7.75-2.02-0.96 0.01-1.9-0.54-2.09-1.23-0.18-0.69-2.54-2.5-5.25-4.03-2.7-1.53-5.47-2.77-6.16-2.75-0.69 0.02-1.47-0.65-1.75-1.47-0.44-1.31-0.84-1.3-3.25 0.14-1.88 1.12-4.17 1.49-7.25 1.17-3.73-0.39-5.22 0.01-8.75 2.36-2.34 1.56-4.25 3.28-4.25 3.83 0 0.55-2.24 2.46-4.98 4.25-2.73 1.79-4.65 3.68-4.25 4.2 0.42 0.54 0.09 0.71-0.77 0.38-0.82-0.32-2.96 0.49-4.75 1.8-1.79 1.3-5.05 2.6-7.25 2.87-3.74 0.47-4.18 0.25-6.75-3.41-1.65-2.34-3.85-4.14-5.5-4.5-1.51-0.32-3.09-0.66-3.5-0.74-0.41-0.08-1.3-0.87-1.97-1.75-0.67-0.88-1.23-4.64-1.25-8.35-0.02-3.71 0.42-6.98 0.97-7.25 0.62-0.31 1 2.42 1 15l5.75 0.37c3.16 0.2 9.14 0.43 13.27 0.5 7.02 0.12 7.88-0.11 12.87-3.37 2.97-1.95 6.63-5.5 8.24-8 1.59-2.48 3.38-6.98 3.98-10 0.6-3.02 0.77-7.52 0.37-10-0.39-2.48-1.2-5.62-1.8-7-0.6-1.37-2.46-4.26-4.14-6.41-1.67-2.15-6.86-6.61-11.54-9.9-4.68-3.3-9.51-7.17-10.75-8.6-1.24-1.42-2.25-3.83-2.25-5.34 0-1.73 1.02-3.68 2.75-5.25 1.97-1.8 3.88-2.51 6.75-2.51 2.61 0 5.31 0.87 11.5 5.01v-17.5h-10.41c-9.95 0-10.6 0.13-14.75 3.01-2.5 1.74-5.32 4.92-6.66 7.5-1.92 3.71-2.27 5.71-2 11.55 0.26 5.85 0.79 7.7 3.07 10.75 1.51 2.03 7.11 6.95 12.43 10.94 5.33 3.99 10.53 8.38 11.56 9.75 1.04 1.38 2.13 4.52 2.43 7q0.55 4.5-1.06 8.25c-0.89 2.06-3.07 4.67-4.86 5.8-2.61 1.66-4.52 1.99-9.75 1.72-4.36-0.23-7.46-0.99-9.4-2.31q-2.89-1.95-1.5-2.32c0.77-0.19 1.68 0.26 2.02 1 0.4 0.87 1.75-0.72 3.75-4.39 1.72-3.16 2.93-6.09 2.68-6.5-0.25-0.41 0.65-1.99 2-3.5 1.35-1.51 2-2.75 1.45-2.75-0.55 0-1.37-1.46-1.82-3.25-0.44-1.79-2.24-4.6-3.98-6.25-1.75-1.65-2.84-3.41-2.44-3.91 0.41-0.5 0.18-0.62-0.51-0.25-0.7 0.37-2.4-0.54-3.89-2.09-1.45-1.51-3.7-5.11-5-8-2.21-4.91-2.55-5.22-5.36-4.75-1.67 0.28-3 0.06-3-0.5 0-0.55-0.68-0.77-1.5-0.5-0.86 0.29-1.73-0.24-2.04-1.25-0.29-0.96-0.27-2.87 0.06-4.25 0.35-1.51 1.29-2.5 2.37-2.5 0.98 0 2.42 0.57 3.2 1.26 1.13 1.02 1.61 1.02 2.45 0 0.57-0.69 1.53-2.38 2.13-3.76 0.59-1.37 1.61-3.85 2.25-5.5 0.93-2.37 0.9-3.15-0.12-3.73-0.72-0.41-0.96-0.75-0.55-0.75 0.41-0.01 0.19-1.03-0.5-2.27-0.69-1.24-1.25-4.61-1.25-7.5zm96.3 0.11c16.33 0.07 28.91 0.29 27.95 0.5-0.96 0.21-1.75 1.06-1.75 1.89 0 0.82 0.56 2.63 1.25 4.02 1.07 2.15 0.99 2.78-0.51 4.25-1.67 1.64-1.76 1.62-1.71-0.27 0.05-1.8-0.11-1.85-1.6-0.5-1.46 1.31-2.64 1.33-9.79 0.1-4.87-0.83-10.45-1.13-13.89-0.75-3.16 0.36-8.56 1.9-12 3.44-3.44 1.54-8.46 4.8-11.16 7.25-2.71 2.45-6.64 7.16-8.74 10.46-3.4 5.32-3.83 5.69-3.84 3.25-0.01-1.52 0.67-3.88 1.49-5.25 0.82-1.38 1.16-2.49 0.75-2.48-0.41 0.02 0.18-1 1.32-2.25 1.13-1.25 2.82-3.51 3.75-5.02 1.44-2.37 1.47-2.75 0.18-2.75-0.89 0-1.3-0.61-1-1.5 0.28-0.85-0.6-2.38-4.5-5.5l2.57-3.25c1.41-1.79 2.33-3.82 2.04-4.5-0.41-0.99 5.78-1.23 29.19-1.14zm273.55-0.11h37.8l-3.07 3c-1.7 1.65-3.08 3.67-3.08 4.5 0 0.82-1.25 2.28-2.78 3.25-1.64 1.03-2.67 2.47-2.5 3.5 0.15 0.96-0.17 1.75-0.72 1.75-0.55 0-0.74 1.01-0.41 2.25 0.32 1.23 0.54 3.03 0.5 4-0.05 0.96 0.25 1.56 0.66 1.32 0.41-0.23 1.31 0.89 2 2.5 0.81 1.91 1.68 2.67 2.49 2.18 0.74-0.45 0.96-0.35 0.54 0.25-0.38 0.55 0.19 2.68 1.26 4.75 1.08 2.06 1.51 3.52 0.96 3.25-0.55-0.28-0.77 0.17-0.5 1 0.27 0.82 0.95 1.27 1.5 1 0.55-0.28 1 0.17 1 1 0 0.82 0.45 1.5 1 1.5 0.55 0 1 0.56 1.01 1.25 0 0.68 2.25 4.51 5 8.5 2.74 3.98 5 7.58 5.01 8 0.01 0.41 2.33 2.1 5.16 3.75 4.61 2.69 5.43 3.72 7.97 10 2.44 6.02 2.84 8.36 2.85 26.5l-3.25 0.65c-1.79 0.36-4.83 0.81-6.75 0.99-1.92 0.19-4.96 0.34-6.75 0.35-1.79 0-4.38-0.44-5.75-0.99-1.38-0.55-2.71-1.79-2.97-2.75-0.26-0.97-1.83-2.77-3.5-4-1.67-1.24-3.03-2.7-3.03-3.25 0-0.55-1.01-2.47-2.25-4.25-1.24-1.79-2.25-3.55-2.25-3.92 0-0.37-0.23-0.95-0.5-1.29-0.27-0.35-2.98-0.89-11.5-1.77l-5.91 5.36c-3.24 2.95-8.32 7.73-11.27 10.62-2.95 2.88-5.8 5.25-6.34 5.25-0.54 0-1.77 0.32-2.73 0.72-1.24 0.52-1.53 0.38-1-0.5 0.41-0.67 0.3-1.22-0.25-1.22-0.55 0-0.77 0.67-0.5 1.5 0.27 0.82-0.06 1.73-0.75 2.02-0.69 0.28-3.73 0.07-12.25-1.45l5 0.38c2.95 0.22 4.39 0.04 3.5-0.44-0.83-0.46-2.85-0.94-4.5-1.07-1.65-0.13-4.24-0.18-5.75-0.09-1.96 0.1-2.61 0.58-2.25 1.65 0.27 0.82 0.16 1.52-0.25 1.54-0.41 0.03-1.28-0.54-1.93-1.25-0.64-0.71-2.44-1.29-4-1.28-1.55 0.01-3.38 0.35-4.07 0.75-0.69 0.41-1.81 0.45-2.5 0.1-0.69-0.35-4.06-0.58-7.5-0.5-3.44 0.07-6.24-0.2-6.23-0.61 0-0.42-1.68-1.29-7.52-3.13l3.5 0.69c1.93 0.38 6.65 0.64 10.5 0.58 3.85-0.06 10.04-0.29 20.5-0.89v-8.25c0-4.54-0.23-8.25-0.5-8.25-0.27 0-2.75 0.9-5.5 2-3.6 1.44-7.32 1.99-13.25 1.99-6.54-0.01-9.29-0.5-13.25-2.35-2.75-1.29-7-4.55-9.45-7.24-2.45-2.7-5.37-6.93-6.49-9.4-1.48-3.29-2.02-6.53-1.99-12 0.03-5.35 0.63-8.79 2.08-12 1.13-2.48 4.07-6.75 6.53-9.5 2.85-3.19 6.45-5.86 9.9-7.36 3.85-1.68 7.31-2.37 11.92-2.38 3.57 0 8.3 0.55 14.5 2.47l-2.5 1.86c-1.38 1.02-3.51 1.87-4.75 1.88-1.24 0.02-2.36-0.43-2.5-0.99-0.14-0.56-1.82-1.09-3.75-1.18-1.93-0.08-4.96 0.6-6.75 1.52-2.81 1.45-3.25 1.47-3.25 0.18 0-1.34-0.33-1.34-3 0-1.65 0.82-3 1.95-3 2.5 0 0.55-1.01 2.06-2.25 3.35-1.24 1.3-3.38 3.99-4.75 5.99-1.38 2.01-3.06 3.65-3.75 3.65-0.69 0-1.25 1.13-1.25 2.51 0 1.37-0.45 2.72-1 3-0.55 0.27-0.68 1.06-0.29 1.75 0.4 0.68 0.58 2.37 0.41 3.75-0.17 1.37 0.5 4.07 1.49 6 0.99 1.92 1.83 3.72 1.86 4 0.04 0.27 0.96 1.55 2.05 2.84 1.09 1.29 2.99 2.75 4.23 3.25 1.24 0.5 2.03 1.47 1.77 2.16-0.27 0.68 0.46 2.37 3.72 6.25l-3.62-6 3.44 2.75c1.89 1.52 4.46 3.77 5.71 5 1.94 1.92 3.35 2.25 9.67 2.25 5.99 0 7.83-0.39 9.73-2.03 1.28-1.12 4.35-3.41 6.83-5.1 2.48-1.69 6.52-3.83 9-4.75 2.48-0.92 6.4-3.35 8.73-5.4 2.43-2.14 4.36-4.79 4.54-6.22 0.17-1.38 1.04-3.63 1.93-5 0.99-1.51 1.62-4.5 1.59-7.5-0.02-2.75 0.27-7.48 0.65-10.5 0.38-3.03 1.23-7.23 1.88-9.34 0.65-2.11 2.43-5.04 3.95-6.5 1.53-1.47 2.76-3.23 2.75-3.91-0.01-0.69-0.69-1.25-1.52-1.25q-1.5 0-1-2c0.3-1.21 0.01-1.99-0.75-1.96-0.69 0.03-1.81-0.65-2.5-1.5-0.98-1.21-1-2.51-0.07-6.04zm-393.06 16.8c0.44 0.38 0.58 8.12 0.31 17.2-0.26 9.07-0.54 16.95-0.61 17.5-0.08 0.55 0.14 1.9 0.48 3 0.37 1.18-0.05 2.81-1.01 4-1.34 1.64-1.53 1.68-1.05 0.25 0.33-1 0.15-1.54-0.42-1.25-0.55 0.27-1 1.17-1 2 0 0.82 0.45 1.5 1 1.5 0.55 0 1.01 1.01 1.02 2.25 0.02 1.23-0.66 3.71-1.5 5.5-0.83 1.78-1.85 3.04-2.27 2.8-0.41-0.25-1.42 0.51-2.25 1.69-0.82 1.18-3.52 4.34-6 7.01-2.47 2.68-5.93 5.4-7.68 6.05-1.76 0.66-2.93 1.65-2.61 2.2 0.32 0.55-0.04 0.46-0.81-0.19-0.77-0.65-1.96-0.99-2.65-0.75-0.88 0.31-0.96 0.95-0.27 2.19 0.53 0.96 0.68 2.08 0.33 2.5-0.35 0.41-1.69 0.75-2.97 0.75-1.29 0-3.24-0.45-4.34-1-1.14-0.57-1.72-1.54-1.35-2.25 0.52-1 0.38-1-0.7 0-0.74 0.68-2.16 1.25-3.15 1.25-0.99 0-1.8 0.45-1.8 1 0 0.55-0.78 1.01-1.75 1.04-0.96 0.02-2.2 0.59-2.75 1.28-0.66 0.82-2.52 1.05-10 0.13l5-0.83c2.75-0.46 8.6-2.64 13-4.84 4.4-2.21 10.02-5.65 12.48-7.65 2.46-2 6.06-5.39 8-7.53 1.94-2.15 4.88-5.97 6.55-8.5 1.66-2.53 3.74-6.18 4.63-8.1 0.88-1.93 2.43-5.98 3.45-9 1.41-4.22 1.85-8.58 1.87-18.7 0.01-7.25 0.38-12.88 0.82-12.5zm124.2 6.21c3.3-0.02 7.58 0.23 9.5 0.56 3.31 0.57 3.39 0.67 1.5 1.95-1.62 1.09-1.76 1.59-0.73 2.66 0.7 0.72 1.26 3.45 1.25 6.07-0.01 3.32-0.47 4.9-1.52 5.25-0.82 0.27-1.49 1.51-1.48 2.75 0.01 1.23 0.41 2.92 0.89 3.75 0.51 0.87 0.47 2.96-0.09 5-0.53 1.92-1.28 5.07-1.65 7-0.27 1.33-0.45 2.16-1.16 2.68l0.24-7.24c0.14-4.15-0.2-7.99-0.75-8.51q-0.99-0.96 0.25-0.95c0.69 0.01 1.25-0.55 1.25-1.23 0-0.69-0.78-1.34-1.75-1.45-0.96-0.11-3.21 0-5 0.25-2.02 0.28-3.25 1.01-3.25 1.95 0 1.25-2.11 1.5-26 1.5l0.64-2.25c0.35-1.24 1.93-4.17 3.5-6.5 1.58-2.34 4.33-5.35 6.11-6.69 1.79-1.33 5.28-3.35 7.75-4.47 2.89-1.32 6.66-2.06 10.5-2.08zm6.5 37.99l-0.7 0.05q0.43-0.15 0.71-0.37zm-0.7 0.06c-1.34 0.48-3.84 0.55-8.8 0.65zm122.2-0.05c0.83 0 3.87 0.86 6.75 1.92 3.16 1.16 7.59 4.06 11.09 7.25 3.31 3.02 6.9 7.49 8.29 10.33 1.73 3.54 2.36 6.31 1.87 14l-2.5-4.88c-1.37-2.69-3.06-5.05-3.75-5.25-0.68-0.21-1.24-0.94-1.24-1.62 0.01-0.69-0.89-2.04-2-3-1.91-1.67-2.07-1.67-3.4 0-1.24 1.56-1.57 1.58-3.04 0.25-1.49-1.35-1.66-1.3-1.73 0.5-0.04 1.1-0.02 2.33 0.05 2.75 0.06 0.41-0.79 0.75-1.89 0.75-1.1 0-2.22-0.45-2.5-1-0.27-0.55 0.29-1 1.25-0.99q1.73 0.01 0.75-0.94c-0.55-0.53-2.91-1.1-9.5-1.57v-9.25c0-7.56 0.28-9.25 1.5-9.25zm-78.58 17l31.58-0.06 3.25 8.03c1.79 4.41 3.26 8.59 3.28 9.28 0.01 0.68-1.23 0.08-2.75-1.34-1.53-1.43-4.35-3.65-6.28-4.94-1.92-1.29-5.07-3.93-7-5.86-3.1-3.12-4.09-3.53-14.08-3.61l-7.59 8c-5.38 5.67-7.38 7.27-6.87 5.5 0.39-1.38 2.01-5.32 3.59-8.75zm79.79 4.22c1.65-0.05 3.06 0.33 3.15 0.84 0.08 0.52-0.76 1.39-1.86 1.94q-2 1-2 0c0-0.55-0.45-0.78-1-0.5-0.55 0.27-1.06-0.11-1.14-0.85-0.1-0.85 0.96-1.38 2.85-1.43zm-329.21 13.09l9-0.09c4.97-0.05 8.11 0.24 7 0.65-1.1 0.41-5.15 0.45-9 0.09z"/>
		<path id="Path 6" fill-rule="evenodd" class="s6" d="m78 214.11c14.25-0.12 18.56 0.18 23.2 1.62 3.13 0.97 8.51 3.79 11.95 6.27 3.44 2.47 8.19 5.96 10.55 7.75 2.37 1.79 4.52 3.25 4.8 3.25 0.28 0 1.39 1.01 2.47 2.25 1.08 1.24 1.98 3.04 2 4 0.02 0.96 2.5 4.22 5.53 7.25 3.03 3.02 5.95 5.5 6.5 5.5 0.55 0 1.51 1.01 2.14 2.25 0.93 1.86 0.77 2.68-3 7.25l-1.57-3.25c-0.86-1.79-2.74-4.49-4.18-6-1.43-1.51-3.57-3.88-4.75-5.25-1.18-1.38-3.49-3.16-5.14-3.97-1.65-0.81-3.45-1.64-4-1.86-0.55-0.22 0.8 0.96 3 2.62 2.2 1.66 5.57 5.1 7.5 7.64 1.93 2.54 3.84 4.61 4.25 4.59 0.41-0.01 0.97 1.33 1.25 2.98 0.28 1.65 1.18 3.23 2 3.5 0.82 0.27 1.5 1.17 1.5 2 0 0.82 1.24 3.31 2.75 5.52 1.51 2.2 2.86 3.78 3 3.5 0.14-0.29 0.93 0.15 1.75 0.98 0.82 0.82 2.29 1.31 3.25 1.08 0.96-0.24 2.09-0.46 2.5-0.5 0.41-0.05 0.75-0.98 0.75-2.08 0-1.1 0.45-2.23 1-2.5 0.56-0.28 1.03 0.93 1.06 2.75 0.07 3.18 0.09 3.2 1.07 0.75 0.7-1.72 0.65-4.37-0.15-8.5-0.74-3.85-0.91-10.12-0.48-17.5 0.64-10.99 0.82-11.7 4.01-16 1.83-2.48 4.96-6.08 6.94-8 3.53-3.42 3.74-3.48 9.33-2.76 3.15 0.4 6.17 1.2 6.72 1.76 0.55 0.57 1.79 1.03 2.75 1.02 1-0.01 1.76 0.73 1.78 1.73 0.01 0.96 1.24 3.32 2.72 5.25 2.09 2.72 2.76 4.84 3.02 9.5 0.18 3.3 0.5 6.9 0.71 8 0.2 1.1 1.31 2.34 2.45 2.75 1.63 0.59 2.01 0.38 1.77-1-0.16-0.96-0.84-2.76-1.5-4-0.66-1.24-1.2-3.49-1.19-5 0.01-1.51-0.71-5.23-1.6-8.25-0.88-3.03-2.35-6.33-3.26-7.35-0.91-1.02-3-2.55-4.65-3.39-1.65-0.85-3.22-1.93-3.5-2.41-0.28-0.49-2.97-1.16-6-1.49-4.41-0.49-5.8-0.28-7 1.06-0.82 0.92-1.95 1.65-2.5 1.62-0.55-0.03-3.38 2.09-6.29 4.7-3.71 3.34-5.72 6.1-8.18 13.76l0.56-6c0.49-5.12 1.03-6.41 3.74-8.8 1.74-1.55 4.74-3.55 6.67-4.46 1.93-0.91 4.06-2.46 4.75-3.44 0.98-1.41 2.61-1.8 7.5-1.79 3.64 0.01 7.29 0.63 8.75 1.48 1.37 0.8 3.85 2.09 5.5 2.87 1.86 0.87 4.05 3.36 5.75 6.53q2.75 5.11 2.75 9.61c0 2.47 0.51 6.64 1.14 9.25 0.63 2.61 1.65 5.37 2.25 6.13 0.86 1.06 3.63 1.29 12.2 1 8.01-0.28 11.57-0.8 12.8-1.88 1.34-1.18 1.69-3.18 1.62-17.5l4.74-5.85c2.61-3.22 6.44-6.71 8.5-7.75 2.06-1.05 4.09-2.62 4.5-3.5 0.63-1.34 1.73-1.48 6.75-0.86 3.93 0.5 6.52 1.39 7.5 2.6 0.82 1.01 3.3 2.2 5.5 2.65 3.22 0.66 4.32 1.49 5.62 4.26 0.89 1.9 2.64 7.05 3.87 11.45 1.24 4.4 2.51 8.9 2.83 10 0.54 1.88 0.43 1.87-1.87-0.25-1.79-1.64-2.25-2.78-1.7-4.25 0.56-1.5-0.07-2.89-2.5-5.53-1.79-1.95-3.36-3.3-3.5-3-0.14 0.29 0.64 1.99 1.73 3.78 1.09 1.79 2.31 5.5 2.7 8.25 0.51 3.54 1.53 5.8 6.32 10.5l-0.02-2.75c-0.01-2.22 0.23-2.51 1.25-1.48 0.84 0.84 4.33 1.26 10.32 1.25 5.9-0.01 9.47-0.45 10.27-1.27 0.67-0.69 1.19-1.93 1.17-2.75-0.02-0.82 1.25-3.98 2.83-7 1.59-3.03 3.16-6.63 3.5-8 0.34-1.38 2.97-4.98 5.85-8 5.12-5.39 5.36-5.51 12.28-6.23 3.88-0.4 8.59-0.4 10.47 0 1.93 0.41 3.99 1.71 4.75 2.98 0.73 1.24 1.89 2.23 2.58 2.2 0.69-0.02 3.12 2.79 5.41 6.25 2.28 3.47 5.1 8.1 6.25 10.3 1.15 2.2 2.1 5.24 2.09 6.75 0 1.98 0.73 3.1 2.61 4 1.93 0.93 3.86 0.99 12.27-0.75l0.36 3c0.32 2.67 0.46 2.78 1.31 1.05 0.52-1.07 2.37-3.32 4.09-5 1.73-1.68 3.49-4.4 3.91-6.05 0.43-1.65 1.82-4.69 3.11-6.75 1.29-2.06 2.79-3.75 3.34-3.75 0.55 0 1.02-0.56 1.04-1.25 0.02-0.69 0.81-1.8 1.75-2.47 0.94-0.67 1.26-1.24 0.71-1.27-0.55-0.02-2.82 1.88-5.05 4.22-2.23 2.35-5.38 5.98-7 8.07-1.62 2.08-3.29 3.77-3.7 3.75-0.41-0.03-0.22-1.29 0.44-2.8 0.65-1.51 2.79-5 4.75-7.75 1.96-2.75 4.01-5.83 4.56-6.85 0.55-1.01 2.79-2.81 4.97-4 2.18-1.18 4.43-2.7 5-3.37 0.57-0.67 2.72-1.9 4.78-2.75 2.06-0.84 5.1-1.53 6.75-1.53 1.65 0 5.36 0.94 8.25 2.09 2.89 1.15 6.26 2.5 7.5 3 1.24 0.5 2.73 2.15 3.32 3.66 0.58 1.51 1.87 3.65 2.85 4.75 0.98 1.1 2.39 4.25 3.13 7 0.74 2.75 1.92 6.12 2.64 7.5 0.71 1.37 1.3 3.29 1.3 4.25 0.01 0.96 1.02 2.43 2.26 3.26 1.3 0.87 4.47 1.5 7.5 1.5 2.89-0.01 6.15-0.46 7.25-1.01 1.5-0.75 2-2 2-5 0-2.2 0.45-4.23 1-4.5 0.55-0.28 1.34-3.5 1.75-7.17 0.67-5.95 1.04-6.78 3.4-7.75 1.46-0.59 3.59-2.32 4.75-3.83 1.37-1.79 3.41-2.96 5.85-3.37 2.06-0.34 4.51-1.57 5.44-2.75 1.42-1.78 2.59-2.09 7.25-1.88 3.06 0.14 8.82 1.32 12.81 2.63 4.62 1.51 7.87 3.23 8.97 4.75 1.37 1.89 1.78 4.98 2 15.33 0.28 12.86 0.3 12.96 2.78 13.65 1.37 0.38 4.75 0.74 7.5 0.81 2.75 0.06 5.74-0.46 6.65-1.15q1.65-1.27 2.08-7.27c0.29-4.02 1.15-6.99 2.59-9 1.19-1.65 3.18-5.02 4.42-7.5 1.85-3.67 3.63-5.28 17.26-13.13l9 0.49c4.95 0.27 10.69 1.2 12.75 2.06 2.06 0.87 6 2.03 8.75 2.58 3.38 0.68 5.46 1.73 6.43 3.25 0.79 1.24 2.18 5.4 3.09 9.25 0.91 3.85 1.84 8.24 2.07 9.75 0.22 1.51-0.25 3.99-2.51 8.25l-0.04-4.75c-0.02-2.61-0.38-4.94-0.79-5.17-0.41-0.23-1.1 2.81-1.53 6.75-0.43 3.94-1.05 8.74-1.37 10.67-0.32 1.92-1.32 4.52-2.22 5.78-0.9 1.25-1.4 2.46-1.13 2.7 0.27 0.24 1.76-0.56 3.3-1.77 2.07-1.63 3.02-3.51 3.63-7.21 0.46-2.75 0.89-4.21 0.95-3.25 0.07 0.96 0.68 1.9 1.37 2.09 0.97 0.26 0.99 0.88 0.1 2.75-0.63 1.32-2.05 4.43-3.15 6.91-1.1 2.48-3.16 5.85-4.57 7.5-1.42 1.65-2.7 4.1-2.85 5.45-0.24 2.13-1.13 2.67-6.58 4-5.14 1.27-6.06 1.79-5 2.84 1.06 1.05 0.89 1.37-0.95 1.75-1.24 0.25-2.25 0.69-2.25 0.96 0 0.27 1.62 3.54 3.6 7.25 1.98 3.71 4.61 8.1 5.84 9.75 1.24 1.65 3.11 4.78 4.16 6.95 1.04 2.18 3.24 5.33 4.88 7 1.64 1.68 3.86 5.3 4.94 8.05 1.29 3.31 2.05 8.04 2.24 14 0.28 8.47 0.21 8.82-1.15 6-0.8-1.65-2.14-4.69-2.98-6.75-1.13-2.76-2.85-4.48-6.53-6.5-2.75-1.51-5-3.09-5-3.5 0-0.41-2.25-4.01-4.99-8-2.75-3.99-5-7.81-5-8.5-0.01-0.69-0.46-1.25-1.01-1.25-0.55 0-1-0.68-1-1.5 0-0.83-0.45-1.27-1-1-0.55 0.27-1.23-0.18-1.5-1-0.27-0.83-0.05-1.27 0.5-1 0.55 0.27 0.77-0.18 0.5-1-0.27-0.83-0.84-1.32-1.25-1.1-0.41 0.23-0.83-0.11-0.94-0.75-0.1-0.63-0.33-2.12-0.5-3.31-0.17-1.19-0.65-1.97-1.06-1.75-0.41 0.23-1.31-0.91-2-2.51-0.69-1.61-1.59-2.74-2-2.5-0.41 0.23-0.71-0.37-0.66-1.33 0.04-0.96-0.18-2.76-0.5-4-0.33-1.24-0.14-2.25 0.41-2.25 0.55 0 0.87-0.79 0.72-1.75-0.17-1.03 0.86-2.47 2.5-3.5 1.53-0.96 2.76-2.31 2.75-3-0.02-0.69 1.19-2.6 2.68-4.25 1.96-2.16 3.72-3.04 6.29-3.16 1.96-0.09 4.35-0.2 5.31-0.25 0.96-0.05 1.75-0.77 1.75-1.59 0-0.83-0.45-1.5-1-1.5-0.59 0-0.49-0.91 0.25-2.24 0.69-1.23 2.45-3.82 3.91-5.75 2.24-2.96 2.53-4.06 1.86-7.01-0.55-2.41-0.37-4.28 0.59-6 0.76-1.38 1.37-3.18 1.35-4-0.01-0.83-1.14-3.3-2.5-5.5-1.36-2.2-3.33-4.45-4.38-5-1.05-0.55-3.85-2.8-6.22-5-4.19-3.89-4.51-4-11.34-3.97-4.71 0.01-8.01 0.58-10.02 1.72-1.65 0.93-5.02 3.59-7.5 5.92-2.78 2.6-5.17 6.06-6.25 9.03-0.96 2.64-1.75 6.15-1.75 7.8 0 1.65-0.45 3.22-1 3.5-0.55 0.27-1 1.4-1 2.5q0 2-2 2c-1.1 0-2.23 0.79-2.51 1.75-0.29 0.96 0.13 2.65 0.92 3.75 0.79 1.1 1.25 3.01 1.01 4.25-0.4 2.16-0.84 2.25-10.42 2.25-7.7 0-10.7-0.4-13.05-1.75-1.67-0.96-3.28-2.65-3.56-3.75-0.29-1.1-0.44-2.45-0.34-3 0.1-0.55 0.13-1.56 0.07-2.25-0.07-0.69-0.68-1.24-1.37-1.23-0.69 0.01-2.04-1.56-3-3.5-1.47-2.97-1.57-4.19-0.62-7.77 0.62-2.34 0.84-5.04 0.5-6-0.35-0.96-1.08-1.53-1.63-1.25-0.55 0.27-1.33-0.06-1.74-0.75q-0.73-1.24 0.5-0.5c0.68 0.41 1.23 0.41 1.22 0 0-0.41-0.64-2.55-1.42-4.75-0.93-2.64-1.94-3.91-2.98-3.75-0.87 0.14-1.47-0.09-1.33-0.5 0.14-0.41-0.09-0.86-0.5-1-0.41-0.14-2.44-0.96-4.5-1.83-3.33-1.4-4.09-1.41-6.75-0.1-1.65 0.81-3.79 2.42-4.75 3.58-0.97 1.17-1.42 2.65-1.01 3.35q0.73 1.24-0.5 0.5c-0.76-0.46-2.51 0.51-4.52 2.5-1.8 1.79-3.61 4.82-4.01 6.75-0.4 1.92-0.73 4.96-0.72 6.75 0.01 2.25-0.53 3.4-1.74 3.75-0.96 0.27-2.76 2.3-4 4.5-1.24 2.2-2.25 5.12-2.25 6.5 0 1.48-0.92 3.12-2.25 4.01-1.6 1.07-4.91 1.5-20.75 1.49l1-2.5c0.55-1.38 1-4.08 1-6 0-2.44-0.45-3.5-1.5-3.5-0.82 0-1.5-0.68-1.5-1.5 0-0.83-1.13-2.18-2.5-3-1.84-1.1-2.7-2.73-3.25-6.15-0.41-2.55-1.2-4.79-1.75-4.96-0.55-0.18-2.69-2.81-4.75-5.86-2.06-3.04-4.99-6.15-6.5-6.91-1.51-0.76-4.66-1.66-7-2-2.58-0.38-4.25-0.23-4.25 0.38 0 0.55-0.45 0.77-1 0.5-0.55-0.28-1.23 0.18-1.5 1-0.27 0.82-1.4 1.5-2.5 1.5-1.1 0-1.99 0.34-1.97 0.75 0.02 0.41-1.56 2.44-3.5 4.5-2.19 2.33-3.35 4.41-3.04 5.5 0.26 0.96-0.41 3.1-1.5 4.75-1.09 1.65-1.98 3.79-1.98 4.75-0.01 0.96-0.54 2.09-1.19 2.5-0.86 0.54-1 0.05-0.5-1.75 0.69-2.5 0.69-2.5-0.56-0.22-0.7 1.26-1.49 2.25-1.76 2.21-0.27-0.04-2.11 1.41-4.08 3.22-1.96 1.81-4.12 4.64-4.79 6.29-0.75 1.86-2.63 3.66-4.92 4.73-2.04 0.96-5.62 1.74-12.21 1.77l0.62-4.75c0.44-3.36 0.22-5.2-0.75-6.28-0.75-0.84-2.29-2.86-3.41-4.5-1.12-1.63-3.14-5.34-4.5-8.23-1.35-2.9-3.14-5.49-3.96-5.75-0.82-0.26-2.4-1.88-3.5-3.6-1.1-1.71-3.8-3.93-6-4.93-2.76-1.25-4.54-1.53-5.75-0.89q-1.76 0.94-2-0.22c-0.16-0.74-0.85-0.56-1.93 0.5-0.92 0.91-2.05 1.64-2.5 1.63-0.45-0.01-1.61 1.56-2.57 3.5-0.96 1.94-2.43 3.52-3.25 3.52-0.82 0-1.49 0.79-1.48 1.75 0.01 0.96-0.65 2.65-1.47 3.75-0.82 1.1-1.5 3.01-1.52 4.25-0.02 1.39-1 2.73-2.56 3.5-1.39 0.69-2.51 1.81-2.5 2.5 0.02 0.69-0.87 1.7-1.97 2.25-1.64 0.82-2 2-2 12l-9.75 0.03c-8.1 0.03-10.03-0.27-11.4-1.75-0.91-0.98-2.37-3.47-3.25-5.53-0.88-2.06-2.52-4.09-3.64-4.5-1.13-0.41-2.27-1.43-2.53-2.25-0.26-0.82-1.7-2.4-3.19-3.5-1.49-1.1-2.37-1.44-1.97-0.75 0.4 0.69 0.28 1.47-0.27 1.75-0.6 0.3-0.96-1.22-0.9-3.75 0.09-3.74 0.21-3.95 0.99-1.75 0.64 1.81 0.75 1.04 0.4-2.75-0.27-2.89-1.17-5.93-1.99-6.75-0.82-0.82-1.98-3.19-2.57-5.25-0.59-2.06-1.38-3.41-1.75-3-0.38 0.41-1.36-0.21-2.18-1.38-1.29-1.84-2.25-2.07-7-1.7-3.34 0.26-6.19 1.1-7.25 2.13-0.96 0.93-1.75 2.15-1.75 2.7 0 0.55-0.46 1.56-1.01 2.25-0.56 0.69-2.37 3.05-4.04 5.25-2.39 3.17-3.01 4.98-2.98 8.75 0.01 2.61-0.65 5.87-1.47 7.25-0.82 1.37-2.4 2.5-3.5 2.5-1.74 0-1.93 0.5-1.49 3.75 0.29 2.06 0.62 4.65 0.75 5.75 0.22 1.87-0.43 2.02-10.26 2.29-6.43 0.17-11.47-0.16-13-0.87-1.38-0.63-3.18-1.48-4-1.89-0.82-0.4-1.65-2.04-1.84-3.63-0.18-1.6-0.86-3.48-1.5-4.19-0.64-0.72-1.95-1.28-2.91-1.25-0.96 0.02-1.97-0.86-2.25-1.96q-0.5-2-3-2c-1.38 0-2.72-0.45-3-1-0.28-0.55 0.18-0.78 1-0.5 0.82 0.27 1.49 0.16 1.49-0.25-0.01-0.41-0.24-1.76-0.5-3-0.27-1.24-0.94-2.03-1.49-1.75-0.61 0.3-0.9-1.22-0.75-3.9 0.17-3.01-0.3-5.06-1.5-6.5-1.02-1.22-1.33-2.31-0.75-2.6 0.55-0.28 1-0.95 1-1.5 0-0.55-0.55-0.66-1.23-0.25q-1.24 0.77-0.6-0.75c0.35-0.82-0.21-2.63-1.25-4-1.03-1.38-1.89-1.94-1.9-1.25-0.01 0.69-1.26 1.5-2.77 1.81q-2.75 0.57-4-1c-0.69-0.86-1.7-1.34-2.25-1.06-0.55 0.27-1.04 1.29-1.08 2.25-0.04 0.96-0.27 1.19-0.5 0.5-0.25-0.76-2.02 0.42-4.5 3-2.24 2.34-4.64 5.37-5.33 6.75-0.69 1.37-1.37 6.1-1.51 10.5-0.14 4.4-0.54 8.45-0.9 9-0.39 0.59-0.15 0.69 0.58 0.25 0.68-0.41 1.29-1.76 1.36-3 0.08-1.59 0.22-1.74 0.5-0.5 0.21 0.96-0.07 2.65-0.62 3.75-0.55 1.1-0.78 2.68-0.5 3.5 0.28 0.82 0.84 1.32 1.25 1.1 0.41-0.23 0.75 0.63 0.75 1.91 0 1.89-0.27 2.11-1.44 1.15-1.17-0.94-1.28-0.87-0.57 0.34 0.49 0.82 1.09 2.62 1.34 4 0.26 1.37 0.51 4.75 0.57 7.5 0.05 2.75 0.66 6.01 1.35 7.25 0.69 1.24 0.91 2.26 0.5 2.27-0.41 0-0.17 0.34 0.55 0.75 1.02 0.58 1.05 1.36 0.12 3.73-0.64 1.65-1.66 4.12-2.25 5.5-0.6 1.37-1.56 3.07-2.13 3.76-0.84 1.02-1.32 1.02-2.45 0-0.78-0.69-2.22-1.26-3.2-1.26-1.08 0-2.02 0.99-2.37 2.5-0.33 1.37-0.35 3.29-0.06 4.25 0.31 1.01 1.18 1.54 2.04 1.25 0.82-0.27 1.5-0.05 1.5 0.5 0 0.56 1.33 0.78 3 0.5 2.81-0.47 3.15-0.16 5.36 4.75 1.3 2.89 3.55 6.49 5 8 1.49 1.55 3.19 2.46 3.89 2.09 0.69-0.37 0.92-0.25 0.51 0.25-0.4 0.5 0.69 2.26 2.44 3.91 1.74 1.65 3.54 4.46 3.98 6.25 0.45 1.79 1.27 3.25 1.82 3.25 0.55 0-0.1 1.24-1.45 2.75-1.35 1.51-2.25 3.09-2 3.5 0.25 0.41-0.79 2.98-2.3 5.71-2.41 4.36-3.06 4.89-5.25 4.37-1.38-0.33-3.08-1.11-3.79-1.72-0.72-0.61-1.28-1.45-1.25-1.86 0.02-0.41 0.94-0.75 2.04-0.75 1.1 0 2.22-0.45 2.5-1 0.28-0.55 0.95-0.77 1.5-0.5 0.55 0.27 1.02-0.74 1.04-2.25 0.01-1.51 0.64-3.88 1.39-5.25 1.19-2.2 1.1-2.98-0.72-6.5-1.14-2.2-4.98-6.7-8.52-10-5.16-4.81-6.29-5.5-5.67-3.5 0.42 1.37 2.05 4.07 3.63 6 1.57 1.93 2.86 4.06 2.86 4.75-0.01 0.69 1.23 1.51 2.74 1.83 1.51 0.33 3.08 1.11 3.48 1.75 0.41 0.65 0.75 1.96 0.75 2.92 0.01 0.96-0.66 1.75-1.48 1.75-0.82 0-1.72 0.68-2 1.5-0.28 0.82 0.06 1.79 0.75 2.14 0.88 0.45 0.66 0.96-0.75 1.72-1.1 0.6-2.35 1.1-2.79 1.11-0.43 0.02-1.1 0.55-1.5 1.19-0.39 0.64-2.96 2.29-5.71 3.66-4.06 2.02-5.24 3.21-6.25 6.34-1.02 3.13-1.01 4.58 0.09 7.84 0.74 2.2 2.88 6.13 4.75 8.72 2.06 2.85 5.79 6.15 9.41 8.3 3.3 1.97 6.56 3.44 7.25 3.28 0.72-0.18-0.24-1.76-2.31-3.8-1.96-1.93-5.38-5.3-7.61-7.5-2.22-2.2-4.44-5.01-4.94-6.25-0.49-1.24-0.89-3.6-0.89-5.25q0-3 3-6c1.65-1.65 3.34-3.02 3.75-3.04 0.41-0.03 0.18 0.53-0.52 1.25-0.76 0.77-1.26 3.81-1.25 7.54 0.01 3.91 0.59 7.09 1.54 8.5 0.83 1.24 1.73 2.14 2 2 0.26-0.14 1.72 0.02 3.23 0.34 1.65 0.36 3.85 2.16 5.5 4.5 2.57 3.66 3.01 3.88 6.75 3.41 2.2-0.27 5.46-1.57 7.25-2.87 1.79-1.31 3.93-2.12 4.75-1.8 0.86 0.33 1.19 0.16 0.77-0.38-0.4-0.52 1.52-2.41 4.25-4.2 2.74-1.79 4.98-3.7 4.98-4.25 0-0.55 1.91-2.27 4.25-3.83 3.53-2.35 5.02-2.75 8.75-2.36 3.08 0.32 5.37-0.05 7.25-1.17 2.41-1.44 2.81-1.45 3.25-0.14 0.28 0.82 1.06 1.49 1.75 1.47 0.69-0.02 3.39 1.11 6 2.5 2.61 1.39 5.09 3.2 5.5 4.02 0.44 0.88 2.44 1.6 4.9 1.75 2.28 0.14 3.99 0.49 3.8 0.76-0.2 0.27 1.54 1.05 3.85 1.73 2.31 0.67 5.32 1.36 6.7 1.52 1.37 0.16 2.39 0.85 2.25 1.52-0.14 0.68 0.2 1 0.75 0.73 0.55-0.27 0.66-1.05 0.25-1.73-0.55-0.9-0.23-1 1.25-0.37 1.1 0.48 4.25 1.32 7 1.87 3.95 0.8 6.2 0.66 10.75-0.63 3.16-0.9 6.65-1.64 7.75-1.64 1.1 0 5.16-1.01 9.01-2.25 3.86-1.24 7.01-2.81 7-3.5 0-0.69 3.13-4.51 6.97-8.5 6.95-7.23 6.99-7.25 12.25-7.2 4.68 0.04 5.66 0.44 8.77 3.57 1.93 1.95 5.52 4.92 8 6.6 2.48 1.69 5.51 4.24 6.75 5.67 1.26 1.46 2.91 2.39 3.75 2.11 0.82-0.27 1.73-0.05 2 0.5 0.27 0.55 1.18 0.77 2 0.5 0.82-0.27 1.83 0.06 2.24 0.75 0.52 0.89 0.31 1.01-0.75 0.41-0.82-0.46-0.37 0.08 1.01 1.2 2.08 1.69 3.84 2.02 10.5 1.92 4.4-0.06 8.45 0.17 9 0.5 0.55 0.34 2.24-0.48 3.75-1.83 1.51-1.35 2.75-2.79 2.75-3.2 0-0.41 1.47-0.82 3.25-0.91 1.79-0.09 2.77 0.14 2.18 0.5-0.59 0.36-1.38 1.45-1.75 2.41-0.38 0.96-2.59 2.84-4.93 4.18-3.87 2.21-4.74 2.33-9.75 1.41-3.02-0.56-7.07-0.82-9-0.59-2.15 0.25-5.23-0.36-8-1.6-2.48-1.1-6.98-3.74-10-5.85-3.02-2.12-5.84-3.84-6.25-3.82-0.41 0.01 2.63 3.28 6.77 7.27 4.14 3.99 7.28 7.48 7 7.75-0.29 0.27-1.54-0.47-2.77-1.64-1.24-1.18-5.81-3.66-10.16-5.5-4.36-1.85-8.41-4.13-9-5.06-0.64-1-2.96-1.96-5.59-2.31-4.05-0.54-5.06-0.22-10.13 3.2-3.1 2.1-6.93 4.58-8.5 5.52-1.58 0.95-4.1 2.75-5.6 4-1.5 1.26-2.97 1.95-3.25 1.54-0.29-0.41 0.72-1.36 2.23-2.11 1.51-0.75 3.31-2.67 3.98-4.25 0.68-1.59 2.48-3.99 4-5.32 1.68-1.48 2.28-2.56 1.52-2.75-0.69-0.18-3.16 1.5-5.5 3.73-2.34 2.22-6.61 4.92-9.5 6-2.89 1.07-5.36 1.74-5.5 1.48-0.14-0.26-2.73 0.45-5.75 1.58-3.02 1.14-7.19 2.47-9.25 2.98-2.06 0.5-4.99 1.55-6.5 2.33-2.55 1.33-3.09 1.22-7.5-1.5-2.61-1.6-5.93-3.26-7.38-3.67-1.45-0.41-2.8-1.09-3-1.5-0.2-0.41 0.08-0.75 0.63-0.75 0.55 0-0.35-1.13-2-2.5-1.65-1.38-3.79-2.48-4.75-2.47-0.96 0.02-2.99-0.88-4.5-2-1.51-1.11-3.2-2.03-3.75-2.03-0.55 0-1-0.45-1-1 0-0.55-0.63-0.44-1.4 0.25-1.18 1.05-0.4 2.2 4.75 7.05 3.38 3.19 7.5 6.47 9.15 7.27 1.65 0.81 3.68 1.47 4.5 1.48 0.82 0 2.18 0.62 3 1.38 0.82 0.76 3.52 1.86 6 2.45 4.33 1.02 4.23 1.05-2.5 0.67-4.46-0.26-7.36-0.91-8-1.8-0.55-0.76-3.47-2.56-6.5-3.98-3.03-1.42-6.4-3.49-7.5-4.6-1.1-1.11-2.68-1.79-3.5-1.5-0.82 0.29-2.96-0.19-4.75-1.07-2.01-0.99-4.88-1.45-7.5-1.2-2.34 0.22-5.26 0.45-6.5 0.5-1.35 0.06-4.84 2.69-8.75 6.6-5.51 5.51-7.3 6.68-11.75 7.65-2.89 0.64-8.4 1.17-12.25 1.18-3.85 0.01-9.03-0.53-11.5-1.21-2.47-0.68-5.99-2.67-7.82-4.43-1.82-1.75-4.25-4.76-5.4-6.69-1.15-1.93-3.35-4.85-4.88-6.5-1.53-1.65-3.25-5.02-3.82-7.5-0.57-2.48-1.09-7.2-1.17-10.5-0.08-3.3-0.39-5.1-0.69-4-0.29 1.1-1.48 3.04-2.63 4.31-1.45 1.6-2.78 2.13-4.34 1.75-1.24-0.31-2.25-0.11-2.25 0.44 0 0.55-3.26 4.34-7.25 8.41-3.99 4.08-7.97 8.47-8.84 9.75-0.87 1.29-3.57 2.97-6 3.75-2.43 0.77-8.46 1.72-13.41 2.11-5.25 0.42-9.83 0.32-11-0.23q-2-0.95-2.95 0.13c-0.52 0.59-2.1 1.07-3.5 1.06-1.4-0.01-3.45-0.87-4.55-1.91-1.1-1.05-2.67-2.02-3.5-2.16-0.83-0.15-3.3 0.6-5.5 1.66-2.2 1.06-4.22 2.29-4.5 2.72-0.28 0.44-7.03 0.29-15-0.33-7.98-0.63-16.3-1.77-18.5-2.55-2.2-0.78-6.06-3.33-8.58-5.66-2.51-2.34-5.89-4.81-7.5-5.49-1.6-0.68-3.63-2.71-4.5-4.5-1.02-2.11-3.28-4.14-6.42-5.76-2.67-1.38-5.9-3.85-7.19-5.5-1.29-1.65-2.78-3.56-3.33-4.25-0.54-0.69-0.98-4.18-0.98-7.75 0-5.74 0.2-6.43 1.75-5.93 0.96 0.32 2.17 0.66 2.69 0.75 0.52 0.1 1.74 1.75 2.71 3.68 1.27 2.51 2.83 3.84 9.35 5.93l-2.5-1.94c-1.38-1.07-2.05-1.94-1.5-1.94 0.55 0 2.91 1.23 5.25 2.73 2.33 1.49 4.25 3.28 4.25 3.97 0 0.69 0.45 1.25 1 1.25 0.55 0 1 0.45 1 1 0 0.55-0.34 0.8-0.75 0.57-0.41-0.24-1.43-0.07-2.25 0.37-1.14 0.61-1.2 0.96-0.25 1.43 0.69 0.35 1.25 0.18 1.25-0.37 0-0.55 0.56-0.88 1.25-0.73 0.69 0.14 3.05 1.61 5.25 3.25 2.2 1.64 4.45 3.55 5 4.24 0.55 0.7 2.01 1.48 3.25 1.75 1.24 0.27 2.92 1.17 3.75 1.99 0.83 0.82 2.86 1.84 4.52 2.25 1.67 0.41 3.02 1.09 3 1.5-0.01 0.41 1.89 0.76 4.23 0.77 3.11 0.01 3.85 0.27 2.75 0.98-0.83 0.53-1.05 0.98-0.5 0.99 0.55 0.01 6.4 0.3 13 0.64 6.6 0.35 12.67 0.61 13.5 0.6 0.83-0.02 3.3-0.34 5.5-0.72 2.21-0.37 3.45-0.3 2.77 0.16-0.85 0.58 0.07 1.66 3 3.55 2.33 1.49 4.57 2.5 4.98 2.25 0.41-0.26 0.08-1.82-0.75-3.47-1.17-2.34-1.23-3.16-0.26-3.75 0.88-0.53 1-0.31 0.43 0.75-0.45 0.82-0.22 0.73 0.51-0.21 0.72-0.94 2.11-1.73 3.07-1.75 0.96-0.02 1.75-0.49 1.75-1.04 0-0.55 0.81-1 1.8-1 0.99 0 2.41-0.56 3.15-1.25 1.07-1 1.21-1 0.7 0-0.37 0.71 0.21 1.68 1.35 2.25 1.1 0.55 3.05 1 4.33 1 1.29 0 2.62-0.34 2.98-0.75 0.35-0.41 0.2-1.54-0.34-2.5-0.68-1.23-0.6-1.88 0.28-2.19 0.69-0.24 1.88 0.1 2.65 0.75 0.76 0.66 1.13 0.74 0.81 0.19-0.32-0.55 0.85-1.54 2.6-2.19 1.76-0.66 5.22-3.38 7.69-6.06 2.47-2.67 5.18-5.82 6-7 0.82-1.18 1.84-1.94 2.25-1.7 0.41 0.25 1.43-1.01 2.27-2.8 0.84-1.79 1.51-4.26 1.5-5.5-0.01-1.24-0.47-2.25-1.02-2.25-0.55 0-1-0.68-1-1.5 0-0.82 0.45-1.73 1-2 0.57-0.29 0.75 0.25 0.42 1.25-0.48 1.44-0.29 1.39 1.05-0.25 0.96-1.18 1.37-2.82 1.01-4-0.35-1.1-0.56-2.45-0.49-3 0.07-0.55 0.36-8.2 0.64-17 0.36-11.32 0.16-16.59-0.67-18-0.65-1.1-0.94-3.57-0.64-5.5 0.31-1.93 0.92-4.97 1.37-6.77 0.59-2.39 0.47-3.27-0.44-3.25-0.72 0.01-1.25 1.3-1.25 3.02 0 1.67-0.44 2.78-1 2.5-0.55-0.27-1.03-2.19-1.07-4.25-0.04-2.06-0.15-4.95-0.25-6.42-0.1-1.46-0.63-2.59-1.18-2.5-0.55 0.1-1.38 0.62-1.84 1.17-0.49 0.58-0.6 0.26-0.25-0.75 0.34-1.01-0.05-2.17-0.91-2.75-0.92-0.61-1.29-1.87-0.97-3.25 0.43-1.81-0.33-2.83-3.91-5.25-3.61-2.44-4.23-3.27-3.28-4.44 0.9-1.12 0.88-1.29-0.09-0.75-0.69 0.38-2.39 0.13-3.78-0.56-1.39-0.69-2.51-1.59-2.5-2 0.02-0.41-0.53-0.52-1.22-0.24-0.72 0.3-1.36-0.33-1.5-1.5-0.14-1.1 0.31-2.04 1-2.08 0.69-0.04 0.35-0.43-0.75-0.86-1.13-0.45-2.22-0.38-2.5 0.16-0.28 0.52-1.51-0.21-2.75-1.64-1.24-1.42-2-3.15-1.69-3.84 0.3-0.69-0.26-1.64-1.25-2.12-1-0.48-8.11-1.09-15.81-1.35-10.61-0.36-14.18-0.82-14.75-1.88-0.41-0.77-1.54-1.39-2.5-1.38-1.48 0.01-1.52 0.15-0.25 0.88 1.12 0.65 0.62 1.03-2 1.5-1.92 0.34-5.19 0.62-7.25 0.61-2.53-0.01-3.63-0.42-3.38-1.26 0.26-0.86-1.07-1.3-4.25-1.41-2.54-0.09-6.31-0.43-8.37-0.75-2.65-0.42-3.75-0.22-3.74 0.66 0 0.69-1.69 2.15-3.75 3.25-2.07 1.09-4.23 2.68-4.81 3.52-0.58 0.84-2.73 2.19-4.77 3-2.04 0.82-3.71 2.04-3.7 2.73 0.01 0.69-1.11 2.6-2.48 4.25-1.45 1.74-3.02 2.72-3.75 2.34-0.69-0.36-0.93-0.25-0.54 0.25 0.39 0.5-0.4 2.37-1.75 4.16-1.71 2.26-2.08 3.38-1.21 3.67 0.93 0.32 0.86 0.69-0.25 1.45-1.05 0.72-1.74 0.67-2.32-0.17-0.44-0.66-0.48-0.08-0.07 1.3 0.58 1.96 0.43 2.36-0.69 1.87-1.03-0.45-1.5 0.23-1.72 2.5-0.16 1.72-1.06 3.96-2 4.98-0.93 1.02-2.83 2.46-4.2 3.19-1.38 0.73-3.51 1.14-4.75 0.9-1.24-0.24-2.95 0.12-3.79 0.81-1.37 1.11-1.54 0.32-1.5-7 0.03-5.7 0.43-8.36 1.29-8.62 0.69-0.2 1.81-2.45 2.5-5 0.69-2.55 2.37-6.43 3.75-8.63 1.37-2.2 3.32-4.3 4.33-4.67 1-0.36 4.27-2.86 7.25-5.56 2.98-2.69 7.44-5.85 9.92-7.01 2.47-1.17 4.72-2.46 5-2.88 0.27-0.41 3.09-1.9 6.25-3.31 3.16-1.42 7.89-2.86 10.5-3.21 2.61-0.35 5.87-1.19 7.25-1.87 1.65-0.81 8.45-1.28 20-1.38zm146.32 57.1c4.96 0.16 9.19 0.74 9.41 1.29 0.21 0.55-0.77 2.46-4.73 7.5l2.5 2c1.4 1.12 2.28 2.66 2 3.5-0.3 0.89 0.11 1.5 1 1.5 1.29 0 1.26 0.39-0.18 2.75-0.93 1.51-2.62 3.77-3.75 5.03-1.14 1.25-1.73 2.26-1.32 2.25 0.41-0.02 0.14 0.98-0.6 2.22-0.74 1.24-1.6 4.5-1.91 7.25-0.31 2.75-1.06 5.11-1.65 5.25-0.6 0.14-1.09 1.82-1.09 3.75 0 3.07-0.31 3.5-2.5 3.5-1.37 0-2.49-0.34-2.48-0.75 0-0.41 0.41-1.43 0.91-2.25 0.54-0.92 0.46-2.47-0.21-4-0.61-1.38-2.03-3.48-3.16-4.68-1.52-1.61-2.84-2.05-5.06-1.68-2.8 0.47-3.06 0.24-3.82-3.32-0.65-3.03-1.03-3.51-1.84-2.32-0.85 1.25-0.93 1.2-0.43-0.25 0.32-0.96 0.59-2.43 0.59-3.25 0-0.83 0.45-1.27 1-1 0.55 0.27 0.99-0.74 0.98-2.25-0.01-2.14-0.22-2.42-0.98-1.25-0.83 1.28-0.97 1.25-0.98-0.25-0.01-0.96 0.62-2.43 1.41-3.25 0.78-0.83 2.58-1.5 4-1.5 2.14 0 2.41-0.3 1.64-1.75-0.7-1.31-0.44-2.07 1-3 1.86-1.21 1.87-1.37 0.18-4.69-1.51-2.96-1.56-3.66-0.35-5.03 1.12-1.29 3.15-1.55 10.42-1.32zm87.68-0.21l1.5 3c0.82 1.65 1.5 3.67 1.5 4.5 0 0.82 1.04 2.29 2.3 3.25 1.27 0.96 2.62 2.54 3 3.5 0.39 0.96 1.6 1.75 2.7 1.75 1.77 0 1.9 0.37 1.12 3.25-0.49 1.79-1.17 4.04-1.5 5-0.34 0.96-1.07 1.52-1.62 1.25-0.55-0.27-1-0.05-1 0.5 0 0.55-1.5 3.14-3.33 5.75-1.84 2.61-4.99 8.24-7 12.5-2.02 4.26-3.67 8.54-3.66 9.5 0.01 0.96-0.56 2.98-1.25 4.48-0.75 1.63-2.79 3.35-5.01 4.25-2.06 0.84-4.65 2.87-5.75 4.52-1.1 1.65-2.45 2.77-3 2.5-0.55-0.27-1.73-0.16-2.62 0.25-0.89 0.41-2.45 2.1-3.47 3.75-1.02 1.65-1.86 3.9-1.87 5q0 2-3.28 3.19c-1.79 0.65-4.83 1.47-6.76 1.82-2.23 0.41-5.13 0.03-8-1.03-2.48-0.91-5.29-1.62-6.25-1.57-0.96 0.05-2.31-0.66-3-1.58-1.1-1.47-0.95-1.59 1.25-1.04 1.37 0.35 3.01 0.31 3.64-0.08 0.62-0.39 1.87-2.51 2.76-4.71 1.29-3.16 1.37-4.15 0.37-4.73-0.7-0.41-1.61-0.75-2.02-0.75-0.41-0.01-0.76-0.81-0.77-1.77-0.01-0.96 0.53-2.31 1.2-3 0.67-0.69 3.04-1.24 9.32-1.18l-4.5 3.93 2.25 0.65c1.24 0.36 4.27 0.97 6.75 1.36 3.05 0.48 5.39 0.26 7.25-0.65 1.63-0.81 2.75-2.17 2.75-3.36 0-1.1 0.64-2.34 1.41-2.75 0.78-0.41 1.86-2.33 3.41-7.75l0.05 4c0.03 3.21 0.3 3.77 1.34 2.83 0.96-0.88 1.12-3.15 0.61-9-0.49-5.6-0.35-8.04 0.5-8.56 0.65-0.41 0.73-0.75 0.18-0.75-0.55-0.01-1.49-1.25-2.09-2.77-0.6-1.51-1.62-4.89-2.25-7.5-1.07-4.39-0.98-5 1.21-8 1.3-1.79 2.7-4.6 3.12-6.25 0.63-2.55 0.5-2.89-0.87-2.25-0.89 0.41-2.07 0.75-2.62 0.75-0.55 0-1.17 0.79-1.38 1.75-0.22 0.96-0.43 0.17-0.48-1.75-0.05-2.07 0.62-4.23 1.64-5.27 1.46-1.5 1.53-2.15 0.47-4.25-0.69-1.36-1.36-3.12-1.49-3.91-0.13-0.78 0.65-1.63 1.75-1.88 1.09-0.25 6.38-0.51 21.49-0.69zm48.5 0.15c1.1-0.1 3.51 0.17 5.35 0.59 2.88 0.65 3.28 1.11 2.9 3.26-0.25 1.37-0.63 3.17-0.85 3.99-0.25 0.92 0.84 2.07 2.84 3 1.78 0.83 3.45 2.18 3.71 3.01 0.25 0.82 1.61 2.06 3.01 2.75 1.4 0.69 2.54 1.81 2.55 2.5 0 0.69-0.67 2.26-1.5 3.5-0.83 1.24-1.17 2.3-0.76 2.37 0.41 0.06 1.09 0.06 1.5 0 0.41-0.07 0.74 6.29 0.73 14.13-0.01 9.57-0.33 13.76-0.98 12.75-0.53-0.83-0.97-1.05-0.97-0.5q0 1-0.97 0c-0.64-0.65-0.46-3.97 0.51-9.5 1.33-7.58 1.33-8.96-0.04-12.75-1.11-3.07-2.08-4.25-3.53-4.25-1.7 0-2-0.67-2-4.5 0-4.13-0.2-4.5-2.5-4.5-1.56 0-2.5 0.57-2.5 1.5 0 0.82-0.45 1.5-1 1.5-0.59 0-1 3.5-1 8.5 0 6.52-0.29 8.33-1.25 7.78-0.69-0.4-1.7-0.78-2.25-0.85-0.55-0.07-1.56-0.19-2.25-0.28-0.69-0.08-1.24-0.71-1.22-1.4 0.02-0.69-0.86-2.15-3.93-5.25l-0.36 2c-0.19 1.1 0.03 3.57 0.51 5.5 0.47 1.92 1.06 4.06 1.3 4.75 0.25 0.69 1.01 0.93 1.7 0.53 0.69-0.4 1.81-0.85 2.5-1 0.69-0.15 1.48 0.62 1.75 1.72 0.35 1.41 1.09 1.85 2.5 1.5 1.1-0.27 2-0.05 2 0.5 0 0.55 1.23 1.56 2.73 2.25 1.51 0.69 2.86 2.04 3 3 0.2 1.28-0.33 1.68-1.98 1.5-1.24-0.14-2.8-1.15-3.46-2.25-1.07-1.75-1.22-1.41-1.25 2.75-0.02 2.61-0.49 4.98-1.04 5.25-0.55 0.27-1.04-0.06-1.08-0.75-0.05-0.75-0.29-0.65-0.61 0.25-0.47 1.33-0.62 1.33-1.4 0-0.74-1.27-0.88-1.23-0.89 0.25-0.01 1.13 0.85 1.84 2.46 2 1.36 0.14 2.49-0.09 2.5-0.5 0.01-0.41 1.26-0.1 2.77 0.69 1.51 0.79 3.76 2.59 5 4 1.24 1.41 2.81 2.41 3.5 2.23 0.69-0.18 1.81-1.42 2.49-2.75 1.23-2.41 1.23-2.41 1.25-0.17 0 1.24-0.22 2.92-0.49 3.75-0.27 0.82-1.29 1.49-2.25 1.48-0.96 0-3.24-1.47-5.06-3.25-2.59-2.54-4.15-3.23-7.25-3.23-2.16 0-3.94-0.34-3.94-0.75 0-0.41-0.68-0.75-1.5-0.75-0.82 0-1.5-0.68-1.5-1.5 0-0.83 0.45-2.63 1-4 0.55-1.38 0.66-2.29 0.25-2.04-0.41 0.26-1.43-0.66-2.25-2.02-0.82-1.37-1.95-2.48-2.5-2.46-0.55 0.02-1.88-0.98-2.95-2.22-1.08-1.24-1.87-2.37-1.75-2.51 0.11-0.14 0.2-0.93 0.2-1.75 0-0.83-0.45-1.27-1-1-0.55 0.27-0.77-0.18-0.5-1 0.27-0.83-0.64-3.64-2.03-6.25-1.39-2.61-2.52-5.54-2.5-6.5 0.02-0.96-0.42-1.75-0.97-1.75-0.55 0-1.23-0.9-1.5-2-0.27-1.1-1.18-2.68-2-3.5-1.33-1.33-1.25-1.5 0.75-1.54 1.44-0.03 3.06-1.29 4.5-3.5 1.24-1.9 2.25-4.14 2.25-4.96 0-0.83 1.01-2.6 2.25-3.93 1.31-1.42 3.72-2.61 5.75-2.84 1.93-0.23 4.4-0.49 5.5-0.58zm85-0.11c4.4-0.05 8.34 0.14 8.75 0.43 0.41 0.29-0.39 2.22-1.78 4.28-1.39 2.06-2.52 4.09-2.5 4.5 0.02 0.41 0.71 1.42 1.53 2.25 0.82 0.82 1.5 2.17 1.5 3 0 0.82 0.68 1.73 1.5 2 1.27 0.42 1.2 0.95-0.5 3.5-1.1 1.65-2.45 2.77-3 2.5-0.55-0.27-0.77 0.17-0.5 1 0.28 0.83-0.83 2.83-2.5 4.5-1.65 1.65-3.9 3-5 3-1.1 0-2 0.34-2 0.75 0 0.41-0.56 0.84-1.25 0.96-0.69 0.11-3.05 0.39-5.25 0.61-3.14 0.31-4.39-0.06-5.83-1.71-1-1.16-2.03-3.24-2.28-4.61-0.24-1.38-1.33-3.51-2.42-4.75-1.08-1.24-1.63-2.24-1.22-2.23 0.41 0.01 0.18-0.56-0.52-1.25-0.69-0.7-1.26-1.61-1.25-2.02 0.01-0.41 0.7-0.75 1.52-0.75 0.89 0 1.3-0.61 1-1.5-0.29-0.88 1.61-3.84 4.57-7.13 2.79-3.1 6.05-6 7.25-6.44 1.2-0.44 5.78-0.84 10.18-0.89zm90.5-0.04l-0.57 2.75c-0.32 1.51-0.65 3.87-0.75 5.25-0.13 1.73 0.51 2.81 2.06 3.5 1.47 0.65 2.08 1.6 1.75 2.75-0.31 1.11 0.06 1.75 1.01 1.75 0.83 0 1.51 0.56 1.52 1.25 0.01 0.69-1.22 2.45-2.75 3.91-1.52 1.47-3.3 4.39-3.95 6.5-0.65 2.11-1.5 6.32-1.88 9.34-0.38 3.02-0.67 7.75-0.65 10.5 0.03 3.01-0.6 6-1.59 7.5-0.89 1.37-1.76 3.62-1.93 5-0.18 1.43-2.11 4.09-4.54 6.22-2.33 2.05-6.25 4.48-8.73 5.4-2.48 0.93-6.52 3.06-9 4.75-2.48 1.69-5.4 3.91-6.5 4.93-1.29 1.2-3.11 1.74-5.14 1.53-1.83-0.19-2.88 0.07-2.5 0.62 0.4 0.59-1.45 0.68-4.86 0.25-3.64-0.46-6.3-1.46-7.86-2.95-1.29-1.24-3.99-3.92-6-5.97-2-2.04-4.09-3.72-4.64-3.72-0.55-0.01-2.01-1.15-3.25-2.54-1.24-1.38-2.29-2.86-2.34-3.27-0.04-0.41-0.6-1.33-1.25-2.04-0.89-0.99-0.87-1.29 0.09-1.25 0.69 0.02 1.81 1.18 2.5 2.57 0.69 1.39 1.59 2.51 2 2.5 0.41-0.02 0.76-0.37 0.78-0.78 0.01-0.41-0.77-2.67-1.75-5.01-0.98-2.35-2.13-3.92-2.56-3.5-0.43 0.42-0.76-0.37-0.73-1.74 0.02-1.38-0.53-3.12-1.22-3.88-1.03-1.11-0.99-1.46 0.23-1.85 1.33-0.43 1.33-0.58 0-1.36-1.33-0.78-1.33-0.89 0-0.94 0.82-0.03 2.96-1.38 4.75-3.01 1.79-1.63 3.02-2.96 2.75-2.96-0.27 0 0.18-1.13 1-2.5 0.82-1.38 1.16-2.49 0.75-2.48-0.41 0.01-2.06 1.25-6.59 5.48l2.42-3.5c1.33-1.93 3.2-4.29 4.17-5.25 0.96-0.96 1.75-2.2 1.75-2.75 0-0.55 1.35-1.68 3-2.5 2.67-1.33 3-1.33 3 0 0 1.3 0.44 1.27 3.25-0.17 1.79-0.92 4.82-1.61 6.75-1.52 1.93 0.08 3.61 0.61 3.75 1.17 0.14 0.56 1.15 1.02 2.25 1.02 1.1 0 3.15-0.79 4.56-1.75 2.19-1.5 2.95-1.56 5.25-0.47 1.48 0.7 2.8 1.15 2.94 1 0.14-0.16 0.59-2.84 1-5.96 0.41-3.12 0.98-5.66 1.25-5.63 0.27 0.03 1.29-0.01 2.25-0.07 1.04-0.07 1.75-0.93 1.75-2.12 0-1.1 0.56-2.01 1.25-2.03 0.69-0.02 2.04-0.69 3-1.5 1.66-1.39 1.64-1.61-0.37-4.22-1.23-1.6-1.87-3.48-1.52-4.5 0.51-1.51 1.96-1.75 20.64-1.75zm-255.09 25.5c1.42 0.37 2.88 1.19 3.23 1.83 0.35 0.65 1.02 0.88 1.5 0.52 0.47-0.36 0.96-0.14 1.09 0.5 0.12 0.63 0.62 3.17 1.1 5.65 0.57 2.88 0.52 5.22-0.14 6.5-0.57 1.1-1 3.57-0.95 5.5 0.04 1.92 0.36 5.07 0.72 7 0.56 3.04 0.34 3.62-1.66 4.37-1.26 0.48-4.24 1.38-10.91 3.13l0.48-3c0.26-1.65 0.87-4.58 1.36-6.5 0.48-1.93 0.63-5.17 0.33-7.22q-0.56-3.71 0.69-4.25c0.75-0.31 1.26-2.45 1.27-5.28 0.01-2.61-0.49-5.2-1.11-5.75-0.62-0.55-0.78-1.6-0.36-2.33 0.5-0.87 1.65-1.1 3.36-0.67zm161.59 8.5c1.03 0 1.5 1.02 1.48 3.25-0.01 2.41-0.25 2.86-0.94 1.75-0.68-1.09-1.03-0.28-1.31 3-0.32 3.82-0.41 3.55-0.56-1.75-0.13-4.97 0.14-6.25 1.33-6.25zm-170.72 7.31c2 0.06 3.27 0.61 3.25 1.39-0.01 0.72-0.71 1.53-1.53 1.8-0.82 0.27-3.07 0.5-5 0.5-2.25 0-3.59-0.51-3.74-1.43-0.13-0.78 0.65-1.63 1.75-1.89 1.09-0.25 3.47-0.42 5.27-0.37zm139.92 36.69c0.17 0 0.98 0.67 1.8 1.5 0.82 0.82 1.16 1.51 0.75 1.52-0.41 0-0.07 0.45 0.75 0.98 1.21 0.78 1.07 0.97-0.75 0.98-1.24 0.01-2.02-0.43-1.75-0.98 0.27-0.55 0.05-1-0.5-1-0.55 0-1 0.67-1 1.5 0 0.82-0.34 2.26-0.75 3.2-0.65 1.47-0.32 1.6 2.5 1 2.89-0.62 3.44-0.37 5 2.3 0.96 1.65 2.54 3.23 3.5 3.5 0.96 0.28 1.75 0.95 1.75 1.5 0 0.55-0.45 1-1 1-0.55 0-1.7-0.56-2.55-1.25-0.85-0.69-2.09-1.75-2.75-2.35-0.66-0.61-2.1-0.87-3.2-0.58-1.1 0.28-2.63 1.46-3.41 2.6-1.21 1.8-1.55 1.88-2.5 0.58-0.6-0.83-2.55-2.06-4.34-2.75-3.07-1.18-3.39-1.08-5.75 1.75-1.37 1.65-2.66 2.66-2.87 2.25-0.2-0.41-0.42-2.89-0.5-5.5-0.07-2.61 0.32-4.98 0.87-5.25 0.55-0.27 0.99-0.03 0.98 0.54-0.01 0.7 0.63 0.69 1.99-0.04 1.1-0.59 2-1.5 2.01-2.04 0.01-0.53-0.77-0.91-1.73-0.84-0.96 0.06-2.24 0.06-2.83 0-0.6-0.07-1.01-0.68-0.92-1.37 0.11-0.83 1.5-1.14 4.08-0.92 2.16 0.18 4.37 0.75 4.92 1.27 0.65 0.6 0.38 0.93-0.75 0.92-0.96-0.01-1.52 0.43-1.25 0.98 0.27 0.55 1.4 1 2.5 1 1.1 0 1.95-0.34 1.88-0.75-0.06-0.41-0.08-1.65-0.04-2.75 0.06-1.8 0.24-1.85 1.76-0.5 1.51 1.34 1.8 1.31 2.75-0.25 0.58-0.96 1.19-1.75 1.35-1.75zm144.45 1.23c3.11 0.15 6.03 0.64 6.5 1.1 0.47 0.46 0.85 1.14 0.85 1.5 0 0.37 1.01 2.13 2.25 3.92 1.24 1.79 2.25 3.7 2.25 4.25 0 0.55 1.36 2.01 3.03 3.25 1.67 1.24 3.24 3.04 3.5 4 0.26 0.96 1.6 2.2 2.97 2.75 1.38 0.55 3.96 1 5.75 0.99 1.79 0 4.83-0.16 6.75-0.34 1.92-0.19 4.96-0.63 6.75-0.99 3.17-0.64 3.25-0.58 3.25 2.84 0 3.33-0.21 3.55-4.5 4.5-3.4 0.76-6.27 0.62-11.75-0.54-5.12-1.09-8.08-2.34-10.08-4.25-1.56-1.49-3.58-3.95-4.5-5.47-1.04-1.71-2.52-2.76-3.92-2.75-1.34 0.01-2.86-1-3.75-2.49-0.83-1.38-1.73-2.27-2-2-0.27 0.27-0.1 1.29 0.39 2.25 0.49 0.96 3.36 4.45 6.39 7.75 3.05 3.32 7.68 7.06 10.37 8.38 4.42 2.17 5.67 2.32 14.1 1.75 8.79-0.6 9.25-0.53 9.25 1.37 0 1.9-0.67 2-13.75 2.01-13.47 0-13.78-0.05-15.25-2.42-0.83-1.33-4.54-5.6-8.25-9.5-5.44-5.71-7.33-7.09-9.75-7.09-1.98 0-3.53 0.76-4.55 2.25-0.86 1.24-4.57 4.37-8.25 6.95-3.69 2.59-7.16 5.07-7.73 5.5-0.57 0.44-2.48 1.59-4.25 2.55-1.77 0.96-4.46 1.71-5.97 1.67-1.52-0.04-2.08-0.32-1.25-0.61 0.83-0.3 3.43-1.5 5.79-2.67 2.35-1.18 4.49-2.93 4.75-3.89 0.25-0.96 0.91-1.75 1.46-1.75 0.55 0 0.8-0.34 0.55-0.75-0.24-0.41 0.45-2.33 3.54-7.75l-4.04 4.25c-2.23 2.34-5.29 4.78-6.8 5.42-1.51 0.64-6.58 1.28-11.25 1.41-4.67 0.14-11.76 0.51-15.75 0.84-4.56 0.36-7.25 0.21-7.25-0.42 0-0.55-2.14-1.32-4.75-1.7-2.61-0.39-5.05-0.72-5.42-0.75-0.36-0.03-1.04-0.4-1.5-0.83-0.46-0.43-1.62-0.76-2.58-0.75-0.96 0.02-1.75-0.42-1.75-0.97 0-0.55-0.9-0.77-2-0.5-1.1 0.27-1.81 0.16-1.57-0.25 0.23-0.41-2.36-1.31-5.75-1.99-3.4-0.68-7.42-1.24-8.93-1.25-1.51-0.01-2.98 0.44-3.25 0.99-0.27 0.55-3.87 1-8 1-4.12 0-7.73 0.45-8 1-0.27 0.55-2.98 1-6 1-4.41 0-6.05-0.48-11-4.87l4 0.91c2.2 0.5 5.13 0.87 6.5 0.82 2.31-0.09 2.28-0.16-0.5-0.89-2.43-0.64-1.99-0.76 2.29-0.63 3.76 0.11 5.56-0.27 6.22-1.34 0.61-0.98 2.95-1.62 6.71-1.83 3.18-0.19 6.57-0.75 7.53-1.25 0.96-0.51 2.88-0.69 4.25-0.42 1.38 0.27 2.5 0.95 2.5 1.5 0 0.55 0.45 0.77 1 0.5 0.55-0.27 1 0.17 1 1 0 0.93 0.86 1.45 2.25 1.38 1.24-0.07 4.95 0.43 8.25 1.11 3.3 0.69 6.23 1.6 6.5 2.03 0.27 0.43 1.96 1.05 3.75 1.38 1.79 0.33 3.26 0.26 3.27-0.15 0.01-0.41 1.92-0.45 4.25-0.09 2.33 0.36 4.68 0.37 5.23 0.02 0.55-0.36 2.27-0.65 3.82-0.66 1.56-0.01 3.36 0.56 4 1.27 0.65 0.72 1.52 1.28 1.93 1.25 0.41-0.02 0.52-0.72 0.25-1.54-0.36-1.07 0.29-1.54 2.25-1.65 1.51-0.08 4.1-0.04 5.75 0.09 1.65 0.14 3.67 0.62 4.5 1.07 0.89 0.49-0.55 0.67-8.5 0.07l5.5 0.98c3.02 0.54 6.06 0.75 6.75 0.46 0.69-0.29 1.02-1.2 0.75-2.02-0.27-0.83-0.05-1.5 0.5-1.5 0.55 0 0.66 0.53 0.25 1.18-0.55 0.87-0.08 0.97 1.75 0.37 1.38-0.45 3.18-1.32 4.02-1.93 0.84-0.62 4.63-4.05 8.42-7.62 3.8-3.58 8.07-7.74 9.48-9.27 2.31-2.47 3.17-2.73 8.23-2.5zm-154.82 13.6c0.64 0.73 1.67 2.75 2.28 4.5 0.62 1.74 1.43 3.84 1.8 4.67 0.48 1.05-0.08 1.73-1.86 2.25-1.4 0.41-4.24 2.09-6.3 3.74-2.06 1.64-5.32 3.44-7.25 4-1.92 0.55-7.06 1.01-11.42 1.01-4.35 0-7.73-0.19-7.5-0.43 0.23-0.24 3.35-0.51 6.92-0.61 3.59-0.09 8.29-0.94 10.5-1.9 2.2-0.95 5.46-3.38 7.25-5.4 2.34-2.63 3.41-4.99 3.83-8.41 0.46-3.74 0.83-4.47 1.75-3.42zm-12.83 5.25l-2 2.04c-1.88 1.91-2.45 1.96-9.24 0.87-3.98-0.63-7.8-0.83-8.5-0.43q-1.3 0.76-0.26-0.35c0.55-0.59 2.8-1.22 5-1.39 2.2-0.18 6.48-0.41 15-0.74zm67.61 3.92c0.49 0 0.89 0.23 0.89 0.5 0 0.27-0.64 1.17-1.43 2-0.78 0.82-2.7 1.44-4.25 1.36-2.29-0.11-2.4-0.21-0.61-0.56 1.22-0.23 2.73-1.07 3.36-1.86 0.64-0.79 1.55-1.44 2.04-1.44zm10.17 3c0.95 0 2.73 1.11 3.97 2.46 1.24 1.35 3.37 2.46 4.75 2.47 1.38 0 3.85 1 5.5 2.22 2.82 2.1 3.71 2.2 15 1.68 6.6-0.31 10.65-0.22 9 0.19-1.65 0.41-8.29 0.8-14.75 0.86-9.4 0.1-11.97-0.18-12.86-1.38-0.61-0.83-2.92-2.07-5.13-2.75-2.2-0.69-4.73-2.26-5.6-3.5-1.47-2.08-1.46-2.25 0.12-2.25zm-165.33 4.02c1.09 0.02 0.8 0.61-0.95 1.98-1.37 1.08-3.62 1.96-5 1.97-1.37 0-4.97 0.72-8 1.6-3.02 0.87-7.75 1.43-15.5 0.92l4-1.11c2.2-0.61 8.05-1.65 13-2.3 4.95-0.66 9.43-1.62 9.95-2.14 0.52-0.52 1.65-0.93 2.5-0.92z"/>
		<path id="Path 7" fill-rule="evenodd" class="s7" d="m0 0h600v119.5c0 65.72-0.23 119.5-0.5 119.5-0.27 0-1.2-3.26-2.06-7.25-0.86-3.99-2.21-8.26-3-9.5-0.97-1.52-3.07-2.58-6.44-3.25-2.75-0.55-6.69-1.71-8.75-2.58-2.06-0.86-7.8-1.79-21.75-2.55l-7.5 4.32c-6.13 3.53-7.91 5.14-9.76 8.81-1.24 2.48-3.23 5.85-4.42 7.5-1.44 2.01-2.3 4.98-2.59 9q-0.43 6-2.08 7.27c-0.91 0.69-3.9 1.21-6.65 1.15-2.75-0.07-6.13-0.43-7.5-0.81-2.48-0.69-2.5-0.79-2.78-13.65-0.22-10.35-0.63-13.44-2-15.33-1.1-1.52-4.35-3.24-8.97-4.75-3.99-1.31-9.75-2.49-12.81-2.63-4.66-0.21-5.83 0.1-7.25 1.88-0.93 1.18-3.38 2.41-5.44 2.75-2.44 0.41-4.48 1.58-5.85 3.37-1.16 1.51-3.29 3.24-4.75 3.83-2.36 0.97-2.73 1.8-3.4 7.75-0.41 3.67-1.2 6.89-1.75 7.17-0.55 0.28-1 2.3-1 4.5 0 3-0.5 4.25-2 5-1.1 0.55-4.36 1-7.25 1.01-3.03 0-6.2-0.63-7.5-1.5-1.24-0.83-2.25-2.3-2.26-3.26 0-0.96-0.59-2.88-1.3-4.25-0.72-1.38-1.9-4.75-2.64-7.5-0.74-2.75-2.15-5.9-3.13-7-0.98-1.1-2.27-3.24-2.85-4.75-0.59-1.51-2.08-3.16-3.32-3.66-1.24-0.5-4.61-1.85-7.5-3-2.89-1.15-6.6-2.09-8.25-2.09-1.65 0-4.69 0.69-6.75 1.53-2.06 0.85-4.21 2.08-4.78 2.75-0.57 0.67-2.82 2.19-5 3.37-2.18 1.19-4.42 2.99-4.97 4-0.55 1.02-2.62 4.1-4.6 6.85-1.99 2.75-4.69 7.61-6 10.79-2.08 5.01-2.87 5.92-5.9 6.75-1.93 0.52-4.51 0.95-5.75 0.95-1.24 0.01-3.15-0.44-4.25-0.99-1.27-0.64-2-2-2-3.75 0.01-1.51-0.94-4.55-2.09-6.75-1.15-2.2-3.97-6.83-6.25-10.3-2.29-3.46-4.72-6.27-5.41-6.25-0.69 0.03-1.85-0.96-2.58-2.2-0.76-1.27-2.82-2.57-4.75-2.98-1.88-0.4-6.59-0.4-10.47 0-6.92 0.72-7.16 0.84-12.28 6.23-2.88 3.03-5.51 6.63-5.85 8-0.34 1.38-1.91 4.97-3.5 8-1.58 3.03-2.85 6.18-2.83 7 0.02 0.82-0.5 2.06-1.17 2.75-0.8 0.82-4.31 1.24-10.27 1.22-5.52-0.02-9.67-0.51-10.65-1.25-0.88-0.67-1.83-2.57-2.1-4.22-0.28-1.65-1.53-6.6-2.78-11-1.25-4.4-3.01-9.55-3.9-11.45-1.3-2.77-2.4-3.6-5.62-4.26-2.2-0.45-4.68-1.64-5.5-2.65-0.98-1.21-3.57-2.1-7.5-2.6-5.02-0.62-6.12-0.48-6.75 0.86-0.41 0.88-2.44 2.45-4.5 3.5-2.06 1.04-5.89 4.53-13.24 13.6l0.04 8c0.03 6.32-0.32 8.32-1.66 9.5-1.23 1.08-4.79 1.6-12.8 1.88-8.57 0.29-11.34 0.06-12.2-1-0.6-0.76-1.62-3.52-2.25-6.13-0.63-2.61-1.14-6.78-1.14-9.25q0-4.5-2.75-9.61c-1.7-3.17-3.89-5.66-5.75-6.53-1.65-0.78-4.12-2.07-5.5-2.87-1.46-0.85-5.11-1.47-8.75-1.48-4.82-0.01-6.54 0.39-7.5 1.74-0.69 0.96-2.6 2.41-4.25 3.22-1.65 0.81-4.57 2.66-6.5 4.12-3.48 2.63-3.51 2.71-4.75 14.28-0.69 6.39-1.7 11.63-2.25 11.63-0.55 0-1.11 1.01-1.25 2.25q-0.25 2.25-2.5 2.5c-1.24 0.14-2.27 0.81-2.29 1.5-0.02 0.69-0.7 0.01-1.5-1.5-0.8-1.51-1.91-2.75-2.46-2.75-0.55 0-3.47-2.47-6.5-5.5-3.03-3.03-5.51-6.29-5.53-7.25-0.02-0.96-0.92-2.76-2-4-1.08-1.24-2.19-2.25-2.47-2.25-0.28 0-2.43-1.46-4.8-3.25-2.36-1.79-7.11-5.28-10.55-7.75-3.44-2.47-8.82-5.3-11.95-6.28-4.66-1.45-8.89-1.74-23.2-1.6-11.35 0.11-18.38 0.6-20 1.38-1.37 0.67-4.64 1.51-7.25 1.86-2.61 0.35-7.34 1.79-10.5 3.21-3.16 1.41-5.98 2.9-6.25 3.31-0.27 0.42-2.52 1.71-5 2.88-2.48 1.16-6.75 4.34-9.5 7.05-2.75 2.71-6.01 5.21-7.25 5.56-1.24 0.35-3.32 2.32-4.63 4.38-1.31 2.06-3.05 6-3.87 8.75-0.82 2.75-2 5.11-2.62 5.25-0.84 0.18-1.13-33.31-1.13-128.75zm599.63 245c0.2 0 0.37 2.25 0.37 5 0 2.75-0.45 5-1 5-0.55 0-1.23-1.12-1.5-2.5-0.27-1.37 0.01-3.62 0.63-5 0.62-1.37 1.29-2.5 1.5-2.5zm-0.15 13c0.28 0 0.51 16.76 0.5 37.25-0.01 24.81-0.34 36.75-1 35.75-0.54-0.82-1.43-3.19-1.98-5.25-0.55-2.06-2.59-5.44-4.54-7.5-1.95-2.06-4.27-5.32-5.16-7.25-0.88-1.93-2.62-4.85-3.86-6.5-1.23-1.65-3.86-6.04-5.84-9.75-1.98-3.71-3.6-6.98-3.6-7.25 0-0.27 1.01-0.71 2.25-0.96 1.84-0.38 2.01-0.7 0.95-1.75-1.06-1.05-0.14-1.57 5-2.84 5.45-1.33 6.34-1.87 6.58-4 0.15-1.35 1.43-3.8 2.85-5.45 1.41-1.65 3.38-4.8 4.36-7 0.99-2.2 2.06-4.79 2.38-5.75 0.32-0.96 0.82-1.75 1.11-1.75zm-598.48 87c0.55 0 1 0.45 1 1 0 0.55 1.05 2.24 2.33 3.75 1.28 1.51 4.5 3.88 7.17 5.25 3.14 1.62 5.4 3.65 6.42 5.76 0.87 1.79 2.9 3.82 4.5 4.5 1.61 0.68 4.99 3.15 7.5 5.49 2.52 2.33 6.38 4.88 8.58 5.66 2.2 0.78 10.53 1.92 18.5 2.55 7.98 0.62 14.73 0.77 15 0.33 0.28-0.43 2.3-1.66 4.5-2.72 2.2-1.06 4.68-1.81 5.5-1.66 0.83 0.14 2.4 1.11 3.5 2.16 1.1 1.04 3.15 1.9 4.55 1.91 1.4 0.01 2.98-0.47 3.5-1.06q0.95-1.08 2.95-0.13c1.17 0.55 5.75 0.65 11 0.23 4.95-0.39 10.98-1.34 13.41-2.11 2.43-0.78 5.13-2.46 6-3.75 0.87-1.28 4.85-5.67 8.84-9.75 3.99-4.07 7.25-7.86 7.25-8.41 0-0.55 1.01-0.75 2.25-0.44 1.56 0.38 2.89-0.15 4.34-1.75 1.15-1.27 2.34-3.21 2.63-4.31 0.3-1.1 0.61 0.7 0.69 4 0.08 3.3 0.6 8.02 1.17 10.5 0.57 2.48 2.29 5.85 3.82 7.5 1.53 1.65 3.73 4.57 4.88 6.5 1.15 1.93 3.58 4.94 5.4 6.69 1.83 1.76 5.35 3.75 7.82 4.43 2.48 0.68 7.65 1.22 11.5 1.21 3.85-0.01 9.36-0.54 12.25-1.18 4.45-0.97 6.24-2.14 11.75-7.65 3.91-3.91 7.4-6.54 8.75-6.6 1.24-0.05 4.16-0.28 6.5-0.5 2.62-0.25 5.49 0.21 7.5 1.2 1.79 0.88 3.93 1.36 4.75 1.07 0.83-0.29 2.4 0.39 3.5 1.5 1.1 1.11 4.48 3.18 7.5 4.6 3.03 1.42 6.03 3.29 6.67 4.16 0.92 1.23 3.7 1.65 13 1.93 8.81 0.26 13.23-0.06 17.33-1.26 3.03-0.89 6.63-1.63 8-1.63 1.38-0.01 3.63-0.89 5-1.97 1.38-1.08 3.29-1.97 4.25-1.98 0.96-0.01 3.21-1.31 5-2.88 1.79-1.58 4.83-3.67 6.75-4.67 1.93-0.99 5.3-3.11 7.5-4.72 3.5-2.57 4.56-2.85 8.5-2.29 2.6 0.36 4.96 1.35 5.59 2.34 0.59 0.93 4.64 3.21 9 5.06 4.35 1.84 8.81 4.13 9.91 5.08 1.1 0.96 5.04 2.71 8.75 3.9 4.36 1.39 9.32 2.16 14 2.16 3.99 0 8.83-0.46 10.75-1.01 1.93-0.56 5.3-2.46 7.5-4.23 3.26-2.61 4.93-3.22 9-3.27 2.75-0.04 6.03-0.73 7.28-1.53 1.59-1.02 2.5-1.13 3-0.37 0.4 0.59 2.75 2.27 5.22 3.72q4.5 2.65 9 2.69c2.48 0.02 5.4-0.63 6.5-1.45q2.01-1.48 9.32-1.52c5.17-0.02 7.74-0.47 8.75-1.53 1.13-1.19 2.21-1.3 5.18-0.52 2.06 0.54 4.65 2.09 5.75 3.44 1.11 1.36 3.9 2.94 6.25 3.52 2.34 0.58 4.48 1.74 4.75 2.56 0.42 1.27 2.6 1.42 14.25 0.97 7.56-0.29 18.48-0.85 24.25-1.25 6.41-0.44 11.46-1.3 12.95-2.22 1.35-0.82 2.92-1.86 3.5-2.3 0.58-0.43 4.06-2.91 7.75-5.5 3.68-2.58 7.39-5.71 8.25-6.95 1.02-1.49 2.57-2.25 4.55-2.25 2.42 0 4.31 1.38 9.75 7.09 3.71 3.9 7.42 8.17 8.25 9.5 1.47 2.37 1.78 2.42 29 2.41v216h-600v-127.5c0-84.33 0.34-127.5 1-127.5z"/>
		<path id="Path 8" class="s0" d="m179 229.71c-0.82 0.3-2.3 1.28-3.28 2.17-0.98 0.89-1.78 2.74-1.77 4.12 0.01 1.37 0.59 3.24 1.28 4.14 0.7 0.9 3.18 2.82 5.52 4.25 3.3 2.03 4.26 3.22 4.29 5.36 0.03 1.51-0.7 3.43-1.61 4.25-1.22 1.11-2.66 1.31-5.54 0.75-3.68-0.71-3.89-0.62-3.89 1.75 0 2.34 0.33 2.5 5.08 2.5 4.32 0 5.51-0.44 8-3 2-2.05 2.93-4.03 2.94-6.25 0.02-2.28-0.8-4.01-2.75-5.82-1.52-1.41-4.01-3.32-5.52-4.25-1.52-0.93-2.75-2.57-2.75-3.68q0-2 2.5-2.5c1.38-0.28 3.2 0.06 4.04 0.75 1.33 1.07 1.54 0.85 1.5-1.5-0.03-2.02-0.64-2.88-2.29-3.24-1.24-0.26-2.7-0.45-3.25-0.42-0.55 0.04-1.68 0.32-2.5 0.62zm379.09 0.64c-1.87 0.76-4.46 2.79-5.75 4.52-1.85 2.47-2.34 4.4-2.34 9.13 0 4.33 0.56 6.83 2 9 1.1 1.65 3.35 3.68 5 4.5 1.65 0.82 4.69 1.5 6.75 1.5 2.06 0.01 5.26-0.78 7.11-1.75 1.85-0.96 4.21-3.32 5.25-5.25 1.07-1.97 1.89-5.47 1.89-8 0-2.73-0.79-5.78-2-7.75-1.1-1.79-3.01-3.93-4.25-4.77-1.24-0.83-4.05-1.74-6.25-2.01-2.27-0.28-5.47 0.1-7.41 0.88zm-308.09 13.9v14.25c16.72 0.49 17 0.43 17-1.75 0-2.13-0.35-2.24-6.5-2l-6.5 0.25v-9c8.33 0 9-0.3 9-2 0-1.7-0.67-2-4.5-2h-4.5v-8c12.33 0 13-0.21 13-2 0-1.84-0.67-2-8.5-2h-8.5zm230 0.25v14.5c16.65-0.48 17.5-0.69 17.5-2.43 0-1.73-0.67-1.92-6.25-1.75l-6.25 0.18v-9c8.33 0 9-0.3 9-2 0-1.7-0.67-2-4.5-2h-4.5v-8c12.33 0 13-0.21 13-2 0-1.85-0.67-2-9-2h-9zm68.33 45.7c-2.3 5.11-5.96 13.35-8.14 18.3-2.17 4.95-6 13.95-8.5 20-2.5 6.05-6.11 14.37-8.01 18.5-1.9 4.12-4.63 10.09-6.06 13.25-1.44 3.16-2.62 6.2-2.62 6.75 0 0.58 3.33 1 8 1 7.63 0 8-0.1 8-2.25 0-1.24 1.46-5.52 3.25-9.52l3.25-7.27 32 0.04c5.52 11.94 6.49 15.29 6.1 16.75-0.59 2.21-0.44 2.25 8.4 2.25h9c-10.64-22.86-18.79-40.52-24.97-54-6.18-13.48-12.21-26.44-13.39-28.8l-2.14-4.3z"/>
		<path id="Path 9" class="s1" d="m60.5 267.86c2.2 2.26 4.22 3.88 4.5 3.62 0.28-0.27-0.63-1.65-2-3.08-1.38-1.42-3.4-3.05-4.5-3.61-1.1-0.57-0.2 0.81 2 3.07zm73.75 3.87c-1.24 0.15-2.25 0.94-2.25 1.77 0 0.88 1.06 1.6 2.56 1.75 1.41 0.14 2.76-0.09 3-0.5 0.24-0.41 0.1-1.32-0.31-2.02-0.41-0.69-1.76-1.14-3-1zm259.21 35.02l0.04 13.75h8.51l-8.01-0.5-0.58-27zm-268.3 20.12c-0.76 0.41-0.21 1.38 1.58 2.79 2.65 2.08 2.82 2.09 4.26 0.36 0.82-1 1.5-2.14 1.5-2.54 0-0.41-1.39-0.85-3.08-0.98-1.7-0.14-3.61 0.03-4.26 0.37zm-51.16 33.05c-2.29 0.65-2.16 0.78 1.5 1.43 2.2 0.39 4.22 0.45 4.5 0.13 0.27-0.33-0.18-1.01-1-1.52-0.83-0.51-1.73-0.89-2-0.85-0.28 0.05-1.63 0.41-3 0.81z"/>
		<path id="Path 10" class="s2" d="m100.5 244.67c-0.46 0.36-0.76 1.26-0.67 2 0.09 0.73 1.07 1.33 2.17 1.33 1.1 0 2 0.45 2 1 0 0.55 0.56 1.01 1.25 1.03 0.69 0.02 1.95-0.88 2.8-2 1.17-1.53 1.23-2.03 0.25-2.03-0.72 0-1.3-0.45-1.3-1 0-0.55-1.28-1-2.83-1-1.56 0-3.21 0.3-3.67 0.67zm1.5 10.33c-1.28 0.83-1.25 0.97 0.25 0.98 0.96 0.01 1.75 0.47 1.75 1.02 0 0.55-1.35 1-3 1-1.65 0-3-0.45-3-1 0-0.55-0.45-1-1-1-0.55 0-1 0.9-1 2 0 1.1 0.56 2.01 1.25 2.02 0.69 0.01 2.31 0.8 3.6 1.75 2.17 1.6 2.23 1.86 0.75 3.48-0.88 0.96-1.6 1.98-1.6 2.25 0 0.27 0.67 0.5 1.5 0.5 0.83 0 2.74 1.16 4.25 2.58 1.51 1.41 3.1 2.2 3.52 1.75 0.43-0.46 0.43-1.66 0-2.67-0.5-1.19-1.38-1.63-2.52-1.25-1.25 0.42-1.61 0.16-1.25-0.91 0.28-0.82 0.05-1.5-0.5-1.5-0.55 0-1-0.9-1-2 0-1.56 0.67-2 3-2 1.65 0 3.16 0.56 3.36 1.25 0.2 0.69 0.77 0.89 1.25 0.44 0.5-0.45 0.23-1.2-0.61-1.7-0.92-0.56-1.46-2.29-1.41-4.45 0.09-3.31-0.1-3.54-3-3.52-1.7 0-3.76 0.45-4.59 0.98zm-6.02 90.02c0.01 0.54 2.27 0.98 5.02 0.98 2.75 0 4.99-0.39 4.98-0.87-0.01-0.48-2.27-0.92-5.02-0.98-2.75-0.06-4.99 0.33-4.98 0.87zm-45.98 13.46c1.92 0.74 4.85 1.19 6.5 1 1.65-0.19 3.9-0.42 5-0.51 1.7-0.14 1.62-0.29-0.5-0.97-1.38-0.44-5.2-0.81-8.5-0.83l-6-0.03zm18-0.75c2.47 0.21 6.07 0.21 8-0.01 1.92-0.21-0.1-0.38-4.5-0.38-4.4 0-5.97 0.18-3.5 0.39zm4 5.27c1.37 0.44 4.75 0.8 7.5 0.8 3.92 0 4.46-0.17 2.5-0.8-1.38-0.44-4.75-0.8-7.5-0.8-3.92 0-4.46 0.17-2.5 0.8z"/>
		<path id="Path 11" class="s3" d="m46 254c0 1.1 0.45 2 1 2 0.55 0 1 0.68 1 1.5 0 0.82 0.45 1.5 1 1.5 0.55 0 0.77-0.45 0.5-1-0.27-0.55 0.29-1.17 1.25-1.38 1.24-0.28 1.09-0.42-0.5-0.5-1.54-0.08-2.25-0.75-2.25-2.12 0-1.1-0.45-2-1-2-0.55 0-1 0.9-1 2zm75.67 4.58c-0.96 0.82-1.46 2.26-1.17 3.42 0.28 1.1 0.95 2 1.5 2 0.64 0 0.67 0.63 0.07 1.75-0.51 0.96-1.25 2.65-1.65 3.75-0.41 1.1-0.62 2.68-0.49 3.5 0.14 0.82 1 2.29 1.91 3.25 1.16 1.22 2.04 1.44 2.91 0.75 0.86-0.69 1.44-0.61 1.86 0.25 0.33 0.69 0.1 1.7-0.52 2.25-0.62 0.55-1.12 2.69-1.11 4.75 0.01 2.55-0.34 3.51-1.1 3-0.62-0.41-0.96-1.75-0.75-2.98 0.22-1.31-0.15-2.24-0.88-2.25-0.69-0.01-1.28 0.54-1.32 1.23-0.04 0.69-0.26 2.49-0.5 4-0.35 2.24-0.01 2.82 1.82 3.11 1.24 0.21 2.92 0.02 3.75-0.4 0.83-0.42 3.3-2.47 5.5-4.54 2.2-2.08 4.81-5.61 5.81-7.85 0.99-2.24 1.33-3.62 0.76-3.07-0.58 0.55-2.18 0.89-3.56 0.75-1.45-0.14-2.51-0.88-2.51-1.75 0-0.83 0.89-1.5 2-1.5 1.1 0 2.33-0.56 2.74-1.25 0.44-0.75 0.34-0.96-0.25-0.52-0.54 0.4-1.69-0.05-2.54-1-0.85-0.95-2.43-3.39-3.5-5.42-1.07-2.02-2.29-3.49-2.7-3.25-0.41 0.24-1.57-0.42-2.58-1.48-1.59-1.68-2.03-1.74-3.5-0.5zm-13.15 20.24c-1.4 1.52-1.38 1.75 0.22 2.44 0.97 0.42 1.95 0.53 2.18 0.25 0.23-0.28-0.11-0.51-0.75-0.51-0.65 0-1.05-0.72-0.9-1.61 0.25-1.48 0.37-1.48 1.5 0 0.68 0.89 0.96 2.62 0.64 3.86l-0.6 2.25c2.53-3.57 2.88-5.14 2.44-6.04-0.41-0.84-1.3-1.71-1.97-1.93-0.67-0.22-1.91 0.36-2.76 1.29zm26.04 37.18c0.47 2.11 0.42 3.24-0.14 2.85-0.51-0.36-0.92 0.99-0.92 3.06 0 2.64 0.31 3.4 1.08 2.65 0.6-0.58 1.05-3.16 1-5.72-0.04-2.57-0.47-5.04-0.95-5.5-0.49-0.47-0.52 0.69-0.07 2.66zm-71.56 10.74c2.47 0.2 6.75 0.2 9.5 0 2.75-0.21 0.72-0.38-4.5-0.38-5.22 0-7.47 0.17-5 0.38zm23 16.26c-1.37 0.44-1.94 0.85-1.25 0.9 0.69 0.06 1.03 0.55 0.75 1.1-0.29 0.58 1.06 0.97 3.25 0.92 2.06-0.04 3.19-0.27 2.5-0.5-0.69-0.23-1.32-0.92-1.41-1.54-0.09-0.63 0.67-0.89 1.75-0.6 1.05 0.28 2.58 0.11 3.41-0.37 1.03-0.6 0.24-0.85-2.5-0.8-2.2 0.05-5.12 0.45-6.5 0.89zm10 4.5c0 1.26 0.59 1.33 3.75 0.4 2.06-0.61 3.94-1.29 4.17-1.5 0.23-0.22-1.46-0.4-3.75-0.4-3.04 0-4.17 0.41-4.17 1.5zm-13 3.5c-3.12 0.66-2.87 0.75 2.25 0.87 3.16 0.07 5.97-0.32 6.25-0.87 0.28-0.56-0.71-0.94-2.25-0.87-1.51 0.07-4.33 0.46-6.25 0.87zm-11.5 5.04c-1.46 0.55-0.65 0.87 3 1.18l5 0.42c-9.14 0.35-9.42 0.51-8.5 2.36 0.59 1.17 1.93 1.96 3.25 1.9 2.14-0.09 2.13-0.13-0.25-0.82l-2.5-0.71c4.65-0.89 6.56-0.98 7.25-0.76 0.69 0.21 1.25 1.07 1.25 1.89 0 0.82 1.01 1.64 2.25 1.81 1.24 0.17 4.16 0.17 6.5 0 2.97-0.22 4.25-0.76 4.25-1.81 0-0.82 0.56-1.51 1.25-1.52q1.25-0.01-0.25-0.98c-0.83-0.53-3.3-1.01-5.5-1.05-3.16-0.07-3.58-0.27-2-0.95 1.54-0.66 0.97-0.89-2.5-0.99-2.47-0.08-5.85-0.27-7.5-0.43-1.65-0.16-3.9 0.04-5 0.46z"/>
		<path id="Path 12" class="s4" d="m329.07 224.03c-1.34 0.5-2.35 1.15-2.25 1.44 0.1 0.29 3.52 0.42 7.61 0.28 7.05-0.24 7.58-0.1 10.52 2.75 1.7 1.65 3.07 2.55 3.04 2-0.03-0.55-0.83-1.93-1.77-3.06-0.95-1.13-3.29-2.6-5.22-3.27-1.93-0.66-4.85-1.17-6.5-1.12-1.65 0.04-4.09 0.48-5.43 0.98zm142.37 5.22c-0.85 1.79-2.87 4.15-4.49 5.25-1.62 1.1-2.95 2.79-2.95 3.75 0 1.58 0.27 1.55 2.75-0.36 1.51-1.16 3.91-4.31 5.33-7 1.42-2.69 2.2-4.89 1.74-4.89-0.47 0-1.54 1.46-2.38 3.25zm-319.62 55c-0.19 0.69-0.08 3.95 0.25 7.25l0.59 6c0.26-11.24 0.15-14.5-0.08-14.5-0.22 0-0.57 0.56-0.76 1.25zm65.93 4.5c-0.2 0.96 0.11 2.78 0.69 4.03 0.58 1.26 1.51 2.12 2.06 1.92 0.55-0.19 1.09-2.01 1.2-4.03 0.15-3-0.15-3.67-1.69-3.67-1.04 0-2.05 0.79-2.26 1.75zm9.25 0.25c0 1.1-0.45 2.9-1 4q-1 2 0 2c0.55 0 1.68-1.57 2.5-3.5 0.82-1.93 1.5-3.73 1.5-4 0-0.27-0.68-0.5-1.5-0.5-0.83 0-1.5 0.89-1.5 2zm199.05-1c-0.01 0.82 0.22 2.4 0.51 3.5 0.29 1.1 1.75 2.72 3.24 3.61 2.32 1.39 2.98 1.42 4.7 0.23 1.1-0.75 2.9-1.35 4-1.33 1.1 0.02 2.79 0.7 3.75 1.52 1.57 1.32 2.1 1.17 5.25-1.53 1.92-1.65 3.5-3.9 3.5-5 0-1.56-0.67-2-3-2-1.67 0-2.78 0.44-2.5 1 0.27 0.55-0.51 1.32-1.75 1.7-1.24 0.39-3.41 0.72-4.82 0.75-1.42 0.03-3.33 0.84-4.25 1.8-1.28 1.34-2.15 1.51-3.68 0.75-1.1-0.55-2.66-2.24-3.46-3.75-0.8-1.51-1.47-2.07-1.49-1.25zm138.92-0.25c-0.01 0.41 1.9 3.68 4.25 7.25 2.34 3.57 4.56 6.73 4.93 7 0.36 0.27 2.16 3.59 4 7.38 1.84 3.78 4 7.38 4.79 8 1.18 0.92 1.3 0.76 0.68-0.88-0.42-1.1-1.01-3.35-1.32-5-0.31-1.65-2.19-5.48-4.18-8.5-1.99-3.02-4.07-7.04-4.62-8.92-0.55-1.87-2.25-4.24-3.77-5.25-1.53-1-3.22-1.83-3.75-1.83-0.54 0-0.99 0.34-1.01 0.75zm-59.17 12.21c-2.59 1.95-4.51 3.77-4.28 4.04 0.24 0.27 1.01-0.02 1.71-0.66 0.7-0.65 1.72-1.26 2.27-1.37 0.55-0.12 1.9-0.55 3-0.98 1.1-0.42 2.86-1.69 3.9-2.82 1.87-2.03 1.87-2.06 0-1.91-1.04 0.09-4.02 1.75-6.6 3.7zm-22.36 6.13c-0.24 0.5-1.34 0.91-2.44 0.91-1.1 0-2 0.45-2 1 0 0.55-0.81 1.34-1.79 1.75-0.98 0.41-4.58 2.66-8 5-5.56 3.81-6.11 4.49-5.28 6.5 0.51 1.24 1.19 3.49 1.5 5 0.34 1.65 1.95 3.65 4.03 5 2.15 1.4 3.56 3.19 3.75 4.75 0.17 1.45 1.24 2.92 2.55 3.5 1.25 0.55 2.47 1.68 2.72 2.5 0.25 0.82 2.49 3.75 4.98 6.5l4.53 5c-1.93-5.98-3.28-8.57-4.24-9.61-0.96-1.04-2.43-1.89-3.25-1.89-0.82 0-1.5-0.45-1.5-1 0-0.55-0.91-2.24-2.02-3.75-1.12-1.53-2.35-5.31-2.75-8.51-0.4-3.17-1.07-5.76-1.48-5.75-0.41 0-0.75-0.67-0.75-1.49 0-0.82 1.35-2.85 3-4.5 1.65-1.65 3.23-3.9 3.5-5 0.38-1.53 1.33-2 4.07-2 1.97 0 4.22-0.68 5-1.5 1.12-1.17 1.16-1.66 0.18-2.22-0.69-0.4-1.84-0.81-2.56-0.91-0.71-0.11-1.5 0.22-1.75 0.72zm38.99 4.16c-0.35 1.79-0.31 4.37 0.08 5.75 0.4 1.37 1.46 3.28 2.36 4.23 1.51 1.6 1.5 1.92-0.12 4.25-0.96 1.39-1.52 2.52-1.25 2.52 0.27 0 1.4-1.35 2.5-3 1.82-2.73 1.86-3.2 0.49-5.25-0.83-1.24-1.5-4.39-1.5-7 0.01-2.61-0.42-4.75-0.95-4.75-0.53 0-1.25 1.46-1.61 3.25zm-292.43 53.75c0 0.55-2.4 1-5.32 1-2.93 0-6.42 0.44-7.75 0.97-1.34 0.53-4.23 2.6-6.43 4.6-2.2 2-3.32 3.28-2.5 2.85 0.82-0.43 2.85-1.81 4.5-3.07 1.84-1.4 3.87-2.1 5.25-1.82 1.28 0.27 2.88-0.2 3.71-1.1 1.13-1.21 3.13-1.49 8.92-1.25 4.1 0.18 7.83-0.06 8.29-0.53 0.46-0.46-0.07-0.75-1.17-0.63-1.1 0.11-2.56 0.16-3.25 0.1-0.69-0.07-1.02-0.57-0.75-1.12 0.28-0.55-0.4-1-1.5-1-1.1 0-2 0.45-2 1z"/>
		<path id="Path 13" class="s5" d="m332.17 243.25c-0.63 1.79-1.15 3.59-1.16 4 0 0.41 1.34 0.75 2.99 0.75 1.65 0 2.99-0.34 2.99-0.75-0.01-0.41-0.39-2.21-0.85-4-0.47-1.79-1.29-3.25-1.83-3.25-0.55 0-1.51 1.46-2.14 3.25zm-260.92 11.21c-0.58 1.47-1.11 4.1-1.17 5.86-0.07 1.75 0.56 4.87 1.4 6.93 0.83 2.06 1.52 3.98 1.52 4.25 0 0.27-1.01 0.18-2.25-0.2l-2.25-0.71c3.49 5.74 4.16 7.39 3.75 7.37-0.41-0.02-1.55-1.04-2.53-2.25-1.45-1.79-1.73-3.74-1.5-10.31 0.21-6.08-0.09-8.51-1.22-9.79-0.83-0.93-1.84-1.68-2.25-1.65-0.41 0.02-0.58 1.73-0.36 3.79 0.21 2.06 0.69 4.87 1.07 6.25 0.67 2.43 0.65 2.45-0.9 0.5-0.88-1.1-2.26-2.79-3.08-3.75-0.81-0.96-2.16-1.75-2.98-1.75-0.9 0-1.49 0.9-1.47 2.25 0.02 1.38 1.56 3.5 4 5.5 2.18 1.79 3.98 3.81 3.98 4.5 0.01 0.69-1.9-0.63-4.25-2.92-2.34-2.3-4.94-4.26-5.76-4.37-0.83-0.11-2.06-0.14-2.75-0.08q-1.26 0.11-0.5 2.31c0.41 1.21 2.1 3.01 3.75 4.01l3 1.81c-6.98-1.01-9.9-1.01-11-0.65l-2 0.65c3.54 3.59 3.66 4.04 2.5 4.01-0.83-0.03-2.4 0.6-3.5 1.4l-2 1.46c3.1 2.41 4.9 2.89 6 2.61 1.64-0.41 1.46 0.06-1 2.55-2.51 2.56-2.76 3.21-1.5 3.99 0.82 0.52 2.4 0.94 3.5 0.93 1.2 0 3.1-1.59 4.75-3.98 1.51-2.19 2.97-3.75 3.25-3.48 0.27 0.27-0.86 2.41-2.52 4.75-1.65 2.34-3 4.81-3 5.5 0.01 0.69 0.89 1.25 1.95 1.25 1.06 0 2.63-0.68 3.5-1.5 0.86-0.82 1.91-2.9 2.32-4.62 0.41-1.71 1.33-3.63 2.05-4.25 0.97-0.84 1.92-0.81 3.75 0.12 2.45 1.25 2.45 1.28 2.45 17.25v16c-5.3 5.44-6.67 6-10.26 6-2.42 0-4.7 0.34-5.06 0.75-0.36 0.41 0.13 1.3 1.08 1.97 1.22 0.85 7.45 1.22 20.74 1.23 10.45 0.01 20.12-0.25 21.5-0.58 1.99-0.48 2.2-0.78 1-1.47-0.83-0.48-2.4-0.87-3.5-0.86-1.1 0.01-4.03-0.85-6.5-1.91-2.48-1.06-4.84-2.64-5.25-3.53-0.41-0.88-0.75-7.67-0.75-15.1 0-8.77 0.44-14.4 1.25-16.07 0.93-1.91 1.89-2.48 3.75-2.25 2.22 0.28 2.47 0.74 2.25 4.07-0.14 2.06 0.2 4.65 0.75 5.75 0.55 1.1 1.67 2 2.5 2 0.82 0 1.55-0.56 1.62-1.25 0.06-0.69 0.11-1.48 0.11-1.75-0.01-0.27-0.36-2.52-0.79-5-0.47-2.7-0.41-4.25 0.14-3.87 0.51 0.35 1.27 2.38 1.69 4.5 0.42 2.13 1.32 4.45 2 5.16 0.68 0.72 1.79 1.28 2.48 1.25 0.69-0.02 1.25-0.94 1.25-2.04 0-1.1-0.45-2.9-1-4q-1-2 0-2c0.55 0 1.22 0.45 1.5 1 0.27 0.55 1.74 1.02 3.25 1.04 1.51 0.03 3.31-0.65 4-1.5 1.05-1.29 0.77-1.86-1.75-3.54-1.65-1.1-3.23-2-3.5-2-0.28 0-0.84-0.19-1.25-0.42-0.41-0.23 0.49-0.68 2-1 1.89-0.4 2.75-1.21 2.75-2.58 0-1.1-0.68-2.23-1.5-2.5-0.83-0.27-2.74-0.53-4.25-0.56l-2.75-0.07c5.07-2.61 6.53-3.71 6.52-4.12-0.01-0.41-1.6-0.98-3.52-1.25-2.07-0.3-4.72 0.11-6.5 1-1.65 0.82-3.56 1.51-4.25 1.51-0.69 0.01 0.77-1.24 3.25-2.79 2.47-1.54 4.88-3.68 5.34-4.76 0.76-1.78 0.55-1.89-2.25-1.21-2.85 0.69-3.01 0.6-2.09-1.25 0.55-1.1 1-2.9 1-4 0-1.49-0.45-1.83-1.75-1.35-0.96 0.36-2.58 1.37-3.59 2.25-1.74 1.51-1.81 1.45-1.25-1.15 0.35-1.62 0.16-2.75-0.46-2.75-0.57 0-2.17 1.12-3.54 2.5-1.38 1.37-2.71 2.5-2.96 2.5-0.25 0-0.56-1.65-0.7-3.67-0.14-2.02-0.81-3.82-1.5-4-0.73-0.19-1.64 1.23-2.19 3.42-0.52 2.06-0.75 5.32-0.52 7.25 0.37 2.99 0.3 3.14-0.45 1-0.49-1.38-0.83-4.13-0.76-6.13 0.08-2.25-0.46-4.09-1.45-4.86-1.34-1.03-1.75-0.8-2.63 1.45zm323 39.46c-0.32 0.23-0.51 6.19-0.42 13.25l0.17 12.83c9.24 0 10.54-0.49 13.57-3.25 1.97-1.79 3.98-4.82 4.48-6.75 0.49-1.93 0.66-4.85 0.37-6.5-0.3-1.65-1.19-4.01-1.98-5.25-0.79-1.24-2.45-2.77-3.69-3.4-1.24-0.63-4.43-1.19-7.08-1.25-2.66-0.05-5.1 0.09-5.42 0.32zm-360.92 10.39c-0.55 0.76-1.41 3.54-1.91 6.16-0.55 2.84-1.63 5.12-2.67 5.65-1.3 0.65-1.88 0.43-2.24-0.87-0.28-0.96-1.51-2.92-2.75-4.34-1.24-1.43-3.27-3.12-4.51-3.75-1.24-0.64-2.7-0.93-3.25-0.66-0.55 0.27-0.72 1.74-0.37 3.25 0.34 1.51 1.58 4.44 2.75 6.5 1.71 3.03 1.87 4 0.85 5-0.69 0.69-1.27 1.48-1.29 1.75-0.01 0.27 1.46 1.14 3.27 1.91 2.89 1.24 3.08 1.55 1.58 2.5-0.94 0.6-1.73 1.88-1.75 2.84-0.03 1.23 0.78 1.78 2.71 1.86 1.51 0.06 3.88 0 5.25-0.13 1.99-0.2 2.35 0.08 1.75 1.38-0.57 1.24 0.16 2.1 3 3.53 2.06 1.04 5.55 2.39 7.75 3 2.9 0.8 5.52 0.8 9.5 0.02 3.03-0.6 13.04-1.05 22.25-1 9.21 0.05 17.76 0.49 19 0.98 1.24 0.49 5.18 1.21 8.75 1.6 5.02 0.55 7.41 0.34 10.5-0.94 2.2-0.91 5.35-3.02 7-4.7 2.51-2.55 3.53-2.95 6.25-2.45 2.78 0.51 3.25 0.31 3.25-1.4 0-1.17-0.83-2.21-2-2.5-1.1-0.27-2-0.95-2-1.5 0-0.55 0.9-1.23 2-1.5 1.1-0.27 2.45-0.27 3 0 0.55 0.27 1.29-0.06 1.65-0.75 0.36-0.69-0.09-1.81-1-2.5-1.52-1.15-1.5-1.57 0.34-5.5 1.09-2.34 1.99-5.71 2-7.5 0-1.94-0.61-3.55-1.52-4-1.05-0.51-2.65 0.36-5.04 2.75-1.93 1.93-3.94 5.19-4.47 7.25-0.53 2.06-1.41 3.52-1.96 3.25-0.55-0.27-1-2.07-1-4 0-1.93-0.9-5.3-2-7.5-1.1-2.2-2.34-4.01-2.75-4.03-0.41-0.01-1.31 1.11-2 2.5-0.69 1.39-1.25 3.43-1.25 4.53 0 1.11-0.67 2-1.5 2-0.82 0-2.4-1.13-3.5-2.5-1.45-1.81-2.97-2.5-5.5-2.5-3.41 0-3.47 0.07-2.44 2.75 0.84 2.19 0.74 2.95-0.47 3.75-0.83 0.55-1.53 1.34-1.55 1.75-0.02 0.41 1.31 0.52 2.96 0.25 1.67-0.28 3-0.06 3 0.5 0 0.55-0.79 0.99-1.75 0.97-1.56-0.02-1.52 0.23 0.36 2.25 1.16 1.26 2.4 3.29 2.75 4.53 0.44 1.54 0.01 2.88-1.36 4.25-1.19 1.19-3.52 2.07-5.75 2.17-2.06 0.09-6.22 0.03-9.25-0.15-3.02-0.18-12.02-0.39-20-0.46-7.97-0.07-15.51-0.45-16.75-0.84-1.24-0.4-2.66-1.51-3.16-2.47-0.49-0.96-0.72-2.99-0.5-4.5 0.34-2.3 0.9-2.75 3.41-2.75 1.65 0 3-0.45 3-1 0-0.55-1.24-1.7-2.75-2.55l-2.75-1.55c4.26 0.85 5.73 0.65 6 0.1 0.28-0.55-0.18-1.56-1.01-2.25-1.06-0.87-1.21-1.63-0.5-2.5 0.55-0.69 0.79-1.93 0.51-2.75-0.35-1.06-1.31-1.33-3.25-0.91-1.51 0.33-3.99 1.45-5.5 2.5-1.51 1.05-2.9 1.8-3.08 1.66-0.18-0.14-0.76-1.82-1.29-3.75-0.53-1.93-1.65-3.63-2.51-3.79-0.85-0.16-1.99 0.33-2.54 1.1zm293.09 17.33c-2.71 6.95-5.03 12.91-5.17 13.25-0.14 0.33 4.7 0.72 10.75 0.86 6.05 0.14 10.99-0.09 10.99-0.5-0.01-0.41-2.22-6.49-4.91-13.5-2.69-7.01-5.3-12.75-5.81-12.75-0.51 0-3.14 5.69-5.85 12.64z"/>
		<path id="Path 14" class="s7" d="m302.03 285c-0.61 1.19-2.04 2-3.53 2-2.34 0-2.52 0.36-2.75 5.65-0.14 3.11 0.2 6.32 0.75 7.13 0.79 1.16 1.47 1.23 3.25 0.34 1.47-0.73 2.42-0.77 2.75-0.12 0.28 0.55 0.84 1.01 1.25 1.01 0.41 0.01 1.98-2.35 3.48-5.25 1.5-2.89 2.74-6.05 2.75-7.01 0.01-1.21-0.76-1.75-2.48-1.75-1.83 0-2.5-0.53-2.5-2 0-1.1-0.44-2-0.97-2-0.54 0-1.44 0.9-2 2zm52.59 2.75c-0.26 0.41 0.28 2.23 1.2 4.04 0.96 1.88 2.43 3.27 3.43 3.25 0.96-0.02 2.19 0.75 2.72 1.71 0.72 1.3 0.98 0.26 1-4l0.03-5.75c-6.12 0-8.12 0.34-8.38 0.75zm156.07 22.02c-1.15 1.29-4.26 1.7-16 2.06l-14.57 0.44c-6.04 5.95-6.29 6.7-5.97 11.39 0.25 3.62 1.01 5.85 2.58 7.5 1.22 1.29 2.22 3.02 2.21 3.84-0.01 0.82 1.24 2.08 2.77 2.79 1.53 0.7 5.49 1.66 8.79 2.12 3.35 0.47 7 0.45 8.25-0.04 1.24-0.48 3.15-0.87 4.25-0.87 1.1 0 3.79-1.24 5.97-2.75 2.33-1.61 5.21-5.02 6.97-8.25 1.65-3.02 3-6.85 3.02-8.5 0.01-1.65-0.54-4.45-1.22-6.23-0.68-1.77-2.23-3.65-3.44-4.16-1.64-0.71-2.55-0.54-3.61 0.66zm-353.42 18.58c-1.26 1.93-2.4 5.63-2.69 8.75-0.28 2.97-0.98 5.51-1.55 5.65-0.56 0.14-1.03 0.7-1.03 1.25 0 0.55 0.45 0.77 1 0.5 0.55-0.27 1.21 0.06 1.46 0.75 0.26 0.69 1.16 1.59 2 2 1.07 0.52 2.89-0.55 5.95-3.5 2.42-2.34 5.46-5.03 6.75-5.99l2.34-1.73c-3.87-3.94-5.45-5.07-6-5.06-0.55 0.01-1.9-1.32-3-2.97-1.1-1.65-2.23-3-2.52-3-0.29 0-1.5 1.51-2.71 3.35z"/>
		<path id="Path 15" class="s1" d="m82.69 265.35c-2.33 2.02-3.83 4.32-4.16 6.4-0.29 1.79-0.08 3.47 0.47 3.75 0.55 0.27 1-0.63 1-2 0-1.38 0.71-2.84 1.59-3.25 1-0.47 1.88-0.2 2.38 0.75 0.55 1.04 1.1 0 1.8-3.37 0.55-2.68 0.91-5 0.78-5.15-0.12-0.15-1.85 1.14-3.86 2.87zm-28.19 10.42c-1.24 0.34 0.66 1.04 5 1.85 3.85 0.71 7.22 1.09 7.5 0.83 0.28-0.26-0.4-1.13-1.5-1.93-1.1-0.8-3.57-1.42-5.5-1.37-1.92 0.04-4.4 0.33-5.5 0.62zm30.97 2.64c-1.82 1.3-1.6 1.45 3.03 2.04 2.75 0.35 6.58 0.86 8.5 1.13l3.5 0.5c-6.59-3.94-9.52-5.08-10.78-5.08-1.25 0-3.16 0.63-4.25 1.41zm-48.41 36.84c-0.74 1.24-1.28 4.27-1.2 6.75 0.08 2.47 0.82 5.51 1.64 6.75 0.83 1.24 3.08 2.92 5 3.75 1.92 0.82 4.29 1.51 5.25 1.51 0.96 0.01-0.61-1.12-3.5-2.5-4.01-1.92-5.39-3.16-5.83-5.26-0.32-1.51-0.28-4.33 0.08-6.25 0.35-1.93 0.78-4.29 0.93-5.25 0.16-0.96-0.01-1.75-0.37-1.75-0.36 0-1.26 1.01-2 2.25zm70.01 4.5c-0.04 2.34-0.73 5.71-1.53 7.5-0.8 1.79-2.26 4.05-3.25 5.03-0.98 0.98-2.98 1.88-4.44 2-1.46 0.12-2.48 0.56-2.25 0.97 0.22 0.41 1.64 0.49 3.15 0.17 1.51-0.32 3.37-1.11 4.12-1.75 0.76-0.64 2.16-2.75 3.11-4.67 0.95-1.93 1.97-4.85 2.26-6.5 0.3-1.65 0.17-3.9-0.28-5-0.62-1.51-0.84-0.96-0.89 2.25zm-79.56 3.5c0.38 1.24 1.91 3.82 3.4 5.75 1.5 1.92 4.49 4.36 6.65 5.41 2.17 1.04 6.64 2.03 9.94 2.19l6 0.3c-8.52-1.22-12.77-2.44-14.93-3.49-2.68-1.3-4.96-3.59-7.12-7.16-1.75-2.89-3.51-5.25-3.91-5.25-0.4 0-0.41 1.01-0.03 2.25zm85.41 5.29c-1.33 2.49-2.64 4.53-2.92 4.53-0.28 0-1.85 1.12-3.5 2.5q-2.96 2.47-0.99 1.71c1.1-0.43 3.47-1.68 5.26-2.78 2.05-1.26 3.66-3.3 4.33-5.5 0.58-1.93 0.87-3.84 0.65-4.25-0.23-0.42-1.5 1.29-2.83 3.79z"/>
		<path id="Path 16" class="s5" d="m558.06 235.74c-1.34 0.97-3 3.11-3.69 4.76-0.69 1.65-0.99 4.12-0.67 5.5 0.32 1.37 1.53 3.56 2.69 4.86 1.16 1.29 3.24 2.77 4.61 3.28 1.59 0.59 3.69 0.55 5.75-0.11 1.79-0.57 4.17-2.27 5.28-3.78 1.22-1.65 2.03-4.25 2-6.5-0.02-2.81-0.79-4.51-3.03-6.75-2.26-2.26-3.92-3-6.75-3.01-2.06 0-4.85 0.79-6.19 1.75zm-10.27 85.01c-2.6 6.46-4.97 12.42-5.27 13.25-0.46 1.27 1.17 1.54 10.47 1.75 6.05 0.14 11.01 0.02 11.01-0.25 0-0.27-2.32-6.01-5.16-12.75-2.84-6.74-5.42-12.59-5.75-13-0.32-0.41-2.71 4.54-5.3 11z"/>
	</g>
</svg>